<svg width="37" height="39" viewBox="0 0 37 39" fill="none" xmlns="http://www.w3.org/2000/svg">
<path d="M27.406 28.4442C27.6515 26.3985 27.5779 26.0984 29.1017 26.4298L29.4885 26.4638C30.6602 26.5171 32.1929 26.2753 33.0933 25.857C35.0317 24.9576 36.181 23.456 34.2697 23.8505C29.91 24.7499 29.6102 23.2737 29.6102 23.2737C34.2139 16.443 36.1384 7.77212 34.4773 5.64966C29.9465 -0.139632 22.1038 2.59808 21.9726 2.66916L21.9308 2.67696C21.0694 2.49814 20.1053 2.39135 19.0223 2.37384C17.0494 2.34142 15.5523 2.89106 14.4167 3.7524C14.4167 3.7524 0.42583 -2.01167 1.07671 11.0013C1.21514 13.7695 5.04468 31.9481 9.61213 26.4573C11.2815 24.4495 12.8948 22.7519 12.8948 22.7519C13.6959 23.2841 14.655 23.5556 15.6609 23.4581L15.7387 23.3917C15.7143 23.641 15.7251 23.885 15.7698 24.1736C14.5934 25.4882 14.9391 25.7191 12.5867 26.2032C10.2067 26.6938 11.6049 27.5671 12.5176 27.7953C13.6243 28.0721 16.1846 28.4641 17.915 26.0423L17.8461 26.3186C18.3076 26.6879 18.2764 28.9727 18.3419 30.6051C18.4074 32.2377 18.5167 33.7611 18.8495 34.6592C19.1822 35.5573 19.5749 37.8708 22.6665 37.2082C25.2504 36.6544 27.2259 35.8575 27.406 28.4442Z" fill="#050C12" stroke="#050C12" stroke-width="2"/>
<path d="M34.2706 23.8503C29.9104 24.7497 29.6107 23.2734 29.6107 23.2734C34.2143 16.4423 36.1388 7.77126 34.478 5.64907C29.9472 -0.13988 22.1042 2.59792 21.9733 2.669L21.9312 2.67654C21.0698 2.49772 20.1057 2.39119 19.0222 2.3735C17.0493 2.34117 15.5528 2.89073 14.4172 3.7519C14.4172 3.7519 0.425992 -2.01192 1.0767 11.001C1.21513 13.7694 5.04458 31.9479 9.6122 26.4571C11.2817 24.4493 12.8947 22.7517 12.8947 22.7517C13.6959 23.2839 14.655 23.5554 15.6605 23.4579L15.7386 23.3916C15.7143 23.6409 15.7254 23.8848 15.7699 24.1734C14.5932 25.488 14.939 25.719 12.5867 26.2031C10.2066 26.6937 11.6048 27.5669 12.5177 27.7951C13.6245 28.0719 16.1849 28.4639 17.915 26.0421L17.846 26.3184C18.307 26.6877 18.6308 28.7204 18.5765 30.5632C18.5223 32.4058 18.486 33.6709 18.8493 34.6591C19.2126 35.6472 19.5746 37.8706 22.6669 37.208C25.2507 36.6543 26.5897 35.2194 26.776 32.8259C26.9081 31.1243 27.2073 31.3758 27.2262 29.8545L27.4661 29.1342C27.7428 26.8277 27.5101 26.0834 29.1019 26.4296L29.4888 26.4635C30.6604 26.5168 32.1939 26.2751 33.0939 25.8568C35.0319 24.9574 36.1813 23.4557 34.2704 23.8503H34.2706Z" fill="#336791"/>
<path d="M18.1021 25.1727C17.9821 29.4647 18.1323 33.7867 18.5523 34.8371C18.9725 35.8875 19.8718 37.9305 22.9643 37.268C25.5479 36.7141 26.4879 35.6423 26.8959 33.2764C27.1963 31.5356 27.7755 26.7013 27.8498 25.7108M14.3955 3.65616C14.3955 3.65616 0.39481 -2.06613 1.04569 10.9468C1.18412 13.7152 5.01383 31.8943 9.58137 26.4033C11.2505 24.3952 12.76 22.8203 12.76 22.8203M21.9579 2.61175C21.4733 2.7637 29.746 -0.41244 34.4474 5.59503C36.1082 7.71731 34.1837 16.3885 29.5801 23.2197" stroke="#050C12" stroke-width="2" stroke-linecap="round" stroke-linejoin="round"/>
<path d="M29.5803 23.2197C29.5803 23.2197 29.8803 24.6964 34.2406 23.7964C36.151 23.4018 35.0013 24.9037 33.0637 25.8035C31.4736 26.5415 27.9085 26.7306 27.8503 25.7108C27.7004 23.0796 29.7265 23.879 29.5803 23.2197ZM29.5803 23.2197C29.4481 22.626 28.5421 22.0432 27.9427 20.59C27.4194 19.3216 20.7659 9.59469 29.7878 11.0393C30.1183 10.9709 27.4348 2.45778 18.9915 2.31935C10.5502 2.18092 10.8271 12.7004 10.8271 12.7004" stroke="white" stroke-width="2" stroke-linecap="round" stroke-linejoin="bevel"/>
<path d="M15.739 24.1195C14.5621 25.4341 14.9082 25.6651 12.5558 26.1493C10.1757 26.6399 11.5741 27.5131 12.4867 27.7412C13.5935 28.0182 16.1539 28.4102 17.884 25.9878C18.4108 25.2502 17.8809 24.0733 17.1572 23.7733C16.8075 23.6286 16.3399 23.447 15.739 24.1195Z" stroke="white" stroke-width="2" stroke-linecap="round" stroke-linejoin="round"/>
<path d="M15.662 24.0965C15.5434 23.3235 15.9159 22.4037 16.3152 21.3277C16.9152 19.7132 18.2996 18.0984 17.1921 12.977C16.3667 9.16052 10.8301 12.1827 10.8267 12.7002C10.8233 13.2175 11.0771 15.3232 10.7342 17.7752C10.2867 20.9748 12.7701 23.6809 15.6298 23.404" stroke="white" stroke-width="2" stroke-linecap="round" stroke-linejoin="round"/>
<path d="M14.3444 12.6228C14.3194 12.7997 14.668 13.2712 15.1224 13.3342C15.5761 13.3975 15.9645 13.0289 15.9891 12.8524C16.0137 12.6756 15.6656 12.481 15.2109 12.4177C14.757 12.3544 14.3685 12.4465 14.3445 12.6228H14.3444Z" fill="white" stroke="white" stroke-width="2"/>
<path d="M28.1633 12.2624C28.1879 12.4392 27.8398 12.9107 27.3853 12.9738C26.9312 13.037 26.5429 12.6685 26.518 12.4919C26.494 12.3152 26.8422 12.1205 27.2963 12.0572C27.7504 11.9939 28.1387 12.0861 28.1633 12.2625V12.2624Z" fill="white" stroke="white" stroke-width="2"/>
<path d="M29.7875 11.0393C29.8623 12.4257 29.4889 13.37 29.4418 14.8458C29.3721 16.991 30.4645 19.4463 28.8185 21.9046" stroke="white" stroke-width="2" stroke-linecap="round" stroke-linejoin="round"/>
</svg>
