<svg width="1920" height="358" viewBox="0 0 1920 358" fill="none" xmlns="http://www.w3.org/2000/svg">
<mask id="mask0_968_29942" style="mask-type:alpha" maskUnits="userSpaceOnUse" x="0" y="0" width="1920" height="358">
<rect width="1920" height="358" fill="#020844"/>
</mask>
<g mask="url(#mask0_968_29942)">
<path fill-rule="evenodd" clip-rule="evenodd" d="M2190.93 871.065H1857.15L1771.99 769.522H2071.71L2190.93 871.065ZM1520.63 871.065H1854.81L1769.65 769.522H1469.54L1520.63 871.065ZM1518.62 871.065H1184.12L1167.09 769.522H1467.53L1518.62 871.065ZM847.604 871.065H1182.3L1165.27 769.522H864.698L847.604 871.065ZM845.786 871.065H511.537L562.633 769.522H862.88L845.786 871.065ZM175.059 871.065H509.53L560.626 769.522H260.295L175.059 871.065ZM172.718 871.065H0V872.858H2260V871.065H2193.7L2074.47 769.522H2260V767.729H2072.37L1975.79 685.47H2246.97L2260 694.101V691.947L2250.22 685.47H2260V683.677H2247.51L2145.01 615.782H2260V613.989H2142.3L2056.34 557.052H2260V555.259H2053.64L1980.62 506.894H2191.3L2260 544.123V542.078L2195.07 506.894H2260V505.101H2191.77L2115.1 463.552H2260V461.759H2111.79L2045.3 425.727H2228.24L2260 440.291V438.317L2232.54 425.727H2260V423.934H2228.63L2159.93 392.428H2260V390.635H2156.02L2095.52 362.895H2256.84L2260 364.153V362.218L2260 361.102H2257.19L2195.33 336.516H2260V334.723H2190.81L2135.68 312.814H2260V311.021H2131.17L2081.8 291.401H2218.56L2260 305.933V304.03L2223.99 291.401H2260V289.608H2218.87L2168.53 271.955H2260V270.162H2163.42L2117.99 254.233H2241.73L2260 259.966V258.089L1985.75 172.038L44.5539 171.999L0 185.976V187.859L9.82143 184.777H110.249L81.6865 194.792H0V196.585H76.5732L45.3752 207.525H0V209.318H40.2619L6.14295 221.281H0V223.074H1.0296L0 223.435V225.338L6.45514 223.074H120.293L87.2497 236.206H0V237.999H82.7378L46.3992 252.44H0V254.233H41.8875L1.80279 270.162H0V270.879V271.955V272.814L2.15988 271.955H132.959L94.4618 289.608H0V291.401H90.5518L47.7655 311.021H0V312.814H43.8555L0 332.924V334.723V334.898V336.516H149.48L104.112 361.102H0V362.895H100.804L49.6164 390.635H0V392.428H46.3079L0 417.524V419.568L50.0787 392.428H222.367L174.801 423.934H0V425.727H172.094L117.696 461.759H0V463.552H114.989L52.2616 505.101H0V506.894H49.5547L0 539.717V541.871L52.8063 506.894H263.995L207.203 555.259H0V557.052H205.098L138.24 613.989H0V615.782H136.134L56.4099 683.677H0V685.47H54.3045L0 731.716V734.077L57.0759 685.47H328.508L259.459 767.729H0V769.522H257.954L172.718 871.065ZM11.568 221.281L45.6838 209.318H154.91L124.805 221.281H11.568ZM50.7966 207.525L81.9917 196.585H186.949L159.421 207.525H50.7966ZM87.1045 194.792L115.664 184.777H216.662L191.46 194.792H87.1045ZM115.362 182.984H15.5349L44.8247 173.792H141.576L115.362 182.984ZM146.988 173.792L120.777 182.984H221.174L244.303 173.792H146.988ZM226.027 182.984L249.155 173.792H347.029L326.985 182.984H226.027ZM196.316 194.792L221.516 184.777H323.075L301.234 194.792H196.316ZM297.324 196.585H191.804L164.279 207.525H273.467L297.324 196.585ZM269.557 209.318H159.767L129.665 221.281H243.467L269.557 209.318ZM239.557 223.074H125.153L92.1122 236.206H210.921L239.557 223.074ZM207.011 237.999H87.6006L51.2646 252.44H175.518L207.011 237.999ZM171.608 254.233H46.7532L6.6713 270.162H136.869L171.608 254.233ZM0.380797 334.723L48.1578 312.814H193.216L152.789 334.723H0.380797ZM52.0678 311.021L94.8527 291.401H232.729L196.525 311.021H52.0678ZM98.7626 289.608L137.259 271.955H268.612L236.037 289.608H98.7626ZM141.169 270.162L175.906 254.233H301.315L271.92 270.162H141.169ZM179.816 252.44L211.308 237.999H331.27L304.623 252.44H179.816ZM215.218 236.206L243.854 223.074H358.81L334.579 236.206H215.218ZM247.763 221.281L273.853 209.318H384.194L362.118 221.281H247.763ZM277.762 207.525L301.618 196.585H407.689L387.503 207.525H277.762ZM305.528 194.792L327.368 184.777H429.478L410.997 194.792H305.528ZM351.322 173.792L331.278 182.984H432.787L449.747 173.792H351.322ZM436.543 182.984L453.503 173.792H552.447L538.571 182.984H436.543ZM414.754 194.792L433.234 184.777H535.864L520.743 194.792H414.754ZM518.036 196.585H411.446L391.261 207.525H501.521L518.036 196.585ZM498.814 209.318H387.952L365.877 221.281H480.752L498.814 209.318ZM478.045 223.074H362.569L338.339 236.206H458.22L478.045 223.074ZM455.513 237.999H335.03L308.384 252.44H433.711L455.513 237.999ZM431.004 254.233H305.076L275.682 270.162H406.955L431.004 254.233ZM404.248 271.955H272.374L239.801 289.608H377.597L404.248 271.955ZM374.89 291.401H236.492L200.29 311.021H345.269L374.89 291.401ZM342.562 312.814H196.982L156.555 334.723H309.485L342.562 312.814ZM306.779 336.516H153.247L107.881 361.102H269.66L306.779 336.516ZM266.953 362.895H104.572L53.3871 390.635H225.073L266.953 362.895ZM55.5132 505.101L118.24 463.552H314.889L266.101 505.101H55.5132ZM120.947 461.759L175.344 425.727H359.304L316.994 461.759H120.947ZM178.051 423.934L225.616 392.428H398.405L361.409 423.934H178.051ZM228.323 390.635L270.202 362.895H433.083L400.51 390.635H228.323ZM272.909 361.102L310.027 336.516H464.059L435.189 361.102H272.909ZM312.734 334.723L345.81 312.814H491.89L466.164 334.723H312.734ZM348.517 311.021L378.138 291.401H517.034L493.996 311.021H348.517ZM380.844 289.608L407.496 271.955H539.868L519.139 289.608H380.844ZM410.202 270.162L434.252 254.233H560.679L541.974 270.162H410.202ZM436.958 252.44L458.76 237.999H579.741L562.784 252.44H436.958ZM461.467 236.206L481.292 223.074H597.266L581.847 236.206H461.467ZM483.999 221.281L502.06 209.318H613.42L599.372 221.281H483.999ZM504.767 207.525L521.283 196.585H628.371L615.525 207.525H504.767ZM523.99 194.792L539.11 184.777H642.236L630.476 194.792H523.99ZM555.693 173.792L541.817 182.984H644.342L655.135 173.792H555.693ZM647.108 182.984L657.901 173.792H758.012L750.296 182.984H647.108ZM633.243 194.792L645.003 184.777H748.791L740.385 194.792H633.243ZM738.879 196.585H631.137L618.292 207.525H729.697L738.879 196.585ZM728.192 209.318H616.187L602.138 221.281H718.15L728.192 209.318ZM716.645 223.074H600.033L584.614 236.206H705.622L716.645 223.074ZM704.117 237.999H582.508L565.551 252.44H691.995L704.117 237.999ZM690.49 254.233H563.446L544.741 270.162H677.119L690.49 254.233ZM675.614 271.955H542.636L521.907 289.608H660.795L675.614 271.955ZM659.29 291.401H519.802L496.763 311.021H642.821L659.29 291.401ZM641.316 312.814H494.658L468.932 334.723H622.926L641.316 312.814ZM621.421 336.516H466.827L437.957 361.102H600.783L621.421 336.516ZM599.278 362.895H435.851L403.279 390.635H575.993L599.278 362.895ZM574.488 392.428H401.173L364.178 423.934H548.042L574.488 392.428ZM546.537 425.727H362.072L319.763 461.759H516.292L546.537 425.727ZM514.787 463.552H317.658L268.87 505.101H479.91L514.787 463.552ZM478.405 506.894H266.765L209.973 555.259H437.807L478.405 506.894ZM436.302 557.052H207.868L141.01 613.989H388.509L436.302 557.052ZM387.004 615.782H138.905L59.1813 683.677H330.013L387.004 615.782ZM261.8 767.729L330.848 685.47H602.92L561.528 767.729H261.8ZM332.354 683.677L389.344 615.782H637.986L603.822 683.677H332.354ZM390.85 613.989L438.643 557.052H667.539L638.888 613.989H390.85ZM440.148 555.259L480.746 506.894H692.778L668.441 555.259H440.148ZM482.251 505.101L517.127 463.552H714.587L693.68 505.101H482.251ZM518.633 461.759L548.877 425.727H733.62L715.489 461.759H518.633ZM550.383 423.934L576.829 392.428H750.376L734.522 423.934H550.383ZM578.334 390.635L601.619 362.895H765.237L751.278 390.635H578.334ZM603.124 361.102L623.762 336.516H778.51L766.139 361.102H603.124ZM625.267 334.723L643.657 312.814H790.437L779.412 334.723H625.267ZM645.162 311.021L661.631 291.401H801.212L791.339 311.021H645.162ZM663.136 289.608L677.954 271.955H810.997L802.114 289.608H663.136ZM679.459 270.162L692.831 254.233H819.915L811.899 270.162H679.459ZM694.336 252.44L706.458 237.999H828.083L820.817 252.44H694.336ZM707.963 236.206L718.985 223.074H835.593L828.986 236.206H707.963ZM720.49 221.281L730.533 209.318H842.515L836.495 221.281H720.49ZM732.038 207.525L741.22 196.585H848.922L843.418 207.525H732.038ZM742.725 194.792L751.132 184.777H854.864L849.824 194.792H742.725ZM760.353 173.792L752.637 182.984H855.766L860.391 173.792H760.353ZM604.927 685.47L563.535 767.729H863.182L877.029 685.47H604.927ZM639.994 615.782L605.83 683.677H877.331L888.76 615.782H639.994ZM669.546 557.052L640.896 613.989H889.062L898.647 557.052H669.546ZM694.785 506.894L670.448 555.259H898.949L907.091 506.894H694.785ZM716.594 463.552L695.687 505.101H907.392L914.387 463.552H716.594ZM735.627 425.727L717.497 461.759H914.689L920.754 425.727H735.627ZM752.383 392.428L736.53 423.934H921.056L926.36 392.428H752.383ZM767.244 362.895L753.285 390.635H926.661L931.331 362.895H767.244ZM780.518 336.516L768.146 361.102H931.633L935.772 336.516H780.518ZM792.444 312.814L781.42 334.723H936.074L939.762 312.814H792.444ZM803.219 291.401L793.346 311.021H940.064L943.366 291.401H803.219ZM813.004 271.955L804.121 289.608H943.668L946.64 271.955H813.004ZM821.922 254.233L813.906 270.162H946.942L949.623 254.233H821.922ZM830.091 237.999L822.824 252.44H949.925L952.356 237.999H830.091ZM837.6 223.074L830.993 236.206H952.658L954.869 223.074H837.6ZM844.523 209.318L838.503 221.281H955.17L957.184 209.318H844.523ZM850.929 196.585L845.425 207.525H957.486L959.328 196.585H850.929ZM856.871 184.777L851.832 194.792H959.63L961.316 184.777H856.871ZM857.773 182.984L862.398 173.792H963.165L961.617 182.984H857.773ZM865 767.729L878.847 685.47H1151.17L1164.97 767.729H865ZM879.149 683.677L890.578 615.782H1139.48L1150.87 683.677H879.149ZM890.88 613.989L900.465 557.052H1129.63L1139.18 613.989H890.88ZM900.767 555.259L908.909 506.894H1121.22L1129.33 555.259H900.767ZM909.21 505.101L916.205 463.552H1113.95L1120.92 505.101H909.21ZM916.507 461.759L922.572 425.727H1107.61L1113.65 461.759H916.507ZM922.874 423.934L928.178 392.428H1102.02L1107.31 423.934H922.874ZM928.48 390.635L933.149 362.895H1097.07L1101.72 390.635H928.48ZM933.451 361.102L937.59 336.516H1092.65L1096.77 361.102H933.451ZM937.892 334.723L941.58 312.814H1088.67L1092.35 334.723H937.892ZM941.882 311.021L945.185 291.401H1085.08L1088.37 311.021H941.882ZM945.486 289.608L948.458 271.955H1081.82L1084.78 289.608H945.486ZM948.76 270.162L951.442 254.233H1078.85L1081.52 270.162H948.76ZM951.743 252.44L954.174 237.999H1076.12L1078.55 252.44H951.743ZM954.476 236.206L956.687 223.074H1073.62L1075.82 236.206H954.476ZM956.989 221.281L959.003 209.318H1071.31L1073.32 221.281H956.989ZM959.304 207.525L961.146 196.585H1069.18L1071.01 207.525H959.304ZM961.448 194.792L963.134 184.777H1067.2L1068.88 194.792H961.448ZM964.983 173.792L963.436 182.984H1066.9L1065.36 173.792H964.983ZM1152.99 685.47L1166.79 767.729H1466.63L1425.23 685.47H1152.99ZM1141.3 615.782L1152.69 683.677H1424.33L1390.17 615.782H1141.3ZM1131.45 557.052L1141 613.989H1389.27L1360.62 557.052H1131.45ZM1123.04 506.894L1131.15 555.259H1359.71L1335.38 506.894H1123.04ZM1115.77 463.552L1122.74 505.101H1334.47L1313.57 463.552H1115.77ZM1109.43 425.727L1115.47 461.759H1312.66L1294.53 425.727H1109.43ZM1103.84 392.428L1109.13 423.934H1293.63L1277.78 392.428H1103.84ZM1098.89 362.895L1103.54 390.635H1276.88L1262.92 362.895H1098.89ZM1094.47 336.516L1098.59 361.102H1262.02L1249.64 336.516H1094.47ZM1090.49 312.814L1094.16 334.723H1248.74L1237.72 312.814H1090.49ZM1086.9 291.401L1090.19 311.021H1236.82L1226.94 291.401H1086.9ZM1083.64 271.955L1086.6 289.608H1226.04L1217.16 271.955H1083.64ZM1080.67 254.233L1083.34 270.162H1216.26L1208.24 254.233H1080.67ZM1077.94 237.999L1080.36 252.44H1207.34L1200.07 237.999H1077.94ZM1075.44 223.074L1077.64 236.206H1199.17L1192.56 223.074H1075.44ZM1073.13 209.318L1075.14 221.281H1191.66L1185.64 209.318H1073.13ZM1071 196.585L1072.83 207.525H1184.74L1179.23 196.585H1071ZM1069.02 184.777L1070.7 194.792H1178.33L1173.29 184.777H1069.02ZM1068.72 182.984L1067.17 173.792H1167.76L1172.39 182.984H1068.72ZM1468.63 767.729L1427.24 685.47H1699.16L1768.15 767.729H1468.63ZM1426.34 683.677L1392.18 615.782H1640.71L1697.65 683.677H1426.34ZM1391.27 613.989L1362.62 557.052H1591.46L1639.21 613.989H1391.27ZM1361.72 555.259L1337.38 506.894H1549.39L1589.95 555.259H1361.72ZM1336.48 505.101L1315.57 463.552H1513.04L1547.89 505.101H1336.48ZM1314.67 461.759L1296.54 425.727H1481.32L1511.53 461.759H1314.67ZM1295.64 423.934L1279.79 392.428H1453.39L1479.81 423.934H1295.64ZM1278.88 390.635L1264.92 362.895H1428.62L1451.88 390.635H1278.88ZM1264.02 361.102L1251.65 336.516H1406.5L1427.12 361.102H1264.02ZM1250.75 334.723L1239.72 312.814H1386.62L1404.99 334.723H1250.75ZM1238.82 311.021L1228.95 291.401H1368.66L1385.11 311.021H1238.82ZM1228.05 289.608L1219.16 271.955H1352.35L1367.16 289.608H1228.05ZM1218.26 270.162L1210.25 254.233H1337.49L1350.85 270.162H1218.26ZM1209.34 252.44L1202.08 237.999H1323.87L1335.98 252.44H1209.34ZM1201.18 236.206L1194.57 223.074H1311.35L1322.37 236.206H1201.18ZM1193.67 221.281L1187.65 209.318H1299.82L1309.85 221.281H1193.67ZM1186.74 207.525L1181.24 196.585H1289.14L1298.31 207.525H1186.74ZM1180.34 194.792L1175.3 184.777H1279.23L1287.63 194.792H1180.34ZM1169.77 173.792L1174.4 182.984H1277.73L1270.02 173.792H1169.77ZM1701.5 685.47L1770.49 767.729H2069.6L1973.02 685.47H1701.5ZM1643.05 615.782L1699.99 683.677H1970.92L1891.2 615.782H1643.05ZM1593.8 557.052L1641.55 613.989H1889.09L1822.24 557.052H1593.8ZM1551.73 506.894L1592.29 555.259H1820.14L1763.35 506.894H1551.73ZM1515.38 463.552L1550.23 505.101H1761.25L1712.46 463.552H1515.38ZM1483.66 425.727L1513.88 461.759H1710.36L1668.05 425.727H1483.66ZM1455.73 392.428L1482.15 423.934H1665.95L1628.95 392.428H1455.73ZM1430.96 362.895L1454.22 390.635H1626.85L1594.28 362.895H1430.96ZM1408.84 336.516L1429.46 361.102H1592.17L1563.31 336.516H1408.84ZM1388.96 312.814L1407.33 334.723H1561.2L1535.48 312.814H1388.96ZM1371 291.401L1387.45 311.021H1533.37L1510.34 291.401H1371ZM1354.69 271.955L1369.5 289.608H1508.23L1487.5 271.955H1354.69ZM1339.83 254.233L1353.19 270.162H1485.4L1466.7 254.233H1339.83ZM1326.21 237.999L1338.32 252.44H1464.59L1447.64 237.999H1326.21ZM1313.69 223.074L1324.71 236.206H1445.53L1430.11 223.074H1313.69ZM1302.16 209.318L1312.19 221.281H1428.01L1413.96 209.318H1302.16ZM1291.48 196.585L1300.65 207.525H1411.86L1399.01 196.585H1291.48ZM1281.57 184.777L1289.97 194.792H1396.91L1385.15 184.777H1281.57ZM1280.07 182.984L1272.36 173.792H1372.25L1383.04 182.984H1280.07ZM1973.68 683.677L1893.96 615.782H2141.76L2244.26 683.677H1973.68ZM1891.86 613.989L1825.01 557.052H2053.09L2139.05 613.989H1891.86ZM1822.9 555.259L1766.12 506.894H1977.37L2050.39 555.259H1822.9ZM1764.01 505.101L1715.23 463.552H1911.93L1974.66 505.101H1764.01ZM1713.12 461.759L1670.82 425.727H1854.83L1909.23 461.759H1713.12ZM1668.71 423.934L1631.72 392.428H1804.56L1852.12 423.934H1668.71ZM1629.61 390.635L1597.04 362.895H1759.97L1801.85 390.635H1629.61ZM1594.94 361.102L1566.07 336.516H1720.14L1757.26 361.102H1594.94ZM1563.97 334.723L1538.24 312.814H1684.36L1717.44 334.723H1563.97ZM1536.14 311.021L1513.1 291.401H1652.03L1681.65 311.021H1536.14ZM1511 289.608L1490.27 271.955H1622.67L1649.33 289.608H1511ZM1488.16 270.162L1469.46 254.233H1595.92L1619.97 270.162H1488.16ZM1467.36 252.44L1450.4 237.999H1571.41L1593.21 252.44H1467.36ZM1448.3 236.206L1432.88 223.074H1548.88L1568.7 236.206H1448.3ZM1430.77 221.281L1416.73 209.318H1528.11L1546.17 221.281H1430.77ZM1414.62 207.525L1401.78 196.585H1508.89L1525.4 207.525H1414.62ZM1399.67 194.792L1387.91 184.777H1491.06L1506.18 194.792H1399.67ZM1375.02 173.792L1385.81 182.984H1488.35L1474.47 173.792H1375.02ZM1491.6 182.984L1477.73 173.792H1576.66L1593.63 182.984H1491.6ZM1509.43 194.792L1494.31 184.777H1596.93L1615.41 194.792H1509.43ZM1618.72 196.585H1512.14L1528.65 207.525H1638.91L1618.72 196.585ZM1642.22 209.318H1531.36L1549.42 221.281H1664.29L1642.22 209.318ZM1667.6 223.074H1552.13L1571.95 236.206H1691.83L1667.6 223.074ZM1695.14 237.999H1574.66L1596.46 252.44H1721.78L1695.14 237.999ZM1725.09 254.233H1599.17L1623.22 270.162H1754.49L1725.09 254.233ZM1757.8 271.955H1625.93L1652.58 289.608H1790.37L1757.8 271.955ZM1793.68 291.401H1655.28L1684.91 311.021H1829.88L1793.68 291.401ZM1833.19 312.814H1687.61L1720.69 334.723H1873.61L1833.19 312.814ZM1876.92 336.516H1723.4L1760.51 361.102H1922.29L1876.92 336.516ZM1925.6 362.895H1763.22L1805.1 390.635H1976.78L1925.6 362.895ZM1980.09 392.428H1807.81L1855.37 423.934H2038.23L1980.09 392.428ZM2041.54 425.727H1858.08L1912.48 461.759H2108.02L2041.54 425.727ZM2111.33 463.552H1915.18L1977.91 505.101H2188L2111.33 463.552ZM2042 423.934L1983.86 392.428H2155.62L2224.33 423.934H2042ZM1980.55 390.635L1929.36 362.895H2091.22L2151.71 390.635H1980.55ZM1926.06 361.102L1880.69 336.516H2033.7L2087.31 361.102H1926.06ZM1877.38 334.723L1836.95 312.814H1982.01L2029.79 334.723H1877.38ZM1833.65 311.021L1797.44 291.401H1935.32L1978.1 311.021H1833.65ZM1794.13 289.608L1761.56 271.955H1892.91L1931.41 289.608H1794.13ZM1758.25 270.162L1728.86 254.233H1854.26L1889 270.162H1758.25ZM1725.55 252.44L1698.9 237.999H1818.86L1850.35 252.44H1725.55ZM1695.59 236.206L1671.36 223.074H1786.31L1814.95 236.206H1695.59ZM1668.05 221.281L1645.98 209.318H1756.31L1782.4 221.281H1668.05ZM1642.67 207.525L1622.48 196.585H1728.55L1752.41 207.525H1642.67ZM1619.18 194.792L1600.7 184.777H1702.8L1724.64 194.792H1619.18ZM1580.43 173.792L1597.39 182.984H1698.89L1678.85 173.792H1580.43ZM1703.18 182.984L1683.14 173.792H1781.02L1804.15 182.984H1703.18ZM1728.93 194.792L1707.09 184.777H1808.66L1833.86 194.792H1728.93ZM1838.37 196.585H1732.84L1756.7 207.525H1865.9L1838.37 196.585ZM1870.41 209.318H1760.61L1786.7 221.281H1900.51L1870.41 209.318ZM1905.02 223.074H1790.61L1819.24 236.206H1938.06L1905.02 223.074ZM1942.57 237.999H1823.16L1854.65 252.44H1978.91L1942.57 237.999ZM1983.42 254.233H1858.56L1893.3 270.162H2023.5L1983.42 254.233ZM2028.01 271.955H1897.21L1935.7 289.608H2072.43L2028.01 271.955ZM2076.94 291.401H1939.61L1982.4 311.021H2126.31L2076.94 291.401ZM2130.82 312.814H1986.31L2034.09 334.723H2185.95L2130.82 312.814ZM2190.46 336.516H2038L2091.61 361.102H2252.32L2190.46 336.516ZM2077.29 289.608L2032.87 271.955H2163.11L2213.45 289.608H2077.29ZM2028.36 270.162L1988.28 254.233H2112.57L2158 270.162H2028.36ZM1983.76 252.44L1947.43 237.999H2066.28L2107.46 252.44H1983.76ZM1942.91 236.206L1909.87 223.074H2023.72L2061.16 236.206H1942.91ZM1905.36 221.281L1875.26 209.318H1984.49L2018.6 221.281H1905.36ZM1870.74 207.525L1843.22 196.585H1948.18L1979.38 207.525H1870.74ZM1838.71 194.792L1813.51 184.777H1914.51L1943.07 194.792H1838.71ZM1785.86 173.792L1808.99 182.984H1909.4L1883.18 173.792H1785.86ZM1914.81 182.984L1888.6 173.792H1985.34L2014.64 182.984H1914.81ZM1948.48 194.792L1919.92 184.777H2020.35L2052.27 194.792H1948.48ZM2057.99 196.585H1953.6L1984.79 207.525H2092.86L2057.99 196.585ZM2098.57 209.318H1989.9L2024.02 221.281H2136.7L2098.57 209.318ZM2142.42 223.074H2029.13L2066.58 236.206H2184.27L2142.42 223.074ZM2189.98 237.999H2071.7L2112.88 252.44H2236.01L2189.98 237.999Z" fill="url(#paint0_linear_968_29942)"/>
<path fill-rule="evenodd" clip-rule="evenodd" d="M2190.93 -525.877H1857.15L1771.99 -424.333H2071.71L2190.93 -525.877ZM1520.63 -525.877H1854.81L1769.65 -424.333H1469.54L1520.63 -525.877ZM1518.62 -525.877H1184.12L1167.09 -424.333H1467.53L1518.62 -525.877ZM847.604 -525.877H1182.3L1165.27 -424.333H864.698L847.604 -525.877ZM845.786 -525.877H511.537L562.633 -424.333H862.88L845.786 -525.877ZM175.059 -525.877H509.53L560.626 -424.333H260.295L175.059 -525.877ZM172.718 -525.877H0V-527.67H2260V-525.877H2193.7L2074.47 -424.333H2260V-422.54H2072.37L1975.79 -340.282H2246.97L2260 -348.913V-346.759L2250.22 -340.282H2260V-338.489H2247.51L2145.01 -270.594H2260V-268.801H2142.3L2056.34 -211.864H2260V-210.071H2053.64L1980.62 -161.706H2191.3L2260 -198.934V-196.89L2195.08 -161.706H2260V-159.913H2191.77L2115.1 -118.364H2260V-116.571H2111.79L2045.3 -80.5388H2228.24L2260 -95.1022V-93.1287L2232.54 -80.5388H2260V-78.7458H2228.63L2159.93 -47.2397H2260V-45.4467H2156.02L2095.52 -17.7068H2256.84L2260 -18.9644V-17.0295L2260 -15.9138H2257.19L2195.33 8.67236H2260V10.4653H2190.81L2135.68 32.3744H2260V34.1674H2131.17L2081.8 53.7872H2218.56L2260 39.2559V41.1584L2223.99 53.7872H2260V55.5801H2218.87L2168.53 73.2332H2260V75.0262H2163.42L2117.99 90.9559H2241.73L2260 85.2228V87.0997L1985.75 173.15L44.5539 173.189L0 159.213V157.329L9.82143 160.411H110.249L81.6865 150.396H0V148.603H76.5732L45.3752 137.664H0V135.871H40.2619L6.14295 123.907H0V122.114H1.0296L0 121.753V119.851L6.45514 122.114H120.293L87.2497 108.983H0V107.19H82.7378L46.3992 92.7488H0V90.9559H41.8875L1.80279 75.0262H0V74.3098V73.2332V72.3748L2.15988 73.2332H132.959L94.4618 55.5801H0V53.7872H90.5518L47.7655 34.1674H0V32.3744H43.8555L0 12.2643V10.4653V10.2907V8.67236H149.48L104.112 -15.9138H0V-17.7068H100.804L49.6164 -45.4467H0V-47.2397H46.3079L0 -72.3352V-74.3798L50.0787 -47.2397H222.367L174.801 -78.7458H0V-80.5388H172.094L117.695 -116.571H0V-118.364H114.988L52.2609 -159.913H0V-161.706H49.554L0 -194.529V-196.683L52.8056 -161.706H263.995L207.202 -210.071H0V-211.864H205.097L138.239 -268.801H0V-270.594H136.134L56.4093 -338.489H0V-340.282H54.3039L0 -386.528V-388.888L57.0753 -340.282H328.507L259.459 -422.54H0V-424.333H257.954L172.718 -525.877ZM11.568 123.907L45.6838 135.871H154.91L124.805 123.907H11.568ZM50.7966 137.664L81.9917 148.603H186.949L159.421 137.664H50.7966ZM87.1045 150.396L115.664 160.411H216.662L191.46 150.396H87.1045ZM115.362 162.204H15.5349L44.8247 171.396H141.576L115.362 162.204ZM146.988 171.396L120.777 162.204H221.174L244.303 171.396H146.988ZM226.027 162.204L249.155 171.396H347.029L326.985 162.204H226.027ZM196.316 150.396L221.516 160.411H323.075L301.234 150.396H196.316ZM297.324 148.603H191.804L164.279 137.664H273.467L297.324 148.603ZM269.557 135.871H159.767L129.665 123.907H243.467L269.557 135.871ZM239.557 122.114H125.153L92.1122 108.983H210.921L239.557 122.114ZM207.011 107.19H87.6006L51.2646 92.7488H175.518L207.011 107.19ZM171.608 90.9559H46.7532L6.6713 75.0262H136.869L171.608 90.9559ZM0.380797 10.4653L48.1578 32.3744H193.216L152.789 10.4653H0.380797ZM52.0678 34.1674L94.8527 53.7872H232.729L196.525 34.1674H52.0678ZM98.7626 55.5801L137.259 73.2332H268.612L236.037 55.5801H98.7626ZM141.169 75.0262L175.906 90.9559H301.315L271.92 75.0262H141.169ZM179.816 92.7488L211.308 107.19H331.27L304.623 92.7488H179.816ZM215.218 108.983L243.854 122.114H358.81L334.579 108.983H215.218ZM247.763 123.907L273.853 135.871H384.194L362.118 123.907H247.763ZM277.762 137.664L301.618 148.603H407.689L387.503 137.664H277.762ZM305.528 150.396L327.368 160.411H429.478L410.997 150.396H305.528ZM351.322 171.396L331.278 162.204H432.787L449.747 171.396H351.322ZM436.543 162.204L453.503 171.396H552.447L538.571 162.204H436.543ZM414.754 150.396L433.234 160.411H535.864L520.743 150.396H414.754ZM518.036 148.603H411.446L391.261 137.664H501.521L518.036 148.603ZM498.814 135.871H387.952L365.877 123.907H480.752L498.814 135.871ZM478.045 122.114H362.569L338.339 108.983H458.22L478.045 122.114ZM455.513 107.19H335.03L308.384 92.7488H433.711L455.513 107.19ZM431.004 90.9559H305.076L275.682 75.0262H406.955L431.004 90.9559ZM404.248 73.2332H272.374L239.801 55.5801H377.597L404.248 73.2332ZM374.89 53.7872H236.492L200.29 34.1674H345.269L374.89 53.7872ZM342.562 32.3744H196.982L156.555 10.4653H309.485L342.562 32.3744ZM306.779 8.67236H153.247L107.881 -15.9138H269.66L306.779 8.67236ZM266.953 -17.7068H104.572L53.3871 -45.4467H225.073L266.953 -17.7068ZM55.5125 -159.913L118.239 -118.364H314.888L266.1 -159.913H55.5125ZM120.946 -116.571L175.344 -80.5388H359.304L316.993 -116.571H120.946ZM178.051 -78.7458L225.616 -47.2397H398.405L361.409 -78.7458H178.051ZM228.323 -45.4467L270.202 -17.7068H433.083L400.51 -45.4467H228.323ZM272.909 -15.9138L310.027 8.67236H464.059L435.189 -15.9138H272.909ZM312.734 10.4653L345.81 32.3744H491.89L466.164 10.4653H312.734ZM348.517 34.1674L378.138 53.7872H517.034L493.996 34.1674H348.517ZM380.844 55.5801L407.496 73.2332H539.868L519.139 55.5801H380.844ZM410.202 75.0262L434.252 90.9559H560.679L541.974 75.0262H410.202ZM436.958 92.7488L458.76 107.19H579.741L562.784 92.7488H436.958ZM461.467 108.983L481.292 122.114H597.266L581.847 108.983H461.467ZM483.999 123.907L502.06 135.871H613.42L599.372 123.907H483.999ZM504.767 137.664L521.283 148.603H628.371L615.525 137.664H504.767ZM523.99 150.396L539.11 160.411H642.236L630.476 150.396H523.99ZM555.693 171.396L541.817 162.204H644.342L655.135 171.396H555.693ZM647.108 162.204L657.901 171.396H758.012L750.296 162.204H647.108ZM633.243 150.396L645.003 160.411H748.791L740.385 150.396H633.243ZM738.879 148.603H631.137L618.292 137.664H729.697L738.879 148.603ZM728.192 135.871H616.187L602.138 123.907H718.15L728.192 135.871ZM716.645 122.114H600.033L584.614 108.983H705.622L716.645 122.114ZM704.117 107.19H582.508L565.551 92.7488H691.995L704.117 107.19ZM690.49 90.9559H563.446L544.741 75.0262H677.119L690.49 90.9559ZM675.614 73.2332H542.636L521.907 55.5801H660.795L675.614 73.2332ZM659.29 53.7872H519.802L496.763 34.1674H642.821L659.29 53.7872ZM641.316 32.3744H494.658L468.932 10.4653H622.926L641.316 32.3744ZM621.421 8.67236H466.827L437.957 -15.9138H600.783L621.421 8.67236ZM599.278 -17.7068H435.851L403.279 -45.4467H575.993L599.278 -17.7068ZM574.488 -47.2397H401.173L364.178 -78.7458H548.042L574.488 -47.2397ZM546.537 -80.5388H362.072L319.763 -116.571H516.291L546.537 -80.5388ZM514.786 -118.364H317.657L268.87 -159.913H479.91L514.786 -118.364ZM478.405 -161.706H266.764L209.973 -210.071H437.807L478.405 -161.706ZM436.302 -211.864H207.867L141.01 -268.801H388.508L436.302 -211.864ZM387.003 -270.594H138.904L59.1807 -338.489H330.012L387.003 -270.594ZM261.8 -422.54L330.848 -340.282H602.92L561.528 -422.54H261.8ZM332.353 -338.489L389.344 -270.594H637.986L603.822 -338.489H332.353ZM390.849 -268.801L438.643 -211.864H667.539L638.888 -268.801H390.849ZM440.148 -210.071L480.746 -161.706H692.778L668.441 -210.071H440.148ZM482.251 -159.913L517.127 -118.364H714.587L693.68 -159.913H482.251ZM518.632 -116.571L548.877 -80.5388H733.62L715.489 -116.571H518.632ZM550.383 -78.7458L576.829 -47.2397H750.376L734.522 -78.7458H550.383ZM578.334 -45.4467L601.619 -17.7068H765.237L751.278 -45.4467H578.334ZM603.124 -15.9138L623.762 8.67236H778.51L766.139 -15.9138H603.124ZM625.267 10.4653L643.657 32.3744H790.437L779.412 10.4653H625.267ZM645.162 34.1674L661.631 53.7872H801.212L791.339 34.1674H645.162ZM663.136 55.5801L677.954 73.2332H810.997L802.114 55.5801H663.136ZM679.459 75.0262L692.831 90.9559H819.915L811.899 75.0262H679.459ZM694.336 92.7488L706.458 107.19H828.083L820.817 92.7488H694.336ZM707.963 108.983L718.985 122.114H835.593L828.986 108.983H707.963ZM720.49 123.907L730.533 135.871H842.515L836.495 123.907H720.49ZM732.038 137.664L741.22 148.603H848.922L843.418 137.664H732.038ZM742.725 150.396L751.132 160.411H854.864L849.824 150.396H742.725ZM760.353 171.396L752.637 162.204H855.766L860.391 171.396H760.353ZM604.927 -340.282L563.535 -422.54H863.182L877.029 -340.282H604.927ZM639.993 -270.594L605.829 -338.489H877.331L888.76 -270.594H639.993ZM669.546 -211.864L640.896 -268.801H889.062L898.647 -211.864H669.546ZM694.785 -161.706L670.448 -210.071H898.949L907.09 -161.706H694.785ZM716.594 -118.364L695.687 -159.913H907.392L914.387 -118.364H716.594ZM735.627 -80.5388L717.496 -116.571H914.688L920.754 -80.5388H735.627ZM752.383 -47.2397L736.53 -78.7458H921.056L926.36 -47.2397H752.383ZM767.244 -17.7068L753.285 -45.4467H926.661L931.331 -17.7068H767.244ZM780.518 8.67236L768.146 -15.9138H931.633L935.772 8.67236H780.518ZM792.444 32.3744L781.42 10.4653H936.074L939.762 32.3744H792.444ZM803.219 53.7872L793.346 34.1674H940.064L943.366 53.7872H803.219ZM813.004 73.2332L804.121 55.5801H943.668L946.64 73.2332H813.004ZM821.922 90.9559L813.906 75.0262H946.942L949.623 90.9559H821.922ZM830.091 107.19L822.824 92.7488H949.925L952.356 107.19H830.091ZM837.6 122.114L830.993 108.983H952.658L954.869 122.114H837.6ZM844.523 135.871L838.503 123.907H955.17L957.184 135.871H844.523ZM850.929 148.603L845.425 137.664H957.486L959.328 148.603H850.929ZM856.871 160.411L851.832 150.396H959.63L961.316 160.411H856.871ZM857.773 162.204L862.398 171.396H963.165L961.617 162.204H857.773ZM865 -422.54L878.847 -340.282H1151.17L1164.97 -422.54H865ZM879.149 -338.489L890.578 -270.594H1139.48L1150.87 -338.489H879.149ZM890.88 -268.801L900.465 -211.864H1129.63L1139.18 -268.801H890.88ZM900.767 -210.071L908.909 -161.706H1121.22L1129.33 -210.071H900.767ZM909.21 -159.913L916.205 -118.364H1113.95L1120.92 -159.913H909.21ZM916.507 -116.571L922.572 -80.5388H1107.61L1113.65 -116.571H916.507ZM922.874 -78.7458L928.178 -47.2397H1102.02L1107.31 -78.7458H922.874ZM928.48 -45.4467L933.149 -17.7068H1097.07L1101.72 -45.4467H928.48ZM933.451 -15.9138L937.59 8.67236H1092.65L1096.77 -15.9138H933.451ZM937.892 10.4653L941.58 32.3744H1088.67L1092.35 10.4653H937.892ZM941.882 34.1674L945.185 53.7872H1085.08L1088.37 34.1674H941.882ZM945.486 55.5801L948.458 73.2332H1081.82L1084.78 55.5801H945.486ZM948.76 75.0262L951.442 90.9559H1078.85L1081.52 75.0262H948.76ZM951.743 92.7488L954.174 107.19H1076.12L1078.55 92.7488H951.743ZM954.476 108.983L956.687 122.114H1073.62L1075.82 108.983H954.476ZM956.989 123.907L959.003 135.871H1071.31L1073.32 123.907H956.989ZM959.304 137.664L961.146 148.603H1069.18L1071.01 137.664H959.304ZM961.448 150.396L963.134 160.411H1067.2L1068.88 150.396H961.448ZM964.983 171.396L963.436 162.204H1066.9L1065.36 171.396H964.983ZM1152.99 -340.282L1166.79 -422.54H1466.63L1425.23 -340.282H1152.99ZM1141.3 -270.594L1152.69 -338.489H1424.33L1390.17 -270.594H1141.3ZM1131.45 -211.864L1141 -268.801H1389.27L1360.62 -211.864H1131.45ZM1123.04 -161.706L1131.15 -210.071H1359.71L1335.38 -161.706H1123.04ZM1115.77 -118.364L1122.74 -159.913H1334.47L1313.57 -118.364H1115.77ZM1109.43 -80.5388L1115.47 -116.571H1312.67L1294.53 -80.5388H1109.43ZM1103.84 -47.2397L1109.13 -78.7458H1293.63L1277.78 -47.2397H1103.84ZM1098.89 -17.7068L1103.54 -45.4467H1276.88L1262.92 -17.7068H1098.89ZM1094.47 8.67236L1098.59 -15.9138H1262.02L1249.64 8.67236H1094.47ZM1090.49 32.3744L1094.16 10.4653H1248.74L1237.72 32.3744H1090.49ZM1086.9 53.7872L1090.19 34.1674H1236.82L1226.94 53.7872H1086.9ZM1083.64 73.2332L1086.6 55.5801H1226.04L1217.16 73.2332H1083.64ZM1080.67 90.9559L1083.34 75.0262H1216.26L1208.24 90.9559H1080.67ZM1077.94 107.19L1080.36 92.7488H1207.34L1200.07 107.19H1077.94ZM1075.44 122.114L1077.64 108.983H1199.17L1192.56 122.114H1075.44ZM1073.13 135.871L1075.14 123.907H1191.66L1185.64 135.871H1073.13ZM1071 148.603L1072.83 137.664H1184.74L1179.23 148.603H1071ZM1069.02 160.411L1070.7 150.396H1178.33L1173.29 160.411H1069.02ZM1068.72 162.204L1067.17 171.396H1167.76L1172.39 162.204H1068.72ZM1468.63 -422.54L1427.24 -340.282H1699.16L1768.15 -422.54H1468.63ZM1426.34 -338.489L1392.18 -270.594H1640.71L1697.65 -338.489H1426.34ZM1391.27 -268.801L1362.62 -211.864H1591.46L1639.21 -268.801H1391.27ZM1361.72 -210.071L1337.38 -161.706H1549.39L1589.95 -210.071H1361.72ZM1336.48 -159.913L1315.57 -118.364H1513.04L1547.89 -159.913H1336.48ZM1314.67 -116.571L1296.54 -80.5388H1481.32L1511.54 -116.571H1314.67ZM1295.64 -78.7458L1279.79 -47.2397H1453.39L1479.81 -78.7458H1295.64ZM1278.88 -45.4467L1264.92 -17.7068H1428.62L1451.88 -45.4467H1278.88ZM1264.02 -15.9138L1251.65 8.67236H1406.5L1427.12 -15.9138H1264.02ZM1250.75 10.4653L1239.72 32.3744H1386.62L1404.99 10.4653H1250.75ZM1238.82 34.1674L1228.95 53.7872H1368.66L1385.11 34.1674H1238.82ZM1228.05 55.5801L1219.16 73.2332H1352.35L1367.16 55.5801H1228.05ZM1218.26 75.0262L1210.25 90.9559H1337.49L1350.85 75.0262H1218.26ZM1209.34 92.7488L1202.08 107.19H1323.87L1335.98 92.7488H1209.34ZM1201.18 108.983L1194.57 122.114H1311.35L1322.37 108.983H1201.18ZM1193.67 123.907L1187.65 135.871H1299.82L1309.85 123.907H1193.67ZM1186.74 137.664L1181.24 148.603H1289.14L1298.31 137.664H1186.74ZM1180.34 150.396L1175.3 160.411H1279.23L1287.63 150.396H1180.34ZM1169.77 171.396L1174.4 162.204H1277.73L1270.02 171.396H1169.77ZM1701.5 -340.282L1770.49 -422.54H2069.6L1973.02 -340.282H1701.5ZM1643.05 -270.594L1699.99 -338.489H1970.92L1891.2 -270.594H1643.05ZM1593.8 -211.864L1641.55 -268.801H1889.09L1822.24 -211.864H1593.8ZM1551.73 -161.706L1592.29 -210.071H1820.14L1763.35 -161.706H1551.73ZM1515.38 -118.364L1550.23 -159.913H1761.25L1712.46 -118.364H1515.38ZM1483.66 -80.5388L1513.88 -116.571H1710.36L1668.05 -80.5388H1483.66ZM1455.73 -47.2397L1482.15 -78.7458H1665.95L1628.95 -47.2397H1455.73ZM1430.96 -17.7068L1454.22 -45.4467H1626.85L1594.28 -17.7068H1430.96ZM1408.84 8.67236L1429.46 -15.9138H1592.17L1563.31 8.67236H1408.84ZM1388.96 32.3744L1407.33 10.4653H1561.2L1535.48 32.3744H1388.96ZM1371 53.7872L1387.45 34.1674H1533.37L1510.34 53.7872H1371ZM1354.69 73.2332L1369.5 55.5801H1508.23L1487.5 73.2332H1354.69ZM1339.83 90.9559L1353.19 75.0262H1485.4L1466.7 90.9559H1339.83ZM1326.21 107.19L1338.32 92.7488H1464.59L1447.64 107.19H1326.21ZM1313.69 122.114L1324.71 108.983H1445.53L1430.11 122.114H1313.69ZM1302.16 135.871L1312.19 123.907H1428.01L1413.96 135.871H1302.16ZM1291.48 148.603L1300.65 137.664H1411.86L1399.01 148.603H1291.48ZM1281.57 160.411L1289.97 150.396H1396.91L1385.15 160.411H1281.57ZM1280.07 162.204L1272.36 171.396H1372.25L1383.04 162.204H1280.07ZM1973.68 -338.489L1893.96 -270.594H2141.76L2244.26 -338.489H1973.68ZM1891.86 -268.801L1825.01 -211.864H2053.09L2139.05 -268.801H1891.86ZM1822.9 -210.071L1766.12 -161.706H1977.37L2050.39 -210.071H1822.9ZM1764.01 -159.913L1715.23 -118.364H1911.93L1974.66 -159.913H1764.01ZM1713.12 -116.571L1670.82 -80.5388H1854.83L1909.23 -116.571H1713.12ZM1668.71 -78.7458L1631.72 -47.2397H1804.56L1852.12 -78.7458H1668.71ZM1629.61 -45.4467L1597.04 -17.7068H1759.97L1801.85 -45.4467H1629.61ZM1594.94 -15.9138L1566.07 8.67236H1720.14L1757.26 -15.9138H1594.94ZM1563.97 10.4653L1538.24 32.3744H1684.36L1717.44 10.4653H1563.97ZM1536.14 34.1674L1513.1 53.7872H1652.03L1681.65 34.1674H1536.14ZM1511 55.5801L1490.27 73.2332H1622.67L1649.33 55.5801H1511ZM1488.16 75.0262L1469.46 90.9559H1595.92L1619.97 75.0262H1488.16ZM1467.36 92.7488L1450.4 107.19H1571.41L1593.21 92.7488H1467.36ZM1448.3 108.983L1432.88 122.114H1548.88L1568.7 108.983H1448.3ZM1430.77 123.907L1416.73 135.871H1528.11L1546.17 123.907H1430.77ZM1414.62 137.664L1401.78 148.603H1508.89L1525.4 137.664H1414.62ZM1399.67 150.396L1387.91 160.411H1491.06L1506.18 150.396H1399.67ZM1375.02 171.396L1385.81 162.204H1488.35L1474.47 171.396H1375.02ZM1491.6 162.204L1477.73 171.396H1576.66L1593.63 162.204H1491.6ZM1509.43 150.396L1494.31 160.411H1596.93L1615.41 150.396H1509.43ZM1618.72 148.603H1512.14L1528.65 137.664H1638.91L1618.72 148.603ZM1642.22 135.871H1531.36L1549.42 123.907H1664.29L1642.22 135.871ZM1667.6 122.114H1552.13L1571.95 108.983H1691.83L1667.6 122.114ZM1695.14 107.19H1574.66L1596.46 92.7488H1721.78L1695.14 107.19ZM1725.09 90.9559H1599.17L1623.22 75.0262H1754.49L1725.09 90.9559ZM1757.8 73.2332H1625.93L1652.58 55.5801H1790.37L1757.8 73.2332ZM1793.68 53.7872H1655.28L1684.91 34.1674H1829.88L1793.68 53.7872ZM1833.19 32.3744H1687.61L1720.69 10.4653H1873.61L1833.19 32.3744ZM1876.92 8.67236H1723.4L1760.51 -15.9138H1922.29L1876.92 8.67236ZM1925.6 -17.7068H1763.22L1805.1 -45.4467H1976.78L1925.6 -17.7068ZM1980.09 -47.2397H1807.81L1855.37 -78.7458H2038.23L1980.09 -47.2397ZM2041.54 -80.5388H1858.08L1912.48 -116.571H2108.02L2041.54 -80.5388ZM2111.33 -118.364H1915.19L1977.91 -159.913H2188L2111.33 -118.364ZM2042 -78.7458L1983.86 -47.2397H2155.62L2224.33 -78.7458H2042ZM1980.55 -45.4467L1929.36 -17.7068H2091.22L2151.71 -45.4467H1980.55ZM1926.06 -15.9138L1880.69 8.67236H2033.7L2087.31 -15.9138H1926.06ZM1877.38 10.4653L1836.95 32.3744H1982.01L2029.79 10.4653H1877.38ZM1833.65 34.1674L1797.44 53.7872H1935.32L1978.1 34.1674H1833.65ZM1794.13 55.5801L1761.56 73.2332H1892.91L1931.41 55.5801H1794.13ZM1758.25 75.0262L1728.86 90.9559H1854.26L1889 75.0262H1758.25ZM1725.55 92.7488L1698.9 107.19H1818.86L1850.35 92.7488H1725.55ZM1695.59 108.983L1671.36 122.114H1786.31L1814.95 108.983H1695.59ZM1668.05 123.907L1645.98 135.871H1756.31L1782.4 123.907H1668.05ZM1642.67 137.664L1622.48 148.603H1728.55L1752.41 137.664H1642.67ZM1619.18 150.396L1600.7 160.411H1702.8L1724.64 150.396H1619.18ZM1580.43 171.396L1597.39 162.204H1698.89L1678.85 171.396H1580.43ZM1703.18 162.204L1683.14 171.396H1781.02L1804.15 162.204H1703.18ZM1728.93 150.396L1707.09 160.411H1808.66L1833.86 150.396H1728.93ZM1838.37 148.603H1732.84L1756.7 137.664H1865.9L1838.37 148.603ZM1870.41 135.871H1760.61L1786.7 123.907H1900.51L1870.41 135.871ZM1905.02 122.114H1790.61L1819.24 108.983H1938.06L1905.02 122.114ZM1942.57 107.19H1823.16L1854.65 92.7488H1978.91L1942.57 107.19ZM1983.42 90.9559H1858.56L1893.3 75.0262H2023.5L1983.42 90.9559ZM2028.01 73.2332H1897.21L1935.7 55.5801H2072.43L2028.01 73.2332ZM2076.94 53.7872H1939.61L1982.4 34.1674H2126.31L2076.94 53.7872ZM2130.82 32.3744H1986.31L2034.09 10.4653H2185.95L2130.82 32.3744ZM2190.46 8.67236H2038L2091.61 -15.9138H2252.32L2190.46 8.67236ZM2077.29 55.5801L2032.87 73.2332H2163.11L2213.45 55.5801H2077.29ZM2028.36 75.0262L1988.28 90.9559H2112.57L2158 75.0262H2028.36ZM1983.76 92.7488L1947.43 107.19H2066.28L2107.46 92.7488H1983.76ZM1942.91 108.983L1909.87 122.114H2023.72L2061.16 108.983H1942.91ZM1905.36 123.907L1875.26 135.871H1984.49L2018.6 123.907H1905.36ZM1870.74 137.664L1843.22 148.603H1948.18L1979.38 137.664H1870.74ZM1838.71 150.396L1813.51 160.411H1914.51L1943.07 150.396H1838.71ZM1785.86 171.396L1808.99 162.204H1909.4L1883.18 171.396H1785.86ZM1914.81 162.204L1888.6 171.396H1985.34L2014.64 162.204H1914.81ZM1948.48 150.396L1919.92 160.411H2020.35L2052.27 150.396H1948.48ZM2057.99 148.603H1953.6L1984.79 137.664H2092.86L2057.99 148.603ZM2098.57 135.871H1989.9L2024.02 123.907H2136.7L2098.57 135.871ZM2142.42 122.114H2029.13L2066.58 108.983H2184.27L2142.42 122.114ZM2189.98 107.19H2071.7L2112.88 92.7488H2236.01L2189.98 107.19Z" fill="url(#paint1_linear_968_29942)"/>
<g filter="url(#filter0_f_968_29942)">
<ellipse cx="960" cy="179" rx="1040" ry="84" fill="#020842"/>
</g>
</g>
<defs>
<filter id="filter0_f_968_29942" x="-200" y="-25" width="2320" height="408" filterUnits="userSpaceOnUse" color-interpolation-filters="sRGB">
<feFlood flood-opacity="0" result="BackgroundImageFix"/>
<feBlend mode="normal" in="SourceGraphic" in2="BackgroundImageFix" result="shape"/>
<feGaussianBlur stdDeviation="60" result="effect1_foregroundBlur_968_29942"/>
</filter>
<linearGradient id="paint0_linear_968_29942" x1="1115" y1="482.188" x2="1110.5" y2="206.188" gradientUnits="userSpaceOnUse">
<stop stop-color="#2B2B2B"/>
<stop offset="1" stop-color="#000A67"/>
</linearGradient>
<linearGradient id="paint1_linear_968_29942" x1="1115" y1="-137" x2="1110.5" y2="139" gradientUnits="userSpaceOnUse">
<stop stop-color="#2B2B2B"/>
<stop offset="1" stop-color="#000A67"/>
</linearGradient>
</defs>
</svg>
