<svg width="521" height="650" fill="none" xmlns="http://www.w3.org/2000/svg"><g opacity=".6"><mask id="a" style="mask-type:luminance" maskUnits="userSpaceOnUse" x="-126" y="0" width="647" height="650"><path d="M50.219 41.061c.875-.5 1.701-.949 2.502-1.348l2.302-1.35-1.377.725-.25.125-3.503 1.898a2.079 2.079 0 0 0-.475.25l-1.201.724 2.052-1.099m12.285-6.269 3.327-1.648-2.051.974-.776.35-3.703 1.848 3.203-1.524zm6.73-3.247 2.502-1.148 1.576-.675 5.005-2.198 1.25-.574c-1.4.55-2.852 1.224-3.452 1.473l.65-.274-1.701.774-.55.225-1.702.65h.15l-3.177 1.448-.326.15-3.753 1.848c1.101-.525 2.227-1.074 3.403-1.599m-183.85 219.794c.401-1.699.826-3.397 1.251-4.996l-1.426 4.746v.25a.762.762 0 0 0 0 .349v-.274m3.378-12.064 1.726-6.119c1.101-3.372 2.502-7.218 3.954-11.09l1.1-3.372 3.278-8.292a210.751 210.751 0 0 0-8.332 22.754l-2.502 8.342.751-2.223M14.79 63.241a367.22 367.22 0 0 1 12.91-8.792l.426-.3a381.884 381.884 0 0 0-13.386 9.117M31.078 52.2l.425-.3c.276-.2.276-.2.326-.2-.876.6-1.652 1.074-2.502 1.574l-1.301.9 3.052-1.974zm-.65.425a342.378 342.378 0 0 0-15.638 10.54c5.004-3.522 10.784-7.268 15.637-10.54zM-124.5 306.96v.35-.325m-.55 7.493v.25a.873.873 0 0 0 0-.25zm0-.399V312.706c0 .599 0 1.224-.125 1.748v-.399m.2-2.897c.012-.15.012-.3 0-.45v-1.574c0 .775 0 1.574-.175 2.348v-.324m2.702-22.829.375-3.347-.7 4.696c-.15.974-.225 1.973-.351 2.947v.25c.201-1.524.426-3.022.676-4.521m7.506-36.915a.872.872 0 0 1 0-.6c-.25 1.299-.575 2.648-.876 4.046l1.001-3.446M436.183 83.097c2.502 2.148 4.879 4.32 7.231 6.494-2.502-2.323-4.579-4.271-7.231-6.494zm-94.502-8.018c-.325-.45-.65-.874-.951-1.348-.3-.475-.925-1.574-1.426-2.348l2.077-.275 3.328 1.399 1.601 3.372h-2.952l-1.677-.725m5.405-4.395-.251-.15-.75-1.324c.55.275 1.076.65 1.651.924.346.142.707.243 1.076.3 1.005.313 1.977.723 2.902 1.224.451.25.976.474 1.452.699-.151.3 0 .724-.376.924a2.506 2.506 0 0 1-1.101 0 13.14 13.14 0 0 1-4.603-2.498m-58.498-47.055-3.053-.675v-1.523l3.028-.125h2.302l2.502 1.773 1.551 1.424h-3.478l-2.777-1.05M38.459 47.78c1.126-.7 2.252-1.299 3.378-1.948l.625-.2-2.076 1.249c-1.502.874-2.928 1.773-4.404 2.672h-.3c.45-.35.976-.624 1.426-.949.9-.624.9-.624 1.426-.949m15.413-8.941 3.352-1.499-1.876.974 2.002-1.024.225-.125-1.326.7.425-.2c2.752-1.424 5.605-2.848 7.13-3.622a217.164 217.164 0 0 1 5.906-2.822l-14.637 7.218-1.351.724m-3.904 2.098c.35-.15.65-.35.976-.524l.476-.25 2.001-1.074-3.553 1.898M151.001 5.77c.7-.175 2.502-.525 2.802-.525h-.45.25c2.927-.624 4.178-.824 4.178-.824-.913.148-1.816.357-2.702.624l.776-.15 1.851-.15.451-.124 1-.175a8.13 8.13 0 0 1-.95.2h.925c-3.102.6-4.128.874-5.004 1.049a25.063 25.063 0 0 1 6.055-1.05c-.15 0-2.302.55-4.078.875h-.2c-.321.082-.647.14-.976.175h.325c-.475 0-1.726.324-2.502.5h1.001l-1.977.474c-.725.125-1.426.324-2.151.424h-.726c-.951 0-1.801.775-2.802.5l1.826-.924c-.46.117-.928.2-1.401.25 1.251-.45 2.502-.575 3.853-.975l.676-.174m-.25.824h.425-.45m-21.568 5.245.851-.3c1.926-.524 3.853-.949 5.754-1.523h1.026c2.102-.625 4.254-1.15 6.38-1.699.326 0 3.353-.8 4.404-.974l-.625.225a12.292 12.292 0 0 0 1.601-.3l2.152-.55c2.326-.2 4.528-1.023 6.805-1.373-.775.225-1.576.4-2.352.574l-.85.225c-3.403.85-3.403.85-4.004 1.05.912-.102 1.81-.303 2.677-.6l.826-.225.901-.225.826-.2a8.84 8.84 0 0 1 2.001-.424c-.7.25-1.426.424-2.127.65h.451l1.401-.375c.625-.175 1.276-.375 1.927-.525-.402.155-.811.289-1.226.4h.9v.15c-3.603 1.024-7.306 1.698-10.884 2.947a27.585 27.585 0 0 1 4.604-1.174 63.535 63.535 0 0 1-6.23 1.723c.15 0 .15 0 2.277-.799-1.401 0-2.502.924-3.978.974h-.501a30.053 30.053 0 0 1 2.978-1.099l1.326-.4h-.15l-3.328.95h-.676l.926-.35-.775.175c-.726.225-1.477.474-2.227.65l-.676.224h1.501l-.3.2h.5c0 .225.001.225-.875.5l-1.877.624h-.4c-.876.2-.901.2-1.101.175-.2-.025.15-.175 1.001-.575a7.683 7.683 0 0 0-2.777 1.074 5.729 5.729 0 0 1 1.276-.15 11.57 11.57 0 0 1-3.929 1.349 37.264 37.264 0 0 0-6.48 1.973s5.73-2.498 6.43-2.722h-.175c1.301-.475 2.728-.95 4.129-1.399h-.301a22.912 22.912 0 0 1 5.23-1.673h-1.151c-6.381 1.848-6.38 1.848-11.284 3.496h-.401a11.041 11.041 0 0 1 1.551-.724c-1.203.273-2.382.64-3.527 1.099h-.501a7.749 7.749 0 0 1 1.827-.7h-.876.15m-250.704 272.02a328.038 328.038 0 0 1 7.031-33.469 12.87 12.87 0 0 1 5.979-2.497 171.542 171.542 0 0 1 19.391-3.172 31.162 31.162 0 0 0-.325 6.219v.499l.15.375h.2c.39.027.764.166 1.076.4h.275l.2.124.176.25.425.4.45-.525.376-.599c.45-.425.525-.425.6-.425a6.583 6.583 0 0 0 2.152-.899h.525v.625c-1.326 1.173-1.326 1.173-2.151 1.448-.379.328-.627.78-.701 1.274v.674c-.225.475-.55 1.074-.776 1.549-.143.51-.26 1.027-.35 1.548l-.15.5v.674a44.513 44.513 0 0 1-2.953 7.493 14.339 14.339 0 0 1-2.101 3.972c-.326 0-.476 0-.65.149h-.601c-.25-.824 0-1.673-.175-2.497l-.5.849c-6.231 15.236-6.231 15.236-6.531 17.484l-.125.824c0 6.294-4.003 11.364-5.43 17.234-.725 3.271.526 6.718-1 9.99a38.716 38.716 0 0 0-2.778 7.643l-.2.849-3.453 22.654c.15 3.696.301 7.043.526 10.34a14.779 14.779 0 0 1-1.076 4.995 4.164 4.164 0 0 1-1.251 0c-.701-1.473-.701-3.147-1.451-4.595a2.5 2.5 0 0 0-1.702 0l-.125.574-.65-1.823a7.01 7.01 0 0 0-3.153-5.894c0-.6-.25-1.424-.35-2.024-.25-1.473-1.652-6.793-1.677-6.818l-.675.574c0-4.046-.175-6.344-.175-6.369l-.3.275v-4.995c.15-10.79.8-20.906 1.901-30.921v.624c.225-1.673.4-3.322.676-4.995.25-2.173.5-4.021.775-5.92 0-.574.2-1.173.326-1.748-.226 2.498-.226 2.498-.976 9.616l.35-.474h.125l.35-1.149.176-.2v3.222a12.096 12.096 0 0 0 1.075-5.595v-.549c-.175-.375-.175-.375-.225-.375-.102.387-.29.745-.55 1.049a3.86 3.86 0 0 1 .225-2.498h.325c.451-.624.501-1.473 1.326-1.848a.932.932 0 0 1 .351-.375c.275-1.848.525-3.721.825-5.544 1.727-6.894 5.004-13.338 5.255-20.606-.501.15-1.552.524-3.954 10.165a46.067 46.067 0 0 1-3.528 10.216l-.2.225V281.56a8.998 8.998 0 0 0-.475 1.899v.224m7.031-33.468a334.447 334.447 0 0 1 60.199-121.086l-8.157 10.764c-10.233 14.187-10.233 14.187-27.172 44.434-7.957 15.71-7.957 15.71-20.016 48.579l-5.255 17.858.225-.374M11.262 95.71l-2.502.2.625-.225h.276a8.09 8.09 0 0 0 .925-.624l.6-.725h.852l.175.2v.125l-.5.7-.2.124-.376.275m57.972-56.197 3.753-2.348h.6l-.45.25-3.127 1.973h-.951M8.784 95.91c-11.658.67-23.26 2.114-34.727 4.321a10.89 10.89 0 0 0-4.354 1.723l1.651-1.673C-3.4 76.653-3.4 76.653 10.661 66.213l18.766-12.988 6.505-4.071c-1.351.849-1.476.924-3.053 1.973l-1.3.9-.176.174c-2.502 2.273-6.205 3.172-8.106 6.244l-.15.175c2.277-1.449 4.553-2.847 6.755-4.346h-.475l2.827-1.848c.976-.575.976-.575 1.376-.775l2.502-1.598h.225a8.592 8.592 0 0 1 1.602-.85h.45c-.535.451-1.104.86-1.701 1.225-.367.138-.727.296-1.076.474l-5.33 3.497a27.533 27.533 0 0 1-3.502 2.498c-.526.3-.926.549-2.628 1.648-.217.128-.426.27-.625.425-1.301 1.123-2.802 2.048-4.178 3.072l1.125-.5 1.276-.874c.3-.2.676-.475 1.001-.65l.476.25c-1.176 1.124-2.202 2.373-3.378 3.497v.275c-2.227 1.648-4.629 3.072-6.73 4.845a4.283 4.283 0 0 0 1.726-.524h.45a27.68 27.68 0 0 0 5.63-3.222 8.528 8.528 0 0 1-3.953 3.397c-.424.382-.876.733-1.352 1.049-.178.137-.382.239-.6.3a6.733 6.733 0 0 0-3.303 1.947c0 .3.5.25.876.2l-.475.475c2.502-.45 7.506-4.57 9.482-6.12.355-.22.76-.35 1.176-.374l2.628-2.073c4.353-3.522 9.582-5.645 14.086-8.942-1.852.7-8.282 3.872-8.332 3.897-.674.175-1.36.3-2.052.374-1.075.45-2.051 1.1-3.177 1.449h-.625c.088-.377.138-.762.15-1.149a66.326 66.326 0 0 1 18.164-11.015c.675-.399 1.377-.75 2.102-1.049a5.01 5.01 0 0 1 2.177-.824c.3.15.325.15.375.15 1.151-.575 2.352-1.149 3.478-1.773h.675a17.34 17.34 0 0 0-2.001 1.348h.475a14.816 14.816 0 0 0 2.652-1.648l.6-.425A18.767 18.767 0 0 0 57.6 42.21h.7l-.475.475a31.873 31.873 0 0 0 3.453-1.124 9.51 9.51 0 0 0 1.35-.724h-.55l1.476-1.024c1.929-1.109 4-1.949 6.156-2.498l-2.502 1.498a7.336 7.336 0 0 0 2.201-.974l.951-.624 1.05-.674 1.777-.175a25.57 25.57 0 0 0-3.127 1.948l-1.051.65-.6.324h.225a20.326 20.326 0 0 1 3.728-2.073c.29-.102.593-.16.9-.175l2.077-1.249.526-.15-.376.4.5.25c-.625.55-1.375.974-2.026 1.523v.275a7.234 7.234 0 0 0 2.227-1.174c.386-.26.836-.406 1.3-.424l.301.474a7.885 7.885 0 0 1-4.428 2.273c-.676.375-1.251.774-1.877 1.149h.626a17.893 17.893 0 0 1 2.802-.774h.725a20.664 20.664 0 0 0-3.527 2.497c2.502-.974 4.829-2.347 7.28-3.471 0 .4-.475.749-.975 1.049-1.606.9-3.08 2.018-4.379 3.322.75.2.776.2 3.053-1.474l-.376.524.426.35-1.101.924c-.8.5-1.727.675-2.502 1.25l-.926.723-.4.375c1.97-.8 3.862-1.778 5.654-2.922-.175.574-.9 1.099-1.651 1.648h1.176c0 .275 0 .275-1.752 1.449.337.176.7.294 1.076.35l-.5.949.2.125a6.044 6.044 0 0 1-.876 1.099h.4l-.25.5a2.055 2.055 0 0 1-.95.249 1.77 1.77 0 0 0-.126-1.024h-.6v-.55c-.3-.217-.548-.499-.726-.824a3.71 3.71 0 0 0-2.952 1.224h1.1l-.4.375.551.124a21.295 21.295 0 0 1-3.528 3.747h.626s-4.454 7.318-5.355 8.142l.626-.524c.275 1.274.275 1.274.15 1.623.32.187.6.432.826.725-.25.324-.626.749-.901 1.049l-.55.174a4.211 4.211 0 0 0-1.302 0c-.373.48-.783.932-1.226 1.35.138.363.239.74.3 1.123h.551c-.2.924-.125 1.05.35 1.549a11.21 11.21 0 0 1-.9 1.573l.425.45 1.401-.65c.4-.028.801-.028 1.201 0l-.85 1.15-1.177.998.15.575.576.2h.5c.476.55.476.55.676 1.548h.55v.55c-.65.724-2.001 2.248 0 2.222.317.318.541.715.651 1.15-1.426 1.398-1.426 1.398-1.576 1.848l.375.45c-.575 1.348-1.877 1.997-2.677 3.121 0 .425.225.425.375.4l-.15.55c-.375.624-.726 1.098-1.05 1.573h-1.527c-1.576-.325-2.127 1.399-2.177 1.399l.3.524c-.3.5-.625 1.05-.975 1.549l.475.324c-.65 1.524-.65 1.524-3.528 1.874-.408.546-.76 1.131-1.05 1.748l.224.525-10.008.524c.087-.632.212-1.257.376-1.873l-.5-.275-.526.2a2.491 2.491 0 0 1 .675-1.798c-2.227.3-4.553 3.796-4.578 3.82-5.73.525-11.06.825-16.089 1.175v-.525h-.55a15.62 15.62 0 0 1 1.426-3.871l.75-.874c1.002-1.074 1.202-1.324 3.203-1.124 1.502-1.649 3.753-2.498 5.004-4.346 1.677-1.923 3.328-3.822 5.005-5.695 0-1.998 2.076-2.947 2.502-4.745h-.6c-.126-.575-.176-.924.65-2.148a2.104 2.104 0 0 0-1.026-.275c.31-.74.741-1.424 1.276-2.023v-.55h-.576c.376-3.421 4.054-3.496 5.68-5.62l-.2-.549a26.927 26.927 0 0 1 2.252-2.497 1.93 1.93 0 0 0-1.126 0h-.475l-3.028 1.948.2-.55c-.776 0-.8 0-3.528 1.824l-2.502 2.223h1.076c-3.653 3.246-4.053 3.571-4.178 4.795.39-.082.775-.19 1.15-.325l.426.375c-4.429 7.493-4.429 7.493-8.857 11.764-.526.574-.75.824-1.001 1.049a65.907 65.907 0 0 1-11.034 6.569h-.225a4.991 4.991 0 0 1 0-1.224c-.8-.175-1.577.425-2.377.275l.25-1.05a9.296 9.296 0 0 0-3.103 0v-.574a1.38 1.38 0 0 0-.475 0c-.9.575-1.576 1.399-2.502 1.898l-1.801.175-.876.75-.3.499a8.415 8.415 0 0 0 1.676 0c0 .874 0 .874-1.526 3.871 1.5-.124 2.502-1.423 3.778-1.873l.4.475a5.186 5.186 0 0 0 1.701-.325l.35.4v.55c.381-.105.75-.248 1.102-.425l.475.324a15.78 15.78 0 0 1-1.226 2.123l-.125.3m33.552-2.198 10.008-.55c0 .5 0 .5-.2.65-.2.15-.55.45-.775.75l-.376.574h-1.926l-.476.374a9.208 9.208 0 0 1-1.55 1.2l-.877-.35c-.775.25-1.376.799-2.226.649 0 0-.901-.15-.65-.85v-.374h-.902l-.2-.6c0-.35.275-.574.275-.899v-.674m-20.591 1.274c5.004-.4 10.308-.7 15.888-1.05-.851 1.125-2.277 1.624-3.128 2.748l-.275.375v.824a10.725 10.725 0 0 1-2.352 2.248c-1.977 1.099-1.977 1.099-2.502 1.823l-.55.775-.526.774a11.227 11.227 0 0 1-3.828 3.272c-.541.247-.982.669-1.251 1.199-.4.624-.425 1.348-.776 1.973l-.25.399c-.4.575-.9 1.074-1.301 1.624l-3.928.25c1.626-2.798 1.626-2.798 1.35-3.522h-1.125c-.575 0-.926.774-1.601.624-.2-.374.25-.774 0-1.149-.25-.374-.326 0-.951 0 .475-.799 1.05-1.573 1.601-2.372h-2.077c.424-.686.9-1.337 1.427-1.948h1c.951.299 1.377-.625 2.102-.875l.425-1.323c.751-2.049 2.502-3.522 3.253-5.595l-.225-.2v-.7l-.325-.2M-114.215 250.19a334.433 334.433 0 0 1 60.124-121.061c7.005-8.268 16.363-19.307 23.794-27.175a10.89 10.89 0 0 1 4.354-1.723A263.906 263.906 0 0 1 8.785 95.91l2.502-.2-.6.225h-.2l-.776.574c.64.07 1.239.352 1.701.8a4.849 4.849 0 0 1-4.078 2.497 2.743 2.743 0 0 1 0-1.898c-2.903.4-6.856 4.995-6.88 4.995.525 1.149.525 1.149-.526 2.648-.2.699 0 .674.35.649.35-.025.475-.175 3.728-2.872h.475l1.201-1.574h.926c-3.027 7.493-4.328 10.466-7.756 13.737l-.325.8c4.203-1.024 4.203-1.024 4.678-.974-.3 1.998-2.276 2.722-3.252 4.196l.35.125c1.876-1.199 3.603-2.498 5.43-3.797.425.2.425.2 2.326 3.871h2.027c2.252 2.498 4.629-1.498 5.404-2.822h1.151c0 .3 0 .65.176.924h1.05c.52-.103 1.047-.17 1.577-.2h1c-.275.55-.675 1.299-.975 1.849 0 .624.475.599.875.574 1.627-.325 1.702-.424 3.053-2.298H25.273l.876-1.448.626-.825a2.235 2.235 0 0 0-2.152-.674c-1.326.375-2.502 1.199-3.728 1.599l-.626-.775c1.051-2.248 3.428-6.369 3.428-6.394.406-.407.951-.648 1.526-.674.576.175 1.276.45 1.827.674 0 .25-.175.625-.25.875.2.674.3.649.4.649a3.05 3.05 0 0 0 1.701-3.122l.926-1.424c4.304.55 3.253-5.47 6.63-6.369 0 .175 0 .175-.475 2.847.476.3 1.151.65 1.651.9a6.253 6.253 0 0 1-1.1 1.498 4.143 4.143 0 0 1-.35.575v.924l.8.624c-.3 1.074-.3 1.074-5.83 7.493-.17.264-.32.539-.45.824l-.776 1.824c-.85 1.149-1.926 2.073-2.802 3.147a28.479 28.479 0 0 0-1.051 1.898h.95a14.5 14.5 0 0 0 2.127.275h.776a12.4 12.4 0 0 1 3.828-.35v.974a5.167 5.167 0 0 1 1.551 1.199c-.3 1.723-.3 1.723.551 2.498l.85-.625H39.135c.04.546-.1 1.09-.4 1.549l-1.751.924c-.425.924-.9 1.848-1.326 2.772 1.801 0 2.127.475 3.978 3.797h.776c.633.038 1.268.038 1.901 0a29.116 29.116 0 0 1-1.751 5.22 7.895 7.895 0 0 1 3.828.474c-.275.9-.626 1.774-.976 2.673h2.727c.576-.3.576-.3 2.728-.6.9-.499.975-.799 1.125-1.099a3.136 3.136 0 0 1 1.802-.849 5.89 5.89 0 0 1-.5 2.773l-.901.374c-.225.65-.55 1.474-.75 2.098l-.701.899c-.15.4-.3.775-.426 1.149a10.015 10.015 0 0 0 7.506-1.973c3.828 1.449 3.828 1.449 4.129 1.948-.107.31-.19.627-.25.95-.876.674-1.101.674-1.377.674a5 5 0 0 1-4.203 1.948h-1.1c-1.953 1.374-3.779 2.897-5.656 4.321a40.977 40.977 0 0 0-1.851 4.995c-3.603 4.196-9.658 11.215-5.93 15.186v.949c1.852 1.424 1.852 1.424 2.802 1.574h.826c2.627-1.174 5.655-1.424 8.032-3.297 3.152-.25 5.63-.35 8.131-.425 3.428-.499 3.428-.499 4.029-.874.6-.375 1.05-.475 1.226-.475l.75.55c0 .275-.175.674-.225.974a9.086 9.086 0 0 0 4.479.674l.225.949c-2.502 3.073-1.602 7.693-4.479 10.69-.425 2.073-.85 4.022-1.2 5.97v.924c2.977 2.997 1.425 5.47 0 7.843l-.626.774a7.038 7.038 0 0 0-.476 1.548c0 .325 0 .675-.175 1.024.726 1.274.776 1.674 0 4.721a7 7 0 0 1-2.727.425c-2.502-.55-5.004 1.298-7.506.824-.45.449-.45.449-3.753 2.123-1.051 1.249-1.602 2.872-2.953 3.846l-.35-1.149.9-.299A125.623 125.623 0 0 0 25.8 206.081l.75-3.347c2.703-4.171 2.703-4.171 1.877-8.691 0-.6-.225-1.374-.3-1.949h-2.002a5.407 5.407 0 0 1-.85-1.748 5.01 5.01 0 0 0-1.802-.499l-.25-.925-4.704-.424a4.986 4.986 0 0 1 .275-2.997l.275-.999a16.891 16.891 0 0 0 1.551-5.82c-1.526-.924-1.526-.924-4.778-.225h-.35a16.925 16.925 0 0 1-3.929 1.873H9.736l-.951-.149a10.427 10.427 0 0 0-.425-3.872 6.195 6.195 0 0 0-1.552 0c-.65 0-2.201.2-3.052-2.897-5.28 1.474-6.43 7.493-10.634 9.991-1.11.5-2 1.388-2.502 2.497-6.905 4.996-19.69 13.912-21.117 21.605 2.877.549 2.877.549 3.203 2.073 2.582.268 5.19.133 7.73-.4-.15.35-.375.85-.5 1.224-2.502 1.499-4.053 4.396-6.98 5.47l-4.029.225c.35-1.274.726-2.498 1.051-3.847-1.026-.724-1.5-1.998-2.652-2.497.15-1.349.35-2.698.576-4.046a3.862 3.862 0 0 0-1.577-.974 3.544 3.544 0 0 1 0-1.774c.261-.565.479-1.15.65-1.748h2.077a1.985 1.985 0 0 0 1.026-1.299c0-.275.15-.649.2-.899a3.332 3.332 0 0 0-2.502-.425 6.881 6.881 0 0 0-3.152 2.498c-.15-2.098 1.25-3.647 1.877-5.47a18.605 18.605 0 0 0 8.056-6.369c2.677-.175 4.128-2.722 6.555-3.397.951-2.972 3.854-4.371 5.455-6.768.238-.099.493-.15.75-.15 1.927-3.497 1.927-3.497 4.179-3.447.45-.8.835-1.635 1.15-2.498l-.3-.924c-.3-.824-.25-.974-.2-1.124 1.652-3.022 1.652-3.022 1.652-3.347-3.178-.524-15.563 12.089-15.663 12.239a4.13 4.13 0 0 1-3.478 1.898l-.7 1.149c-2.177 2.698-5.955 3.372-8.032 6.269-3.178 4.521-4.028 10.166-6.906 14.986-.634.05-1.262.158-1.876.325a15.85 15.85 0 0 0-1.952 4.396h1.502l.25-.949.925-.3c0 1.648-1.4 3.322-3.728 5.67a13.56 13.56 0 0 0-.65-1.174c-2.828 1.398-2.677 4.62-4.304 6.768a4.033 4.033 0 0 1-1.751.475h-.95c-.351-2.498-.351-2.498-.226-2.773l.35-1.173c.319-.568.506-1.2.55-1.849l-.75-.549c-.486.385-.938.811-1.351 1.274h-1.05c-.401-1.324-.401-1.324.55-4.022h-.951l-.3-.874c1.5-2.198 1.6-2.223 2.777-2.497a13.095 13.095 0 0 0-1.001 3.047c.726 0 2.352-.425 8.032-9.117.325-.974.45-1.324.575-1.648.125-.325 0-.675 0-.949l-.776.549c-1.45 1.449-1.45 1.449-2.352 1.649h-1.5c0-1.099 0-1.099 1.125-2.498a7.465 7.465 0 0 1 0-1.049c-2.502-1.474-3.828 1.399-5.855 1.798-1.276 2.123-1.276 2.123-1.626 2.498a5.942 5.942 0 0 0-1.026 1.823l.676.675c-.826 2.822-3.678 4.52-4.229 7.493a8.944 8.944 0 0 0-.65 1.898 6.402 6.402 0 0 1-.3 1.024 18.47 18.47 0 0 1-1.627 2.772l-.35.55-.35.274-.35.55-.501.549-.35.4a4.813 4.813 0 0 0-.6 2.173v1.174a18.155 18.155 0 0 1-1.077 3.022l-.4.524-.375.425c-.1-.537-.1-1.087 0-1.623l.15-1.324c.2-.625.475-1.474.7-2.073l.25-.949c0-.575 0-.575-.275-.55l-.3.125-.4.45-.3.499-.4.45c-.376.474-.901 1.124-1.277 1.648l-.425.65-.35.549-.35.275h-.476a2.5 2.5 0 0 0-1.376.649l-.85.2-.151-.25-.15-.349.2-.5v-.549c.7-1.699.7-1.699.675-2.698v-.524l-.15-.475a2.779 2.779 0 0 0-1.701.674c-.321.52-.672 1.02-1.05 1.499-.401.475-.877 1.099-1.277 1.524l-.325.549-.325.4-.25.175-.401.299-2.952.325c.15-.55.375-1.274.575-1.823l.175-.65c.257-.667.466-1.351.626-2.048l-.576.15h-.475c-.375.2-.375.2-1.776 1.848a2.292 2.292 0 0 1-.676.175l-.15-.225v-.874l-.25.175c-.21.476-.47.928-.776 1.349l-.2.499a19.72 19.72 0 0 0-.85 3.397 19.71 19.71 0 0 1-1.552 5.745l-.2.524a5.562 5.562 0 0 0-.851 3.047v.375-.2a11.57 11.57 0 0 0-.4 1.848v.525c.125 3.072.125 3.072.325 3.422v1.423c-8.557 1.549-15.012 2.498-19.491 3.697a12.868 12.868 0 0 0-5.98 2.498m-10.583 64.289.5-6.494v-1.299c.525-5.969 1.226-10.939 1.226-10.964v-.15c-.25 2.123-.325 2.622-.375 3.597A331.37 331.37 0 0 0-126 329.79v.2-2.223c0-1.773.15-3.547.125-5.345v1.374s.125-3.997.451-9.017m2.502-24.976.7-4.721c2.002-10.265 4.579-24.002 7.106-34.168l.225-.375a328.094 328.094 0 0 0-7.031 33.469c-.325 1.823-.525 3.672-.9 5.47v.35M87.274 93.138v-.175l.976.424c.35.25.3.725.65.974l.55.175v.7c0 .424.501.749.501 1.223-.065.353-.192.691-.375 1l-.876.399-.525-.35v-1.373H88c-.576 0-1.151 0-1.201-.15l.125-.3.225-.425-.125-.749v-.175c0-.4.2-.824.3-1.124m-43.135 35.142c.265-.608.566-1.2.9-1.773 1.602-.949 2.503-2.647 4.154-3.622l.55.3c-.325.425-.325.425 0 1.948.65.35.65.35 3.678-4.67h2.052a28.348 28.348 0 0 1 1.301-3.097c.9-1.074 2.352-1.374 3.328-2.348l.7-.45c.626-1.174 2.177-1.423 2.653-2.722.325-.774 2.727-3.222 4.078-3.297 2.327 0 4.403-.824 3.202-2.673.2-.574.2-.574.2-.774a5.98 5.98 0 0 1-1.225 0c.125-.275.25-.549.5-.999.5-.874-.626-1.573-.25-2.498.375-.924 1.076-2.073 1.651-3.122 2.177 0 4.329-.15 6.53-.424 0-.675 0-.675-.275-.95 0-.724.7-1.148.7-1.873-.274-.5-.516-1.017-.725-1.548.726-.624.776-.674 1.301-.75h1.752c.25 0 .625.3 2.852 0l.175.15a12.864 12.864 0 0 0-.75 2.923c-.326.949-.951 1.748-1.327 2.672 1.276 0 2.327-.724 3.528-.899 1.902-.225-.225 2.498-.3 2.697-.65.875-1.951.4-2.652 1.224v.55a8.338 8.338 0 0 0-.45.999c0 .774-1.126 1.249-.801 2.198 1.902.449 1.902.449.876 2.248h-1.577c-.15-.175-.3-.4-2.502 1.348H76.59a3.067 3.067 0 0 0 .376-1.573s-3.103 2.847-2.828 4.121c1.777 0 .876 1.049-.15 2.098l-3.578.15v-.799c-2.377 1.224-2.927 4.296-5.404 5.42-.376 1.698-.376 1.698-.726 2.098-1.026 1.149-1.15 1.548-.7 2.073h2.176c.7-.175 1.301-.725 2.102-.725h1.05c0 .15 0 .15.226.85v.874c.417-.026.835-.026 1.251 0l-.15.824c-1.426.824-4.254 0-4.379 2.273.274-.037.552-.037.826 0 .475.574.475.574.4 1.299.25.224.35.299.976.249h.5c-.725 3.522-2.301 2.498-2.927 2.098-1.99.15-3.97.417-5.93.8-.325 0-1.1 1.223-.4 1.748.7.524 2.502 0 3.528.649a5.014 5.014 0 0 0 0 .875 8.503 8.503 0 0 1 2.052.349 6.49 6.49 0 0 0-.751 2.498c.44.631 1.1 1.076 1.852 1.249-1.276.699-1.276.699-3.103 0l-.675-.625v-.624a7.245 7.245 0 0 0-1.902.699H58.05c.7-1.898.65-1.998.476-2.348-5.755 1.049-5.68.2-5.58-.924l-.175-.2c-1.376.15-2.227 1.424-3.578 1.649h-.45c-.926-.375-1.902.275-2.828-.15-.425-.2-.375-.699-.325-1.349-.626-.274-1.401.175-2.002-.424.276-1.324 1.526-1.973 2.202-3.047l.225-.575c.175-.424.175-.424 0-.749a6.88 6.88 0 0 0-1.25 0s.2-.949.425-1.724h-1.401m31.125-12.463c.275-1.149 1.426-1.523 2.052-2.373.625-.849.4-1.173.875-1.623.272-.282.606-.495.976-.624.275-.15.576 0 .85 0 .276 0 .526-.475.876-.575h.35a4.338 4.338 0 0 1 1.527.525v.799l.575.374a17.547 17.547 0 0 1 2.502-1.673 4.3 4.3 0 0 1 1.677 0c-.6 1.349-.85 2.772-1.526 4.071h.475l.525.375h.876l.3.175c.276.2.676.499 1.076.249.826-.524.826-.524 1.501-.374-.75 1.948-1.426 3.896-2.151 5.869-.832.099-1.671.099-2.502 0-.326.849-.65 1.724-.951 2.498.625 0 1.25 0 1.851.15.726 1.224-.575 2.248-.325 3.447.676.349.95.524.275 1.698a4.307 4.307 0 0 1-2.051 1.374c-.7.224-1.126-.5-1.777-.525a3.76 3.76 0 0 0-1.851.6c-.7 0-1.326-.974-1.376-1.099-.05-.125 0 0 .175-.974 0-.4-.4-.425-.526-.725l-6.53.225c.175-.375.3-.799.45-1.199.15-.399 1.151-1.049 1.251-1.898-.775-.55-.775-.55-.675-1.099a25.994 25.994 0 0 1 2.001-4.995l.676-1.674c-1.401 0-1.551-.649-1.426-1.249M-75.31 506.524c-.2-.3-.4-.625-.575-.949-6.906-12.039-6.78-12.638-6.53-14.237a126.642 126.642 0 0 0 8.031 12.338c2.502.175 1.802 2.998 3.353 3.947 2.152-.55 2.152-.55 8.157 8.042 2.627 3.797 3.452 8.692 7.28 11.714l.2-.25c2.503 2.823 4.68 5.845 7.056 8.717.234.288.45.588.65.899 1.002 1.424 1.827 2.973 2.878 4.396.426.55.826 1.124 1.301 1.724 1.176 1.648 2.502 3.197 3.653 4.995l-.2.25h-1.076c.8 1.274.8 1.274.8 1.523l-.274.15v.35c-5.68-1.399-29.374-35.392-29.6-35.742l-1.175-1.848c-.35-.649-.676-1.274-1.051-1.898-.376-.624-.35-.624-.55-.924-.776-1.074-1.652-2.073-2.328-3.172m-44.786-132.626a4.058 4.058 0 0 1 .926-3.996l.775 1.923 2.052.575a6.824 6.824 0 0 1 2.202.15c.375-.425.85-.999 1.201-1.449 0-6.719 0-6.719.55-8.217 0-14.387 9.358-26.9 8.282-41.511v-2.947c0-.4 5.43-43.41 22.868-67.212.176 0 .326 0 1.402.35.35.449.825 1.073 1.2 1.523h.476c8.982-3.921 16.388-11.164 26.622-12.488-.876 4.346-2.077 8.617-2.502 13.013l1.826.399h2.302c1.852-1.748 2.952-4.321 5.58-5.245a56.943 56.943 0 0 0 6.855-.749c.6-1.099.776-2.872 1.627-3.822 4.028-4.745 10.608-4.745 15.387-8.167 5.304-3.821 1.651-11.339 6.305-15.41 0-.6.125-1.424.15-2.048a5.951 5.951 0 0 1-2.502-2.648 19.571 19.571 0 0 1 5.33-2.972 41.29 41.29 0 0 0 11.784 1.498 8.354 8.354 0 0 0 2.928 2.248c4.353-3.821 4.353-3.821 12.51-2.497.3.524.675 1.273.976 1.823 2.92-.359 5.883.037 8.607 1.149.073 1.26.379 2.496.9 3.646 2.502.55 5.004-.149 7.356 1.174.64-.03 1.276-.113 1.902-.249l2.052-.425h1.426c4.553 0 5.554-.799 7.356-2.373l1.951-1.124c1.702 2.997.3 6.369 1.251 9.441 1.959.281 3.947.281 5.905 0-.4 2.873-.8 5.82-1.15 8.742a14.622 14.622 0 0 1 6.955.874c0 4.796.525 9.591.25 14.412 0 1.274-.225 2.497-.325 3.821 1.955-.242 3.94.034 5.754.799a8.61 8.61 0 0 0 2.232 5.867 8.635 8.635 0 0 0 5.625 2.8c1.851.275 10.158 20.731 10.183 20.931l1.852-.15 1.826.374 1.802 1.124c-.726 11.24.725 11.814 5.154 13.488.225.549.475 1.298.65 1.848a6.486 6.486 0 0 1-1.1 4.171c-7.907 1.474-7.907 1.474-8.708 2.997 2.127 4.271 2.127 4.271 2.127 18.583v2.298c0 1.748 0 1.748 4.104 5.894-.2 2.747-1.251 5.32-1.702 8.017v4.122s-8.006 13.862-15.713 17.908c.376 3.297 1.326 12.113-10.758 12.963-8.132 15.885-8.633 16.834-16.139 15.835a16 16 0 0 1-1.701-3.772c-2.502-1.024-5.004.15-7.506-.474h-1.176c-1.676 0-1.676 0-5.83.125-1.551 2.322-1.551 2.322-11.985 2.322-3.202-6.444-5.904-5.844-11.86-4.545-.38.062-.77.062-1.15 0 0 0-5.004-5.22-9.308-1.724-.675 8.792-.675 8.792-4.228 10.365l-13.611.725c.375 2.248.725 4.496 1.15 7.043 1.777 4.471 1.777 4.471 6.48 20.531a5.322 5.322 0 0 1 2.778 2.123 6.433 6.433 0 0 1-2.802 2.498c-1.226 2.972 0 6.718-2.853 9.191.976 9.266-4.103 18.707.776 27.849.225.674.476 1.348 1.176 3.621a7.483 7.483 0 0 1-.65 3.897L.428 497.982c8.782 6.019 6.956 25.975 6.88 26.125a23.531 23.531 0 0 1 3.328 9.367 611.289 611.289 0 0 0 5.53 9.391c0 .174 10.233 26.225 11.634 30.246.25.275.45.525 1.101 1.199 3.228 1.674 3.228 1.674 4.029 4.121-.3 0-.626 0 0 1.224l1.326 1.499-.326 1.948a28.338 28.338 0 0 1-5.48 0 28.719 28.719 0 0 0-3.852-1.224 16.13 16.13 0 0 1-6.18-.475c-15.663-14.786-35.354-24.477-50.942-39.388l-35.729-43.708c-.525-.975-1-1.949-2.302-4.346a36.596 36.596 0 0 1-1.476-3.547c-1.926-3.871-3.828-7.768-5.63-12.139-.8-7.143-5.004-13.137-6.505-20.106-.125-.349-.25-.699-.55-1.448-5.83-13.438-15.763-24.502-21.518-37.94-11.609-26.999-11.609-26.999-14.011-44.658m306.875 78.851s.45-11.014 5.855-13.362h5.129c8.131-2.498 8.131-2.498 8.857-7.243 5.004-3.272 5.004-3.272 8.757-2.223h7.156c6.956-2.798 6.956-2.798 8.982-1.974v1.899c1.476.874 2.277 1.348 5.78-.45v-1.573c-.826-.5-1.852-1.174-2.652-1.699a28.869 28.869 0 0 1 12.685-5.944 6.155 6.155 0 0 0 2.502-.65 7.518 7.518 0 0 1 6.305-.999c0 1.699 0 3.397-.175 4.996h4.704a28.42 28.42 0 0 0 0-2.948c-.575-.699-1.351-1.673-1.927-2.497l-1.326-.999c.251-.45.601-1.024.876-1.474 0 0 2.978-.899 6.13-2.148h1.201c.842.016 1.68.116 2.502.3-.25 3.621-.325 5.295 4.254 4.596.061-.907.061-1.816 0-2.723v-1.623a7.516 7.516 0 0 1-4.629-.9c-1.251-6.169-.15-8.666.25-9.616h3.178c.074-2.297.325-4.584.75-6.843a58.507 58.507 0 0 1 2.502-5.62c5.655-1.349 6.18-2.897 6.681-4.396a82.446 82.446 0 0 0 8.757-3.546c2.777-1.349 5.454.449 8.207.299h1.926c13.211-2.497 13.186-7.867 13.161-10.14a77.36 77.36 0 0 0 6.905-3.822c0-.374 0-.749 1.477-1.298 2.502-1.699 2.502-1.948 2.502-5.195a9.63 9.63 0 0 1 1.901.199c1.576.475 3.053 1.174 4.654 1.524 1.301-1.199 1.301-1.199 1.576-4.521l-1.626-.474c0-.45-.2-1.049-.25-1.499a10.754 10.754 0 0 1 4.353-1.698l2.302 1.998c.2 0 .375 0 1.351-.425a10.858 10.858 0 0 1 3.003-.624c1.401 1.623 1.676 3.871 3.002 5.545h1.426c2.352-3.847 2.502-3.872 6.055-4.571 1.929.062 3.86-.005 5.78-.2a21.773 21.773 0 0 1 3.103-.849 3.855 3.855 0 0 1 1.426-3.372c2.502-.724 4.403-2.498 6.905-3.122l1.301.899c0 .225 0 .225 5.905 6.469a51.058 51.058 0 0 0-1.351 8.192l1.151 1.049c1.626-2.722 6.38-12.088-1.376-18.482l.475-1.174c.776 0 1.451 0 2.677.175 2.878.949 2.853 1.249 2.502 4.82h5.455c6.48 4.496 6.48 4.496 10.008 4.521 0 2.173-.225 4.371 0 6.843 1.201 1.299 1.201 1.299 4.229 2.248 0 4.596 6.505 7.194 4.003 12.489l-1.501.249c-.276 4.596-6.005 9.616-1.001 13.737.575 8.393.575 8.393 3.428 8.892a72.603 72.603 0 0 1-.951 3.846c.725.55 1.651 1.349 2.327 1.949v2.272c3.152 1.149 3.252 2.498 2.652 6.544a9.077 9.077 0 0 1 3.478.55c-.926 3.147-.676 6.469-1.777 9.541a25.099 25.099 0 0 1-4.528.15c-.126.699-.276 1.398-.376 2.248.225.424.501.974.701 1.398.988.297 1.89.828 2.627 1.549-.525 3.222 1.901 6.669-.576 9.791-.084.463-.193.921-.325 1.373-1.976 9.367-13.286 11.415-15.913 20.281a29.56 29.56 0 0 1-.675 2.498c-2.352 3.072-3.003 7.143-5.955 9.841-5.73 5.22-5.53 17.883-16.389 16.459-10.008-1.324-10.683 12.488-20.016 12.364-.951 3.271-1.901 6.543-2.977 9.99a10.383 10.383 0 0 1-.801 3.022v.45c0 .325-.2.624-.7 1.773-.226.4-.501.949-.701 1.349a5.008 5.008 0 0 0 0 1.648 11.033 11.033 0 0 1-.826 3.122v.275a6.394 6.394 0 0 1-.925 1.799l-.601 1.498-.15.5a5.794 5.794 0 0 0-.2 2.298 11.772 11.772 0 0 1-1.602 2.772c0 .3-.2.599-.325.899a9.205 9.205 0 0 0-.3.974c-.475 3.097.275 6.319-.951 9.341-1.226 3.023-1.001 2.798-2.202 12.489 0 .174-.2.349-.775 1.323-6.38 10.466-8.532 14.012-7.081 19.033-.365.763-.801 1.49-1.301 2.172-.175.425-.45 1-.651 1.424-.875 1.124-.875 1.124-.65 6.819-3.803 3.671-4.354 9.366-8.232 12.938-2.727 2.347-1.976 6.968-5.705 8.641h-1.626l3.753-5.794h-2.076a60.258 60.258 0 0 0-1.302 2.048c0 .45.126 1.074.201 1.548-.801 1.124-1.652 2.248-2.502 3.497a50.98 50.98 0 0 1-3.954 6.669c.901-.5 2.027-1.224 2.878-1.773l.45-.6 1.101-1.224s-.15.2.475.325a7.95 7.95 0 0 1-1.901 1.898 14.558 14.558 0 0 0-4.529 4.021c1.451-.474 2.652-1.498 4.103-1.998a3.426 3.426 0 0 0-1.05 1.849c0 .474-.176 1.074-.201 1.523-3.077 1.898-6.805 2.648-9.232 5.545a5.751 5.751 0 0 1 2.502 1.449l-1.326 1.124a45.899 45.899 0 0 1-2.502 1.773 13.5 13.5 0 0 0-.976 1.449c-1.826.999-3.353 2.497-5.129 3.471l.225.5-1.126.474c-.51.021-1.011.14-1.476.35a4.678 4.678 0 0 1-2.502 1.673l-.4.35-11.46 6.094c-.27.252-.563.478-.875.675a37.61 37.61 0 0 1-4.554 1.174c-.549.065-1.087.2-1.601.399a27.63 27.63 0 0 1-3.203-.15l-.726-.899a8.646 8.646 0 0 1 4.479-1.274c.325-.324.65-.649 2.252-1.049 0 0 2.277-1.648 5.004-3.846.375-.377.776-.728 1.201-1.049 1.126-1.124 2.502-1.998 3.528-3.097a6.728 6.728 0 0 1 1.126-.999l1.451-1.624c.275-.374.625-.849.951-1.223a3.515 3.515 0 0 1-1.927-.35 15.23 15.23 0 0 0 1.852-2.498l-1.226-.924c.35-.974.875-2.298 1.226-3.297-.276-.349-.576-.899-.826-1.274.25-.374.55-.749 1.901-1.223l1.527-.325c4.854-3.272 4.854-3.272 5.454-4.021.125-.175.25-.375.475-1.624-.3-.349-.7-.849-.975-1.224h-3.153a13.861 13.861 0 0 0 1.977-4.371c.411-1.456.638-2.958.675-4.47l-1.626.149c0-.449-.15-1.049-.225-1.523-.075-.475.225-.425 1.276-1.299H287.737l1.376.774c1.001-.674 1.001-.674 3.003-3.521.375-.675.7-1.374 1.076-2.048h-1.251c-1.059.42-2.087.912-3.078 1.473h-3.753c.225-.374.525-.924.776-1.324.25-.399.2-.474.625-1.623-.175-1.748-.175-1.748 1.652-4.146.25-.55.45-1.074.7-1.649-1.22.016-2.44-.043-3.653-.174h-2.302c-.4-.2-1.026-.425-1.476-.625h-3.678l-1.476.25c0-2.722-2.127-4.521-3.078-6.844l-.325-1.423c.25-.75.475-1.499.676-2.248a7.36 7.36 0 0 0 1.501-.175c0-.5.3-.999.625-2.148 1.702-2.123 4.679-2.747 6.155-5.17h-3.177c-10.484 2.498-12.936 3.022-13.761-.799-2.703-12.938-5.155-14.337-6.08-14.836a5.631 5.631 0 0 0-.301 2.947l-1.551.325a44.186 44.186 0 0 1-3.503-7.094c-.3-2.797-4.078-2.847-4.503-5.57-.576-3.946 3.778-7.043 1.976-11.214a77.341 77.341 0 0 0-8.732-8.992h-5.004a24.476 24.476 0 0 1-3.428-3.222 112.39 112.39 0 0 1-11.209-.299 6.604 6.604 0 0 0-1.076-2.773 11.383 11.383 0 0 1-4.153-6.044 22.81 22.81 0 0 1-2.702-1.773 11.872 11.872 0 0 0-1.802-6.594c-1.026-.625-1.026-.625-2.502-8.692a5.672 5.672 0 0 0-.6-2.223 14.113 14.113 0 0 1-1.727-6.169 15.02 15.02 0 0 1 .15-2.498c0-.449.176-1.049.276-1.498-.047-1.044.012-2.09.175-3.122a12.205 12.205 0 0 0-1.276-6.244c-1.001-.275-1.001-.275-7.131-8.143a4.842 4.842 0 0 1-4.128-2.223l-7.306-10.115c-1.952-3.647-1.952-3.647-2.077-5.645m160.13-138.145-.25-.15c.551-.574 1.651-.225 2.027-1.124.375-.899-.175-2.223 0-3.322a21.903 21.903 0 0 0 6.205 1.099h2.052c1.075-.225 1.926-1.024 3.027-1.099h1.026c.901.325 1.176 1.449 2.127 1.749h3.477c1.452 0 1.902-1.674 3.153-1.974 1.251-.299 2.502-2.123 4.153-2.172l6.806-.275c1.281.061 2.55.279 3.778.649v6.944c-1.877 2.497-3.153 3.821-3.803 3.996h-2.102c-1.751 0-1.751 0-3.177-1.873-.676-.9-3.178-1.199-3.178-1.199-1.176 0-2.227.599-3.353.599-1.126 0-2.227-.624-3.378-.599a28.479 28.479 0 0 1-7.731-1.024 1.954 1.954 0 0 0-2.051 0 30.052 30.052 0 0 1-5.005.824h-2.076c-.751 0-1.226-.699-1.827-1.049m52.768 3.272-.2-.35c.225-.724-.3-1.623.4-2.273.701-.649 1.101-.199 1.627-.424.525-.225 1.001-.849 1.626-1.149h.5l5.355.15c-.35.649-.551 1.398-.926 2.073l-.475.599c-.351.35-.476.3-1.451 0-.976-.3-2.503 1.149-2.503 1.149s-.3.624-.3 1.424c.052.324 0 .656-.15.949-.575 0-1.201.325-1.826 0-.626-.325-.376-.225-1.652-2.073m5.305-13.213-14.287-.324c.851-1.624 4.253-6.544 7.181-7.019h2.026c2.027 0 4.004.974 6.03 0 1.402-.649 1.702-2.248 2.753-3.222a46.283 46.283 0 0 1 5.154-3.297c1.926-1.299 1.926-1.299 2.202-2.198.275-.899.375-1.298 1.551-1.348 1.176-.05 2.502.249 3.978.324.851 0 .851 0 1.827.924.975.925 1.576 0 2.352-.174h3.753c3.227 0 3.227 0 3.703.349 3.828 3.847-1.627 10.241-6.155 7.218-1.151-.749-1.752-2.123-3.078-2.647a10.425 10.425 0 0 0-3.203 0s-3.627 1.399-3.928 3.696c0 .525-.15.975-.575 1.224-3.078 1.699-3.528 1.599-4.529 1.424-1.001-.175-1.551.275-2.077 1.324a6.125 6.125 0 0 1-4.678 3.422M127.407 61.517l1.401-2.498a6.07 6.07 0 0 1 1.301-1.223 6.312 6.312 0 0 1 2.802-.6 15.34 15.34 0 0 1 1.952-3.871h2.777c.951 0 1.026 0 3.278 2.248 1.326-.15 2.502-.675 3.928-.7 2.302 0 2.927.5 3.327.9a1.68 1.68 0 0 0 1.226.474h2.503c.175-.425.325-.824.525-1.224s.35-.799.5-1.174c.15-.374.976-.749 1.427-1.198l1.1.274-.525 1.15a12.531 12.531 0 0 1 4.654-.4c.4 0 3.503.649.976 3.272-1.251 0-2.352-.975-3.628-.5l-2.628 1.523c-.45.45-.35 1.05-.6 1.549a15.037 15.037 0 0 1 6.455-.15l-1.151 1.849c-.725-.25-.725-.25-1.026-.25h-2.502l-.45.324c-.3.825-.6 1.649-.876 2.498l-1.126 1.324h-1.326c-1.276 0-2.502-.275-3.853-.225h-1.401c-1.826-.125-2.827 1.574-4.378 2.023 0 0-5.005 1.124-4.879-1.424 0-1.024 0-1.024-.751-1.823-.751-.8-1.326.375-1.676-.325-.651-1.273-.651-1.273-1.302-1.523-.65-.25-.95-.375-5.754-.2m144.768 82.997-.401-.474c0-.525.226-1.249.326-1.774 2.101 0 2.101 0 2.777-.449a13.271 13.271 0 0 0 3.128-2.498c.325-.55.5-.874 1-1.024a30.565 30.565 0 0 1 3.728-.475 15.883 15.883 0 0 0 1.702-.899c-1.677-3.222-1.677-3.222-3.653-4.021-.325-.15-1.702-1.823-.976-2.972.181-.244.324-.514.425-.799.446.006.89-.036 1.326-.125a6.667 6.667 0 0 1 2.502.974c.726.724.376 1.723.726 2.497.801 1.899.801 1.899 1.751 2.673 0 0 9.633 8.642 10.009 9.091a6.437 6.437 0 0 1 1.201 2.498c.05.707.05 1.416 0 2.123h-13.737c-1.176 0-1.676.275-2.777 1.748a10.003 10.003 0 0 1-4.554 3.897 2.504 2.504 0 0 0-1.176-.65c-.475-.15-1.551-.549-1.501-4.62 0-2.498 0-2.498-1.826-4.671m36.605-5.595v-.15c.5-.199.85-.599 1.376-.799.313-.071.638-.071.95 0h1.452a3.06 3.06 0 0 0 1.067-.627c.31-.279.56-.618.734-.996.325-.75.626-.899 1.101-.899a4.4 4.4 0 0 0 1.276 0l2.002.899a6.094 6.094 0 0 0-1.527.849c-.4.449-.375 1.099-.7 1.573l-.325.35c-.401.375-.851.724-1.251 1.124-.401.4-.576.824-.926 1.174a1.826 1.826 0 0 1-.901.524c-.475.15-1.301.35-4.203-2.922M190.083 1.499a29.801 29.801 0 0 1 2.877-.325c.316-.038.635-.038.951 0a5.225 5.225 0 0 0-.926.425c.5.02 1-.047 1.476-.2l.35.35h.126l.3.374-.275.425 1.251-.9c.332-.144.651-.32.95-.524.465-.152.942-.26 1.427-.325h.85l-.475.35c.325-.026.651-.026.976 0l.4-.15h-.651a5.016 5.016 0 0 1 1.702 0h1.201c.323 0 .644.05.951.15h.9V.674c-.732.063-1.469.063-2.201 0-.641.07-1.287.07-1.927 0h-.475l.625-.474h.701l2.001-.2h3.278-2.452 4.354l.525.15h3.728-.125l.5.05h1.051l-.2.125h-.525v.374l.15.15H215.003a5.164 5.164 0 0 1 1.076 0l.175.175.125.15.2.175h.351V.624h.55l.525.2.451.175h.3l.776.275h.55l-.45-.175-.601-.125H218.381L218.03.85h4.429-.25 2.152c.306.049.607.124.9.225H225.587l2.402.65h1.426l.775.15 1.852.324.951.2v-.15h2.452l1.075.275h.251l.95.274h-2.101l.976.375H237.121l1.326.574 1.026.325h1.026c.373-.033.75.018 1.101.15h.55c.317.023.634.023.951 0a3.258 3.258 0 0 1 1.226 0l.4.15.526.2.5.125h1.501c.622.087 1.249.137 1.877.15H250.782l.325.124H252.058c1.752.525 1.827.675 2.102 1.224l-.451.175.401.275h-1.351v.5h-.951l-.801-.176h-.3a8.774 8.774 0 0 1-1.176 0h-1.001l1.076.6.45.2h.276l1.226.374H253.434l.876.175h.225l.676-.175h.3l.851.375h.875a1.625 1.625 0 0 1 1.151.674 1.802 1.802 0 0 0-1.051.725h.501l.35.15.325 2.172v.15l-.225.15v.3l.175.15-.225.225v.15l-.525.15h-.626l-.175-.15-.65-.625h-.376c-.33.013-.657.064-.976.15h-.225l-.425-.325h-.701a2.7 2.7 0 0 1-.925 0l-.301-.15h-1.201l-.3-.15-.7-.224-.351.324h-1.201l-.35.325v.15h-1.501l-.401.3h-.875v.474l-.401.175h-.45v.425c.433.453.811.956 1.126 1.498v.35h-.525v3.822l-.226.549.201.274c.475.4.525.45.425 1.324l.675 1.074c.801.55.801.55 1.051 1.024h-1.151c.173.36.452.656.801.85.323.034.636.127.926.274.277.588.595 1.155.951 1.699h.95c.15.3.326.6.501.899v.5a3.159 3.159 0 0 1-.951.25c-.321.005-.64.046-.951.124h-.5c-.896 0-1.79-.058-2.677-.175-.251-.474-.251-.474-2.678-.824.226 1.024.526 2.298-1.401 2.373h-.325c-.525.375-1.019.793-1.476 1.248v.475l.325.475h2.977c1.076 0 1.727 0 2.202-.8 3.828-.4 4.229 0 4.254 1.05l-.726.774c.951 1.049 2.827.674 3.503 2.223l-.275.424c-2.227.225-2.227.225-3.078 1.524h-.55a4.687 4.687 0 0 0-4.979-.275c-.2-.574-.401-1.174-.551-1.723.701 0 1.426 0 2.127-.15v-.475c.325.026.651.026.976 0l-.476-.5h-1.451c-.725.575-.725.575-2.277.8h-1.576c-.322.048-.63.168-.901.35v.524l.151.325c.65.275 1.025.924 1.551 1.324a.87.87 0 0 1 0 .524c-.651.774-.651.774-.751 1.274.193.507.36 1.024.501 1.548.678.012 1.357-.038 2.026-.15.776.25 1.351.975 2.252.925.297.007.593-.035.876-.125a2.358 2.358 0 0 1 1.026 0c.277.92.746 1.771 1.376 2.498.323-.099.64-.216.951-.35 3.227 1.648 3.227 1.648 3.327 1.973a3.58 3.58 0 0 1 0 .774 3.354 3.354 0 0 1-.325 1c-2.077.474-2.227 1.048-2.202 1.198 0 1.549 2.502 1.024 2.352 2.498l-.25.524s-.3.95-.551 2.098c-1.251.425-2.201-.65-3.402-.6-.33 0-.658.042-.976.126l-.225.424c0 .3.325.675.45.95.3-.03.601-.03.901 0l.475.174c1.652 4.146 1.652 4.146 1.251 4.796-1.926 0-3.152-2.073-5.179-1.724.205.941.499 1.861.876 2.748.75.7 1.876.674 2.652 1.274.775.6-3.453 9.765-3.503 9.84-3.002 4.471-5.53 6.67-7.506 6.494a7.33 7.33 0 0 1-1.101 0 3.383 3.383 0 0 0-1.701-.424h-.501c-.525.125-1.026.174-1.526.3 0 2.947-3.278 2.497-4.629 4.12-.725.825-6.355.875-6.23-1.698v-1.124c-.275-3.222-5.68-6.394-2.252-9.366 0 0 2.177-2.048-1.226-2.273a7.304 7.304 0 0 1-1.101 0 5.011 5.011 0 0 0-1.601 0 7.274 7.274 0 0 0-2.902-3.247 11.159 11.159 0 0 0-.426-3.471l-.325-.35a3.097 3.097 0 0 1 1.301-2.773v-.5c-1.076-.648-2.502-.149-3.478-.948-.976-.8-.15-1.349-.35-1.973h-4.078a5.338 5.338 0 0 0 0-2.173 7.243 7.243 0 0 0-2.277.25c0 1.623 0 1.673-.3 2.222-2.102-.224-3.578-1.748-5.455-2.497h-.775A4.363 4.363 0 0 1 193.56 52v-.524c-.6-1.174-1.851-1.774-2.502-2.823-.75-.275-.75-.275-1.426-1.798a5.91 5.91 0 0 1-1.101-.425c.08-.269.08-.555 0-.824-1.301-1.099-1.301-1.099-.95-2.498H186.38l-.351.225h-.175l-.35.325a2.856 2.856 0 0 1-1.601.225c-1.477 0-2.703.949-4.179.924-1.901 0-2.001-2.698-3.953-2.623-1.326 0-2.502-1.049-3.828-.824-1.977.3-1.201-2.697-2.802-3.172h-2.928c-.575-.3-.575-.3-1.351-1.523l.225-.45.626-.25.675.75.175.624h1.051c1.076-.225 1.652-1.424 2.853-1.424h.825c3.428-.15 4.029-1.224 4.329-1.748l.425-.974c-3.878-.625-3.878-.625-4.579-1.274-1.676.624-1.926 3.022-3.978 3.222l-.35-.35-.15-.874c-.926-.425-2.002.15-2.953-.374 1.251-1.749 3.303-2.498 5.004-3.772 1.702-1.274 3.428-1.474 4.229-3.397l-.501-.175c-2.126 1.224-2.126 1.224-2.276 1.224-.291.03-.585.03-.876 0h-.5c.275-.58.593-1.14.95-1.673.176-.265.319-.55.426-.85a2.101 2.101 0 0 1 3.327-.674 2.834 2.834 0 0 0 1.552-.374l-.751-.675c.175-.175.175-.175 1.802-.824v-.275h-1.827l-.726 1.074c-.698.07-1.402.07-2.101 0l-.276-.45h-.5a3.93 3.93 0 0 0-.851 0c-1 .4-1 .4-1.601.15-.4-2.497 3.503-1.498 5.004-2.497v-.45c-2.052.425-2.652.175-2.927 0l-.275-.524-.476.175h-.65a2.254 2.254 0 0 1-.926-.175c1.476-1.399 3.803-1.599 5.004-3.347-.15-.15-.15-.15-1.226-.175.325-.325.651-.65 1.351-1.274a5.281 5.281 0 0 0 1.476-.849l.351-.3c1.376-.699 3.102-.424 4.303-1.523l.2-.2c-.3-.325-.3-.325-1.301-.5h-.75a2.954 2.954 0 0 0-1.852.625l-.325.425c-.326.424-.401.649-2.002 1.648l-.25-.15 2.852-2.498.125-.45.251-.199c.825-.425.825-.425 2.502-.475h1.151c.325-.242.597-.548.8-.899l-.45.15h-.35l-.501-.175a6.115 6.115 0 0 1 3.303-.624l-.2.474a3.178 3.178 0 0 0 1.576-1.223v-.4a19.314 19.314 0 0 0 1.551-1.199h-.75l.475-.3v-.45s-.15 0 0-.274c1.226-.6 1.251-.724 1.426-1.299h-.475l.45-.224v-.475l.551-.175h1.676l.425-.375-.976.175h-.4l.826-.5-.325-.224 1.301-.624zm32.526-1.15-.951-.174h1.051H221.158h2.552L222.584.05h.701-.801 1.952-.876 2.077-.476 2.828-.601l3.703.2 1.927.175h-.526c1.088.235 2.192.385 3.303.45l-1.176-.2h.35l-1.976-.2h.725-.6 1l3.253.324h.325-.575.2l2.827.275h.351l1.726.225h.275l1.902.25h.225l2.502.374a7.72 7.72 0 0 0 2.102.45h-.325l.25.225-2.502-.45-1.527-.225h-1l2.101.3 2.502.45 2.177.45a20.059 20.059 0 0 1-4.654-.575h-1.276l-2.251-.375-1.852-.275c-1.126-.175-2.277-.3-3.403-.45h-.275l.801.05 4.103.75h-1.126l1.476.275h1.702l1.101.15 2.502.324h1.276l1.776.4h-.175l.676.225 1.501.45-.551.149h1.376c-.818-.257-1.6-.618-2.326-1.074h.95l2.127.45 1.251.4 1.551.524 1.752.75.4.324-.776.15c.801.224 1.702.274 2.502.55l2.052.673-1.676-.924h.3l1.401.15 1.276.175 2.027.425 2.077.624 1.426.5-.225.15h-1.176l-1.377-.15 2.503.599 1.676.674c-.751.15-.751.15-5.279-1.024l2.502.85 2.927.724 1.251.125V9.29l-.425-.574h1.201a23.74 23.74 0 0 0 6.305 2.048l2.502.8 1.976 1.098v.475a25.084 25.084 0 0 1-2.502-.625l-3.553-.15v.3a7.52 7.52 0 0 1-1.801-.275h-.801c1.402.625 1.401.625 1.552.825a3.913 3.913 0 0 1-1.677 0h-.85a39.208 39.208 0 0 1-5.98-1.724l-1.401-.774 2.176.524-2.026-1.049-1.527-.224-2.502-.95-1.601-.799h-.776c-1.926 0-3.477-1.124-5.279-1.573h-1.151a2.852 2.852 0 0 1-1.926-.874v-.275h.325l1.776.374 1.502.325-1.402-.524c-1.376-.275-2.752-.6-4.128-.9h-.776l.851.375c-.725.15-.725.15-3.953-.524l-.951-.6h-1.126l.901.4h-.951l-1.801-.3-1.476-.6v-.2h-1.727l-1.526-.349-1.426-.2c-2.052-.374-4.079-.674-6.105-1.074h-.826l-1.076-.174-.65-.25c1.043.155 2.098.221 3.152.2l-1.276-.225-1.126-.125h-1.701l-2.502-.25a20.195 20.195 0 0 1-2.352-.3m38.181 4.92-2.752-.748c-.225-.3-.225-.3-.501-.425l-1.676-.425-1.501-.35-.826-.25 1.651.276s-2.777-.8-5.154-1.25a28.292 28.292 0 0 1-3.528-.649l2.502.3h-.325c.694.14 1.396.232 2.102.275h.55c1.401.175 2.753.474 4.104.724h1.076l2.727.525 1.626.274 2.627.55h-.2l2.752.65 1.126.349h-.951l-1.426-.2h-.925c1.102.386 2.243.654 3.402.8h.701l1.726.35 1.176.449 2.502.774v.325l-1.651-.225v.25l-1.877-.5h-.425a14.246 14.246 0 0 1-1.977-.574l-2.226-.625.425.3-2.502-.525c-.76-.12-1.512-.286-2.252-.5m20.517 5.32a15.325 15.325 0 0 1-4.454-1.523l1.977.325 3.277.974-.8.225zm.475 5.995-2.252-1.373.776-.625 1.026-.425 2.702.625 3.403.65 1.751.2 1.026-.35 1.752.15-1.602-1.175-2.702-1.198-2.227-.974h1.426a24.068 24.068 0 0 1 8.107 3.421l3.678 1.399 1.526 1.024.976 1.049-2.277-.275-2.502-.724c.35.35.676.75 1.001 1.099a5.416 5.416 0 0 1-1.977 0h-2.502l-1.851-.425-1.702-.65.501.7c-4.479-.374-4.479-.374-5.73-1.149a6.058 6.058 0 0 0-2.502-.924m29.549 3.147h-.876l-1.476-.799 2.352.85m-7.731-1.3-3.178-1.448-.675-.675-1.752-.899 1.201.2 2.828.75 2.276.874 1.752 1.123h-.976l.3.525-1.776-.5m-10.909-4.845-2.777-.874-1.777-.675-1.451-.799h1.026l-.475-.324 1.526.25 2.827.948 1.101.725.901.65h-.901m-11.81-3.947-2.026-.65h2.026l2.502.65 1.677.574-1.376-.15-1.276-.25-1.527-.174zm-2.502-1.299-1.851-.5-1.827-.699h.576l-1.902-.7 1.902.425 2.051.625 3.553 1.099-.15.15-1.201-.175-1.151-.225zm-11.134-3.547-1.501-.25-2.952-.624-.551-.175h.4l2.728.525h-.476l2.352.5m17.865 4.67-2.177-.574-2.502-.775-1.301-.45-2.502-.699-.751-.3-1.126-.349h.876l-1.451-.425-1.376-.4.85.15 2.227.525 2.152.5h-.626l.801.25 2.677.624h.601l2.327.674h-.651l1.326.45-1.576-.375h-.601l2.503.924v.2m3.527.55-1.126-.3-1.476-.55h.976l2.352.725-.726.125zm8.933 4.246a11.183 11.183 0 0 1-2.778-1.424c.694.155 1.379.347 2.052.574l-1.626-.874h.775a24.774 24.774 0 0 0 5.58 2.373l-3.128-1.449h.751l2.502.925 2.502 1.048-1.476-.849-4.028-1.548-.876-.6 3.878 1.324c1.626.624 3.203 1.449 4.804 2.173l.4.524-1.501-.374-.951-.2 1.502.75 3.427 1.573-1.651-.5-1.151-.125-1.101-.224-2.502-.95a78.154 78.154 0 0 0-3.353-1.348c-1.151-.425-1.601-.5-2.502-.774m14.087 3.122c-1.001-.4-.976-.575-.976-.6.6 0 1.076.45 1.676.525l2.227.949a9.646 9.646 0 0 1-2.927-.874zm-15.012-5.72-1.602-.375-3.403-1.149-1.526-.45a60.46 60.46 0 0 1 6.531 1.974zm15.737 36.066-2.902-1.973-.851-2.023c1.348.007 2.694.107 4.029.3a40.14 40.14 0 0 1 3.903 2.297l.575 1.774-1.951.224-2.803-.599zm-1.851-24.602c-3.878-1.623-3.878-1.623-3.878-2.098h1.301v-.524c2.127.2 2.127.2 2.502.424a21.601 21.601 0 0 0 4.804 2.048c1.676.85 3.302 1.699 5.004 2.498l4.554 2.797-2.027-.4-2.702-1.023-2.803-1.499-.775.35-2.502-.974-3.678-1.699m20.016 7.044-3.753-1.849-1.952-1.373-1.476-1.224-.625-.8a14.29 14.29 0 0 1-6.28-3.047l-1.176-.749 1.226.15 2.502 1.099h.35l-.2-.45 1.776.45 2.102 1.074 1.676 1.199c4.279 1.973 4.279 1.973 4.704 1.948-.442-.396-.91-.764-1.401-1.099l.951.125 2.502 1.199.926.924.7.7-.225.449c3.278 2.273 3.278 2.273 3.052 2.897a33.135 33.135 0 0 1-3.377-1.424l-1.952-.224m-.175-4.87-3.553-1.45-1.026-.674.576-.374c.853.251 1.689.56 2.502.924l1.501 1.074s.5.325 2.502 1.498l-2.352-.874m.175-1.224-2.502-1.024.851.15 1.951.724-.325.15h.025zM286.261 8.392a28.645 28.645 0 0 1-3.378-.949h.801l1.451.275 3.353.774H286.261m5.53 1.249-2.503-.625h1.201l1.477.625 2.502.574 4.128 1.25h.15l-1.351-.326h-.976l-2.101-.574-1.852-.574h-.55m3.628.274h-.201l-3.152-.849-1.101-.35h.55l2.502.675 1.402.524zm17.013 7.168-5.004-1.848-1.451-.624h.501l2.176.75-.725-.326-2.302-1.024-2.352-.799-2.502-.899h.575l1.927.55 1.101.274 1.876.625c1.402.6 1.402.6 5.004 1.873v.15a7.895 7.895 0 0 0 2.503.774h.85l-1.376-.65-3.303-1.298-.9-.325h.5l-1.201-.524-.175-.125 2.077.65 3.803 1.198 2.752.874 3.077 1.024 2.903 1.074h-.551l.276.275-1.101-.25-1.752-.474-.125.224h-.675c.726.263 1.47.471 2.226.625h.801l1.927.624 2.026.825.751.45h-1.076l-3.203-.975-3.502-1.174-1.276-.25h-2.252l-2.903-.999m-7.155-4.27h-.251l-2.502-.775c.34.11.694.168 1.051.175h-.3l1.926.6m14.712 4.145-5.254-1.773 1.827.5 3.277 1.074.15.2zm-17.514-5.47-3.453-.974-.625-.274 2.827.749h.626c.325 0 10.008 2.822 10.008 2.847l.475.175 2.177.65 2.902.974 1.251.524-2.777-.899 1.676.65-1.776-.55-2.052-.7h-.625l-3.128-.973-2.327-.675 2.928.824-1.276-.35-2.002-.524-4.829-1.448m46.713 26.55-2.076-1.15-.801-1.173.15-1.224-2.502-1.948-3.753-2.023-1.351-1.2-4.754-2.497-2.502-1.573-.726-.85h1.026l3.753 1.799 2.502 1.298 2.978 1.749 1.851.824h.25l-1.05-.774-2.503-1.324-1.926-1.074-2.802-1.673h.525l2.277 1.174 1.701.949h.901l1.852.874 1.176.3-2.202-1.025-2.677-1.223h.35l-.426-.475.926.175 2.502 1.199v-.175l-1.801-.774-3.078-1.449-.375-.3h.776l2.827 1.1 1.676.599 1.602.5 2.702 1.073 3.127 1.549 3.003 1.224 1.876.924h-.475l1.501.874-1.776-.65-1.076-.2 1.501.975 2.002.7 1.676.574 2.202 1.024 1.076.974-1.051-.125-1.651-.35a2.505 2.505 0 0 0-.976 0c.825.9.825.9 2.852 1.923h1.676l1.627.15 3.327 1.399 3.804 2.498h-2.202l3.478 2.497.925 1-1.626-.126-1.801-.3-2.978-1.298-2.252-.774-3.352-1.549-1.927-.824.876.849-1.176-.3.825 1.724h-1.1l-1.727-.35-3.102-1.748-1.126-1.35-1.001-.174-1.902-.474m15.013 5.844-2.728-1.748 3.328 1.074 4.454 1.898-.526.45-2.777-1.174-1.751-.5zm-25.021-18.932-2.502-.824-2.952-1.324-2.778-1.474v-.15l2.502.9-.9-.575-1.301-.7h.25l1.676.45 2.502.974 4.379 1.774 6.755 2.897 9.283 4.096 1.451.974 5.505 2.997-3.879-1.798h-.75l-2.802-1.249c-4.604-2.198-11.76-5.17-11.835-5.17l-4.704-1.673m-57.172 99.581-2.151-1.698 1.701-1.549-1.726-1.673-.976-3.522 4.504-.599.375-2.048h5.004l4.354 2.023 3.002 1.648 2.002-.824-1.552-2.498-5.004-1.473-5.654-1.224-2.803-1.973 3.403-.2 2.953-1.574 4.128-1.049 2.027-2.497 2.301-2.323.501-2.123-1.927-.4-1.126-1.548 1.502-3.597 1.826-3.896 1.802-6.719.125-2.947 5.004 3.946c.5 1.149.976 2.298 1.501 3.447l4.053 1.349 3.278 2.497h3.228l-.301-2.223 1.376-1.623 3.553.774-2.777-3.846c-.851-1.674-1.726-3.322-2.502-4.996l-1.226-2.497 3.553-.125 1.751-1.873.926-2.648 2.502-2.772 2.502 1.349h3.553l.826-.975h4.028l2.952 1.874.401 2.672 3.077 3.647 1.126 2.497.651 3.097h2.227l1.901 3.297 2.502 1.849-1.076 1.448-1.551 2.323 1.576 4.346c.901 1.648 1.802 3.347 2.677 4.995l4.104 3.597 4.654 2.897 4.603.699-.175 4.371a245.897 245.897 0 0 1 2.827 5.795l.251 3.322 1.951 2.722 3.528 3.497 4.529.724.2-4.82.901-4.121c-.576-1.174-1.201-2.348-1.777-3.522l-1.776-4.995-2.552-3.947 4.629-.624h3.527l1.026-1.374 3.578-1.249.175-2.272 1.977-2.498 1.826-2.498 5.78 1.724-.725-2.498-2.377-5.57.975-1.398-.375-2.123-6.08-6.594-6.43-4.996-5.93-4.346-3.978-1.623-4.079-2.248-1.326-2.248 2.227-.849 1.827-1.449-3.178.65-2.302.974-2.001-.55-2.678-2.497-1.651 1.149-2.152-.55-1.926-1.873-1.852-.85-3.027-2.497 1.751-.25 2.227-.2-.475-1.323 1.176-1.424h-1.752l-1.926.95-1.176.848-3.003-.999-3.728-2.273-.3-1.723h-2.102l.401 1.549 2.827 1.823 4.253 3.372a214.095 214.095 0 0 1 3.954 4.196l3.127 1.049 1.151 1.898h-2.277c.526.6 1.051 1.199-.15 1.948l-1.851-.6-2.878-2.272h-3.027l-1.451.275-.976.899h-2.502l-2.227-2.498 2.077-.574-1.402-2.947 2.728-.225.15-2.223 1.501-.45c-.55-.55-1.076-1.099-1.651-1.648l-1.502.4-2.001-1.25-1.051-1.323h-2.327l-2.752-1.923-4.003-1.924-2.252-1.573-.526-1.648-1.876-2.698-2.377-.45-2.752-2.023-.751-1.898.801-.974.575-1.424h-2.727l-1.501-.999-1.727.175-.3 1.074-2.502-.175-2.652-.55-.401-1.797-1.601-.4.526 2.048-1.877.175 1.201 1.998-1.226.35.576 1.523-1.051.75.85 1.948-1.451.774v1.998l1.677 2.498 5.004 2.772 4.528 2.822.851 2.673 4.629.7 1.701-.55h2.352l4.754 2.348 2.027 2.497-3.028.575-2.977-.25-1.802-1.399-1.851-.824-1.502.45-2.702.999-1.051 3.421.501 1.924-.626 2.497h-3.177l-1.501 3.272h-5.005l-2.502 1.474-1.351-2.023 3.203-4.047 1.001-1.873V63.79l-2.502 1.698-4.329 3.048-2.302 1.748c-.5-1-.976-1.973-1.501-2.947l-3.102-2.498 2.076-1.573-1.526-3.897 3.178-1.448 1.426-4.746-2.352-1.324-2.227-1.174-3.153 4.321-.55 2.848-2.502.424-2.652-3.322-3.903-1.224-1.201-1.323h-2.177l-1.677-1.474-.975-2.148h4.203c-.225-.375-.425-.75-.675-1.149l1.401-1.773 1.551-.275 1.952-.874h1.976l-.5-1.499-.275-1.323h3.252l1.176-.125c-.55-.75-1.101-1.499-1.726-2.223h-2.227l-1.977-1.05 2.352-.699-1.076-.899-1.626-.274.4-1.45 1.702-.573-2.077-1.35 1.401-1.023 2.502.15-.7-1.05h1.851l.526-.224-2.678-1.074 1.402-.625 3.402.725-.35-1.774-.951-.974h1.401l-1.351-1.174 1.301-.799h3.003l1.701.95 1.852.249 1.001-.275 2.101 1.2 1.602.149-2.027-1.524-2.852-1.423-1.377-1.799-1.951-1.573h2.502l3.027 1.199 1.777.15 2.502.849 2.927 1.648L306.753 27l2.502 1.224 1.951 2.322 1.577.275-1.301-1.973-3.503-2.498-2.502-1.698-4.004-1.748-3.903-1.424h2.102l2.752.375 5.505 2.072 6.23 2.998 6.255 3.896-1.351.4h-1.276l1.551 1.498 1.176-.3 2.502.65 1.251 1.873h-2.102l-1.701-.524.175 1.174-1.426.999 2.502.699 2.327 1.773.3 1.25 6.23 3.696 4.003 2.647 3.879 2.148.45-.824-2.502-3.122-3.328-1.923-1.101-2.823 4.854 2.323-2.502-3.921.225-.475-3.027-1.998-2.852-2.173.75-.2-2.502-1.773-1.426-1.873h1.776l2.202 1.149 1.076.15 3.953 1.923 1.977 1.523 2.152 1.25 1.451 2.047.375 1.324 3.278 1.973 1.101-.45 2.502 2.248-1.852-.224-3.978-1.674a37.704 37.704 0 0 1 3.178 2.498l6.53 2.498 4.303 3.646-.375-1.898-3.828-2.498h1.276l-3.002-2.298h-1.176l-4.254-3.272-.15-1.773 3.978 2.323 2.953 1.124 1.151 2.498 3.252 1.548 2.753 1.873 5.004.55V46.68l1-.325-1.025-1.898 3.502 1.599 4.479 1.823 2.927 2.348 5.63 3.796-5.004-4.396-.6-1.523 3.152.999 2.727-.425-1.876-1.299-3.028-1.223-1.901-2.123 1.351.25-1.076-1.924-2.302-1.648.35-.225.851.225 2.777 1.498 1.226.475-5.304-3.172 5.404 2.922-.125-.275-6.33-3.671-.7-.5 4.653 2.498 3.178 1.723 1.126.525 2.652 1.349 3.478 1.973-5.004-2.873-1.827-.924-1.776-.899-2.502-1.349-.275-.2 2.702 1.25 3.603 1.898.45.25h.15c9.333 5.444 21.368 13.412 30.375 19.356 14.237 10.14 14.237 10.14 39.907 33.369l4.329 4.421-.776-.775 1.527 1.624 2.502 2.622.725.95 2.502 2.497 1.151 1.574 2.277 2.497.551.875v.274l2.502 2.848 2.301 2.947 2.828 3.497 2.502 3.296-.275.25 2.952 3.971 2.177 3.672 1.851 2.772.726 1.999.15 1.348v.949l1.376 2.173.826 2.698.725 2.298 2.678 5.42c.875 1.423 1.801 2.897 2.677 4.345l-1.001-2.672-1.501-3.497-1.276-2.248-.551-2.048v-.799l-2.252-3.597.676.15-.701-1.673-.175-.799v-.55l.776.55 1.601 2.797.626 1.648 1.101 2.373 1.276 3.772 2.151 4.221 2.778 5.445 2.627 4.545 3.528 6.045c1.251 2.297 2.502 4.62 3.653 6.943l1.376 1.748c.775 1.549 1.526 3.098 2.327 4.646l1.676 4.771 2.502 4.745 1.451 3.697.876 3.147 2.077 4.845.875 3.946.2 3.122 1.752 6.869v2.722l1.001 3.597.4 4.096-1.426-.2-.225 2.698-1.026 2.173-.25 3.571.85 4.496.451 4.496.925 7.493-.5 3.147-.751 3.672v2.697l1.702 2.498-.175 3.222-1.076 2.847-1.526 3.172-.726 3.522.651 2.947-.126 2.498-1.526 1.548-1.276 3.222-.901 2.748.226 3.371-1.101-1.199-.626-3.721.275-4.146 1.377-1.574-.226-3.646 1.326-2.897v-9.067l.901-3.197-.4-4.346 1.151-1.249-.3-5.345.525-4.47-1.201-5.995-1.276-.375-1.351 1.674-.3 3.147 1.05 5.145-.625 6.694-1.176 5.32-1.326 3.696-.851 3.772.275 4.421-1.901 2.497-1.151 4.096-.826 4.396-2.227 6.045-.825 5.469-1.351 2.498 1.651 2.123.651 3.472-2.978 4.995-2.502 4.146-3.378 1.824-3.578 3.871-4.378 3.247-5.004 4.071-4.204 1.823-2.752-.424-.826-2.373-3.152-.724-3.578 2.747-4.078 4.746-2.302 3.971h-4.679l-1.952 1.074-2.251 4.246-4.354 1.873v-2.897l-2.502 1.648c-7.756 13.637-7.756 13.637-7.306 16.41l-1.601 2.248-1.777-1.199-2.502 1.598c-5.354 6.095-5.354 6.095-7.756 5.77l-6.806 4.021-3.653 1.898.626-4.495-1.526-2.898-6.255.4-.876 2.822-2.027-.299-.876-3.747 2.502-3.372 6.481.175 4.178-.175 6.105-.399 2.928-2.498 4.128-5.295v-4.321c0-1.923.175-3.821.225-5.745l-1.026-7.268v-4.995l1.752-3.846 3.753-2.498 5.554.774 3.853-1.049 4.179 2.498 2.752-2.498-2.502-3.022v-5.37l-1.026-3.272-1.526-5.245c0-1.923-.175-3.871-.25-5.794l-2.502-2.373-.626-4.321 1.702-1.624 5.954.775 3.703.974 1.777 4.096 1.751 6.094 1.902 5.57 3.002.699 4.229 1.923 4.328 1.074 1.852-3.996 3.352-2.697 1.026-4.571 2.027-5.919.55-10.166-.2-7.343-2.277-5.72-1.651-6.469.701-6.543-3.954-6.469-2.502-.4-3.102-3.397-3.303-3.821-3.553.649-2.502 1.224-2.502-1.448-1.276 3.446h-3.328l-2.652-.399.125-2.673-1.676-4.371-4.103-.574-3.003-.65-5.379.575-1.551 3.746h-1.827l-1.551-2.198-1.702-.599-2.151 3.172-1.927 3.996c.225 1.574.425 3.122.626 4.696l-1.101 2.697-.275 3.022-1.652 2.173-.7 3.272-2.202 1.599.15 3.621-2.102.775-1.576-2.498-1.426-3.946.775-4.721.476-7.118 2.026-6.219c-.375-2.723-.8-5.445-1.651-9.466a217.859 217.859 0 0 0-1.952-4.321l-3.352-5.97-3.953-1.923-5.155-4.596-4.754-3.496-4.303-1.923-1.326-3.372-3.578-2.173 1.526-5.62 1.376-2.498-1.526-3.072 1.126-2.722-3.453-1.848-1.676 3.996-2.502-4.071-2.502-3.547-2.502-2.298-3.778-7.493h-5.93l-4.354-2.497-4.578-.575.425-2.922-1.251-6.02-4.179-4.645h-3.527l-1.802-2.498-4.654.15-5.004-2.498-3.553-3.546c-8.031-.3-8.031-.3-10.658 1.274.5.349 1.151.799 1.626 1.198a45.905 45.905 0 0 1 6.43.35c4.104 2.722 4.104 2.722 4.254 6.094l-2.302 1.174-3.328-2.497-2.502-1.424-4.203-1.249-4.554-2.348-4.429-.974-4.128-3.996-3.853-2.797-1.101-3.172 4.679 1.124 4.053 4.995 5.179.275 3.703-2.024 3.478-3.421.751-5.87-4.404-3.047-1.026-4.646 5.33-.349 6.355 1.823 7.506 3.896 8.081 6.419 5.955 3.747-2.927-3.472-4.028-3.696-2.502-1.799 4.403-1.274h-6.105l-2.502-3.172-4.253-2.922-4.129-.25-2.752-3.546-3.803-1.349h-5.354l-10.008-.3-4.879.825-4.079-.25-4.679-2.848-4.503-3.871-6.556-.899-3.653-1.299" fill="#fff"/></mask><g mask="url(#a)" stroke="#B0D5FF" stroke-width=".4" stroke-miterlimit="10"><path d="M464.506 92.163c170.239 159.85 170.239 319.7 0 479.549"/><path d="M459.302 87.343c166.803 163.08 166.803 326.151 0 489.215"/><path d="M454.098 82.622c163.25 166.227 163.25 332.446 0 498.656"/><path d="M448.894 78.001c159.78 169.308 159.78 338.607 0 507.898"/><path d="M443.664 73.48c156.328 172.322 156.328 344.66 0 517.014"/><path d="M438.46 69.06c152.841 175.269 152.841 350.529 0 525.781"/><path d="M433.156 64.689c149.371 178.166 149.371 356.332 0 534.497"/><path d="M428.152 60.543c145.818 180.93 145.818 361.876 0 542.84"/><path d="M422.822 56.422c142.45 183.677 142.45 367.371 0 551.082"/><path d="M417.618 52.376c138.963 186.374 138.963 372.757 0 559.149"/><path d="M412.414 48.454c135.46 189.006 135.46 377.995 0 566.967"/><path d="M407.185 44.708c132.007 191.486 132.007 383.031 0 574.634"/><path d="M401.98 40.911c128.538 194.018 128.538 388.044 0 582.078"/><path d="M396.776 37.215c125.102 196.482 125.102 392.964 0 589.446"/><path d="M391.572 33.768c121.566 198.797 121.566 397.585 0 596.364"/><path d="M386.343 30.346c118.112 201.061 118.112 402.13 0 603.208"/><path d="M381.138 27.024c114.644 203.276 114.644 406.568 0 609.877"/><path d="M375.934 23.802c111.157 205.424 111.157 410.864 0 616.321"/><path d="M370.605 20.655c107.771 207.522 107.771 415.052 0 622.59"/><path d="M365.601 17.633c104.168 209.537 104.168 419.081 0 628.634"/><path d="M360.296 14.736c100.732 211.468 100.732 422.936 0 634.403"/><path d="M355.092 11.889c97.263 213.366 97.263 426.749 0 640.148"/><path d="M349.863 9.141c93.81 215.198 93.81 430.404 0 645.618"/><path d="M344.659 6.519c90.323 216.946 90.323 433.908 0 650.888"/><path d="M339.454 3.996c86.838 218.628 86.838 437.272 0 655.933"/><path d="M334.25 1.548c83.401 220.277 83.401 440.545 0 660.804"/><path d="M329.021-.774c79.915 221.808 79.915 443.633 0 665.474"/><path d="M323.817-3.022c76.429 223.306 76.429 446.621 0 669.945"/><path d="M318.612-5.245c73.027 224.789 73.027 449.577 0 674.366"/><path d="M313.408-7.193c69.457 226.12 69.457 452.216 0 678.287"/><path d="M308.054-9.117c66.104 227.37 66.104 454.756 0 682.159"/><path d="M303.05-10.965c62.467 228.602 62.467 457.212 0 685.83"/><path d="M297.77-12.738c59.048 229.784 59.048 459.568 0 689.352"/><path d="M292.541-14.337c55.595 230.85 55.595 461.708 0 692.574"/><path d="M287.337-15.885a1567.21 1567.21 0 0 1 0 695.671"/><path d="M282.133-17.31a1690.295 1690.295 0 0 1 0 698.544"/><path d="M276.928-18.658a1831.527 1831.527 0 0 1 0 701.216"/><path d="M271.699-19.907a1994.482 1994.482 0 0 1 0 703.714"/><path d="M266.495-21.03a2188.578 2188.578 0 0 1 0 705.986"/><path d="M261.291-22.08a2419.095 2419.095 0 0 1 0 708.06"/><path d="M256.086-23.029a2699.847 2699.847 0 0 1 0 709.958"/><path d="M250.857-23.878a3046.938 3046.938 0 0 1 0 711.656"/><path d="M245.653-24.602a3494.27 3494.27 0 0 1 0 713.129"/><path d="M240.499-25.227a4089.414 4089.414 0 0 1 0 714.329"/><path d="M235.244-25.8a4920.076 4920.076 0 0 1 0 715.502"/><path d="M230.015-26.25a6153.76 6153.76 0 0 1 0 716.401"/><path d="M224.811-26.6a8199.147 8199.147 0 0 1 0 717.101"/><path d="M219.607-26.85a12342.649 12342.649 0 0 1 0 717.6M214.402-27a24877.268 24877.268 0 0 1 0 717.9M209.173-27.05v718M203.969-27a24641.793 24641.793 0 0 0 0 717.9M198.765-26.85a12340.875 12340.875 0 0 0 0 717.6"/><path d="M193.561-26.6a8211.698 8211.698 0 0 0 0 717.101"/><path d="M188.331-26.25a6165.262 6165.262 0 0 0 0 716.401"/><path d="M183.127-25.8a4920.359 4920.359 0 0 0 0 715.502"/><path d="M177.948-25.227a4089.414 4089.414 0 0 0 0 714.329"/><path d="M172.693-24.602a3497.847 3497.847 0 0 0 0 713.129"/><path d="M167.489-23.878a3049.771 3049.771 0 0 0 0 711.656"/><path d="M162.285-23.029a2697.793 2697.793 0 0 0 0 709.958"/><path d="M157.081-22.08a2417.305 2417.305 0 0 0 0 708.06"/><path d="M151.852-21.03a2188.522 2188.522 0 0 0 0 705.986"/><path d="M146.647-19.907a1995.66 1995.66 0 0 0 0 703.714"/><path d="M141.443-18.658a1831.547 1831.547 0 0 0 0 701.216"/><path d="M136.239-17.31a1690.27 1690.27 0 0 0 0 698.544"/><path d="M131.01-15.885a1567.927 1567.927 0 0 0 0 695.671"/><path d="M125.805-14.337c-55.595 230.866-55.595 461.724 0 692.574"/><path d="M120.601-12.738c-59.081 229.784-59.081 459.568 0 689.352"/><path d="M115.397-10.965c-62.551 228.602-62.551 457.212 0 685.83"/><path d="M110.167-9.117c-66.003 227.387-66.003 454.773 0 682.159"/><path d="M104.963-7.193c-69.49 226.12-69.49 452.216 0 678.287"/><path d="M99.759-5.245c-72.976 224.789-72.976 449.577 0 674.366"/><path d="M94.53-3.022c-76.412 223.323-76.412 446.638 0 669.945"/><path d="M89.326-.774c-79.899 221.808-79.899 443.633 0 665.474"/><path d="M84.121 1.548C.72 221.825.72 442.093 84.121 662.352"/><path d="M78.917 3.971c-86.837 218.661-86.837 437.314 0 655.959"/><path d="M73.688 6.519c-90.324 216.946-90.324 433.908 0 650.888"/><path d="M68.484 9.141c-93.827 215.198-93.827 430.404 0 645.618"/><path d="M63.28 11.889C-34 225.27-34 438.654 63.28 652.037"/><path d="M58.075 14.736c-100.765 211.468-100.765 422.936 0 634.403"/><path d="M52.846 17.633c-104.219 209.537-104.219 419.081 0 628.634"/><path d="M47.642 20.655c-107.688 207.539-107.688 415.068 0 622.59"/><path d="M42.437 23.802c-111.174 205.44-111.174 410.881 0 616.321"/><path d="M37.208 27.024c-114.677 203.276-114.677 406.568 0 609.877"/><path d="M32.004 30.346c-118.096 201.061-118.096 402.13 0 603.208"/><path d="M26.8 33.768c-121.583 198.797-121.583 397.585 0 596.364"/><path d="M21.595 37.215c-125.102 196.482-125.102 392.964 0 589.446"/><path d="M16.366 40.911c-128.521 194.034-128.521 388.06 0 582.078"/><path d="M11.162 44.708c-132.008 191.486-132.008 383.031 0 574.634"/><path d="M5.958 48.454c-135.478 189.006-135.478 377.995 0 566.967"/><path d="M.753 52.376c-138.963 186.408-138.963 372.791 0 559.149"/></g></g></svg>