<svg width="302" height="225" viewBox="0 0 302 225" fill="none" xmlns="http://www.w3.org/2000/svg">
<path opacity="0.1" d="M301.066 2.08513H110.566C101.066 1.2518 81.6661 6.18513 80.0661 32.5851C77.5661 51.5852 78.0656 55.5852 39.0661 54.0852C17.0825 53.2397 -4.9344 81.5852 4.06559 107.585C13.0656 133.585 24.5661 143.085 55.0661 143.085C79.4661 143.085 102.233 143.085 110.566 143.085C119.233 142.919 136.566 149.185 136.566 175.585C136.566 208.585 173.566 205.085 191.566 205.085C205.966 205.085 270.566 205.085 301.066 205.085" stroke="#0044EB" stroke-width="3"/>
<g filter="url(#filter0_d_833_298)">
<circle cx="236.566" cy="205.585" r="8" fill="#0044EB"/>
</g>
<defs>
<filter id="filter0_d_833_298" x="221.366" y="194.385" width="30.4" height="30.4" filterUnits="userSpaceOnUse" color-interpolation-filters="sRGB">
<feFlood flood-opacity="0" result="BackgroundImageFix"/>
<feColorMatrix in="SourceAlpha" type="matrix" values="0 0 0 0 0 0 0 0 0 0 0 0 0 0 0 0 0 0 127 0" result="hardAlpha"/>
<feOffset dy="4"/>
<feGaussianBlur stdDeviation="3.6"/>
<feComposite in2="hardAlpha" operator="out"/>
<feColorMatrix type="matrix" values="0 0 0 0 0.00784314 0 0 0 0 0.0313726 0 0 0 0 0.258824 0 0 0 0.28 0"/>
<feBlend mode="normal" in2="BackgroundImageFix" result="effect1_dropShadow_833_298"/>
<feBlend mode="normal" in="SourceGraphic" in2="effect1_dropShadow_833_298" result="shape"/>
</filter>
</defs>
</svg>
