<svg viewBox="0 0 24 30" fill="none" xmlns="http://www.w3.org/2000/svg"><path d="M12 15A7.438 7.438 0 1 0 12 .125 7.438 7.438 0 0 0 12 15z" fill="url(#favorite_icon_a)"/><path fill-rule="evenodd" clip-rule="evenodd" d="M11.408 29.694C6.872 26.6 3.1 22.386.41 17.406a.883.883 0 0 1-.063-.654.819.819 0 0 1 .401-.499l5.26-2.758c.367-.192.811-.047 1.016.332 2.659 4.764 6.59 8.568 11.289 10.923a34.21 34.21 0 0 1-5.723 4.944 1.056 1.056 0 0 1-1.183 0z" fill="url(#favorite_icon_b)"/><path fill-rule="evenodd" clip-rule="evenodd" d="M12.591 29.694c4.536-3.092 8.309-7.307 10.997-12.288a.883.883 0 0 0 .064-.653.82.82 0 0 0-.398-.5l-5.263-2.758c-.368-.192-.812-.047-1.016.332-2.659 4.764-6.59 8.569-11.29 10.923a34.003 34.003 0 0 0 5.723 4.944c.362.241.821.241 1.183 0z" fill="#0044EB"/><defs><linearGradient id="favorite_icon_a" x1="12" y1="2.597" x2="12" y2="17.868" gradientUnits="userSpaceOnUse"><stop stop-color="#2684FF"/><stop offset=".82" stop-color="#0044EB"/></linearGradient><linearGradient id="favorite_icon_b" x1="7.725" y1="17.406" x2="11.817" y2="28.348" gradientUnits="userSpaceOnUse"><stop stop-color="#2684FF"/><stop offset=".62" stop-color="#0248F3" stop-opacity=".69"/></linearGradient></defs></svg>