<svg width="46" height="51" viewBox="0 0 46 51" fill="none" xmlns="http://www.w3.org/2000/svg">
<path d="M22.2125 9.19335C22.171 9.19854 22.1347 9.2089 22.0932 9.21409L22.2125 9.19335ZM21.5021 9.33334C21.5487 9.32297 21.5954 9.3126 21.6421 9.30223C21.5954 9.3126 21.5487 9.32297 21.5021 9.33334ZM29.1882 14.1396C23.2322 12.0087 16.6199 14.9899 14.2937 20.9212C14.0912 21.4345 13.9301 21.9582 13.8054 22.4766L9.1651 22.4144C9.35237 21.3619 9.64333 20.3094 10.0484 19.2725C10.5832 17.9141 11.2735 16.6646 12.1037 15.5447C12.9599 14.3833 13.9559 13.3567 15.0556 12.4753L10.6169 4.67745C12.3442 3.29831 13.1273 2.99759 15.1394 2.11619C17.1516 1.23478 19.2777 0.617799 21.4607 0.285975C23.6126 -0.0406629 25.8265 -0.0925102 28.0402 0.156357C30.1814 0.394855 32.3275 0.918513 34.4269 1.74289C36.5262 2.56726 38.4543 3.6405 40.1904 4.91594C41.9836 6.23805 43.5744 7.77792 44.9318 9.47851C45.108 9.70146 45.2841 9.92958 45.4602 10.1681H39.5341C38.9123 9.57702 38.2489 9.01707 37.5441 8.4986C36.1138 7.4461 34.5277 6.56469 32.7964 5.88549C31.0703 5.21147 29.3078 4.78114 27.5451 4.58412C25.7202 4.37673 23.9003 4.42339 22.127 4.693C20.3277 4.96779 18.3779 5.56404 16.7235 6.2899L18.9922 10.1577C19.7856 9.81033 20.5013 9.57184 21.2584 9.39037C24.4422 8.58674 27.9004 8.73191 31.1868 10.0177C31.3112 10.0644 31.4356 10.1162 31.5548 10.1681L29.1882 14.1396ZM45.6138 40.0425C45.5827 40.084 45.5515 40.1307 45.5204 40.1721C44.2388 41.9038 42.7135 43.5007 40.9499 44.911C39.1862 46.3212 37.2932 47.4515 35.3173 48.3174C33.274 49.2143 31.1479 49.8209 28.9908 50.1424C26.8079 50.4742 24.2259 50.469 22.0432 50.2253C20.996 50.0905 19.9592 49.8935 18.9379 49.6343L21.3097 45.6006C21.8696 45.7094 22.4295 45.7924 22.9946 45.8494C24.7884 46.0516 26.5253 46.0102 28.3246 45.7354C30.0979 45.4658 31.8506 44.968 33.5309 44.2318C35.1542 43.5215 36.7153 42.5882 38.1677 41.4268C38.7228 40.9861 39.2467 40.5195 39.7395 40.0373H45.6138L45.6138 40.0425ZM9.32728 28.7865C9.23935 28.4287 9.16698 28.0554 9.105 27.6614C9.06884 27.4332 9.03786 27.1999 9.01726 26.9666L13.6265 27.0288C14.2567 31.0107 16.9195 34.5623 20.942 36.1384C23.9018 37.2946 27.0438 37.1702 29.7561 36.0347L31.9987 40.0425C31.9157 40.0788 31.8327 40.1203 31.7446 40.1566C30.4688 40.7165 29.0998 41.1158 27.6531 41.3335C26.2117 41.5513 24.7807 41.5772 23.3964 41.4217C21.9655 41.2609 20.5762 40.9136 19.2648 40.4003L14.7288 48.1515C12.6709 47.3426 12.018 46.819 10.2559 45.5176C8.48867 44.2162 6.89267 42.6867 5.51455 40.9602C4.15196 39.2596 3.00724 37.3724 2.11667 35.3244C1.25716 33.349 0.63623 31.2337 0.300533 28.999C-0.0351674 26.7696 -0.0701658 24.5609 0.169587 22.4196C0.414568 20.2057 0.955039 18.0592 1.75468 16.032C2.5647 13.9737 3.85701 11.7442 5.15941 9.97625C5.79763 9.13632 6.48767 8.33787 7.22434 7.5809L9.52916 11.6509C9.15561 12.0812 8.80279 12.5271 8.46551 12.9886C7.39141 14.4455 6.56096 15.9646 5.89632 17.66C5.24207 19.3295 4.79515 21.0975 4.59187 22.9225C4.39382 24.6853 4.42386 26.5052 4.69757 28.3406C4.97647 30.176 5.48355 31.9232 6.19291 33.5461C6.92816 35.2259 7.87087 36.7813 8.99513 38.1864C10.1298 39.607 11.6221 40.9965 13.0784 42.0646L15.2998 38.1657C14.1596 37.3257 13.372 36.5221 12.4809 35.4074L15.9615 32.6284L12.4913 35.3815C10.9422 33.4372 9.85473 31.1611 9.31175 28.7398L9.32728 28.7865ZM9.40487 29.0872C9.39452 29.0509 9.38418 29.0146 9.37383 28.9731C9.38418 29.0094 9.39452 29.0509 9.40487 29.0872ZM9.65327 29.896C9.64292 29.8597 9.62738 29.8234 9.61703 29.7923C9.62738 29.8286 9.63773 29.8597 9.65327 29.896Z" fill="#0E50F2"/>
</svg>
