<svg width="124" height="30" fill="none" xmlns="http://www.w3.org/2000/svg"><path d="M34.296 26V5.308h4.172V26h-4.172zm18.58-4.004 1.176 3.108c-1.26.84-2.744 1.26-4.508 1.26-3.5 0-5.32-2.072-5.32-6.02v-6.3h-2.492V10.74h2.52V5.336h3.92v5.404h5.04v3.304h-5.04v6.048c0 1.792.728 2.688 2.156 2.688.756 0 1.624-.252 2.548-.784zM61.134 26H56.99V5.308h13.804v3.92h-9.66v4.648h8.484v3.892h-8.484V26zM77.865 4.72V26h-3.948V4.72h3.948zm3.293 13.636c0-2.24.755-4.144 2.296-5.684 1.54-1.568 3.5-2.352 5.88-2.352s4.34.784 5.88 2.352c1.54 1.54 2.296 3.444 2.296 5.684 0 2.268-.757 4.172-2.297 5.712s-3.5 2.324-5.88 2.324-4.34-.784-5.88-2.324c-1.54-1.54-2.296-3.444-2.296-5.712zm5.151 3.108c.813.84 1.82 1.26 3.025 1.26 1.203 0 2.183-.42 2.995-1.26.813-.868 1.233-1.904 1.233-3.108 0-1.204-.42-2.24-1.233-3.08-.811-.84-1.791-1.26-2.995-1.26-1.205 0-2.213.42-3.025 1.26-.811.84-1.203 1.876-1.203 3.08 0 1.204.392 2.24 1.204 3.108zm21.16 4.508h-3.444L98.817 10.74h4.144l3.052 9.996 3.444-9.996h2.772l3.556 9.996 2.968-9.996h4.144l-5.152 15.232h-3.444l-3.444-9.548-3.388 9.548z" fill="#020842"/><path d="M12 15A7.438 7.438 0 1 0 12 .125 7.438 7.438 0 0 0 12 15z" fill="url(#site_logo_a)"/><path fill-rule="evenodd" clip-rule="evenodd" d="M11.408 29.694C6.872 26.6 3.1 22.386.41 17.406a.883.883 0 0 1-.063-.654.819.819 0 0 1 .401-.499l5.26-2.758c.367-.192.811-.047 1.016.333 2.659 4.763 6.59 8.567 11.289 10.922a34.21 34.21 0 0 1-5.723 4.944 1.057 1.057 0 0 1-1.183 0z" fill="url(#site_logo_b)"/><path fill-rule="evenodd" clip-rule="evenodd" d="M12.591 29.694c4.536-3.092 8.309-7.307 10.997-12.288a.883.883 0 0 0 .064-.653.82.82 0 0 0-.398-.5l-5.264-2.758c-.367-.192-.811-.047-1.015.333-2.659 4.764-6.59 8.568-11.29 10.922a34.006 34.006 0 0 0 5.723 4.944c.362.241.821.241 1.183 0z" fill="#0044EB"/><defs><linearGradient id="site_logo_a" x1="12" y1="2.597" x2="12" y2="17.868" gradientUnits="userSpaceOnUse"><stop stop-color="#2684FF"/><stop offset=".82" stop-color="#0044EB"/></linearGradient><linearGradient id="site_logo_b" x1="7.725" y1="17.406" x2="11.817" y2="28.348" gradientUnits="userSpaceOnUse"><stop stop-color="#2684FF"/><stop offset=".62" stop-color="#0248F3" stop-opacity=".69"/></linearGradient></defs></svg>