<svg width="18" height="21" viewBox="0 0 18 21" fill="none" xmlns="http://www.w3.org/2000/svg">
<path d="M2.12918 11.2582L1.61061 10.7397C1.50094 10.63 1.4406 10.4844 1.4406 10.3293C1.4406 10.1741 1.50093 10.0286 1.61061 9.91886C1.61061 9.91885 1.61062 9.91885 1.61062 9.91885L9.04877 2.4807L2.12918 11.2582ZM2.12918 11.2582L9.3473 4.03997C9.71386 3.67338 10.2014 3.4714 10.7199 3.4714H15.2988V2.89106C15.2988 2.5711 15.0384 2.31072 14.7185 2.31072H9.45918C9.30405 2.31072 9.15849 2.37105 9.04878 2.48069L2.12918 11.2582ZM2.87134 12.4402L10.3095 5.00206L10.3095 5.00205C10.4192 4.89241 10.5648 4.83208 10.7199 4.83208H15.9792C16.2991 4.83208 16.5595 5.09246 16.5595 5.41242V10.6716C16.5595 10.8267 16.4992 10.9723 16.3896 11.082L8.95135 18.5202C8.72503 18.7465 8.35683 18.7464 8.13062 18.5202L2.87133 13.2611C2.76165 13.1514 2.70132 13.0058 2.70132 12.8507C2.70132 12.6955 2.76164 12.55 2.87133 12.4403C2.87133 12.4403 2.87134 12.4402 2.87134 12.4402ZM16.6596 3.59486V2.89106C16.6596 1.82071 15.7889 0.95 14.7185 0.95H9.45914C8.94071 0.95 8.45314 1.15199 8.08659 1.51858L0.648459 8.95674C0.281868 9.3233 0.0798828 9.8109 0.0798828 10.3293C0.0798828 10.8477 0.281868 11.3353 0.648461 11.7019L1.38484 12.4382C1.35591 12.5723 1.34064 12.7103 1.34064 12.8507C1.34064 13.3691 1.54262 13.8567 1.90921 14.2233L7.16847 19.4824C7.5469 19.8608 8.04407 20.05 8.54098 20.05C9.0379 20.05 9.53507 19.8608 9.9135 19.4823L17.3517 12.0441C17.7183 11.6776 17.9203 11.19 17.9203 10.6716V5.41245C17.9203 4.58129 17.3951 3.87106 16.6596 3.59486Z" fill="#0044EB" stroke="#0044EB" stroke-width="0.1"/>
<path d="M13.2232 6.77734C12.2353 6.77734 11.4316 7.58102 11.4316 8.56887C11.4316 9.55673 12.2353 10.3604 13.2232 10.3604C14.211 10.3604 15.0147 9.55673 15.0147 8.56887C15.0147 7.58102 14.211 6.77734 13.2232 6.77734ZM13.2232 9.16607C12.8939 9.16607 12.626 8.89818 12.626 8.56891C12.626 8.23963 12.8939 7.97174 13.2232 7.97174C13.5524 7.97174 13.8203 8.23963 13.8203 8.56891C13.8203 8.89818 13.5524 9.16607 13.2232 9.16607Z" fill="#0044EB"/>
</svg>
