<svg viewBox="0 0 36 36" fill="none" xmlns="http://www.w3.org/2000/svg">
<path d="M29.8993 28.1754C28.8046 28.5595 27.6265 28.7684 26.3993 28.7684C20.6003 28.7684 15.8993 24.1028 15.8993 18.3474C15.8993 12.592 20.6003 7.92633 26.3993 7.92633C27.6265 7.92633 28.8046 8.13527 29.8993 8.51932V7.57896C29.8993 3.74203 26.7653 0.631592 22.8993 0.631592H6.93262C7.71714 1.44297 8.1993 2.54455 8.1993 3.75791V34.4205C8.1993 34.9749 8.82132 35.3059 9.28658 34.9992L10.6631 34.0919C10.7555 34.0307 10.8707 34.0175 10.9735 34.0536C10.9882 34.0589 11.0027 34.0648 11.0168 34.0721L12.7577 34.9603C13.2598 35.2163 13.8557 35.2163 14.3578 34.9603L16.1213 34.0606C16.2218 34.0095 16.3409 34.0095 16.4413 34.0606L18.2049 34.9603C18.707 35.2163 19.3028 35.2163 19.805 34.9603L21.5685 34.0606C21.6689 34.0095 21.7881 34.0095 21.8885 34.0606L23.6521 34.9603C24.1542 35.2163 24.75 35.2163 25.2522 34.9603L26.9963 34.0707C27.1073 34.0137 27.2404 34.0203 27.3455 34.0873L28.8209 35.028C29.2868 35.3254 29.8993 34.9933 29.8993 34.4437V28.1754Z" fill="#0044EB"/>
<path fill-rule="evenodd" clip-rule="evenodd" d="M29.8998 26.6866C30.3896 26.4839 30.8578 26.2399 31.2998 25.959C33.8258 24.3541 35.4998 21.5447 35.4998 18.3473C35.4998 15.1498 33.8258 12.3404 31.2998 10.7355C30.8578 10.4546 30.3896 10.2106 29.8998 10.0079C28.8224 9.56192 27.6401 9.31567 26.3998 9.31567C21.374 9.31567 17.2998 13.3593 17.2998 18.3473C17.2998 23.3353 21.374 27.3788 26.3998 27.3788C27.6401 27.3788 28.8224 27.1326 29.8998 26.6866ZM26.7498 19.3894C25.9766 19.3894 25.3498 18.7673 25.3498 17.9999V14.5262C25.3498 14.1425 25.6632 13.8315 26.0498 13.8315C26.4364 13.8315 26.7498 14.1425 26.7498 14.5262V17.9999H30.2498C30.6364 17.9999 30.9498 18.3109 30.9498 18.6946C30.9498 19.0783 30.6364 19.3894 30.2498 19.3894H26.7498Z" fill="#0044EB"/>
<path d="M3.71031 0.632374C5.42219 0.664298 6.8 2.05151 6.8 3.75813V11.0542C6.79927 11.4373 6.48616 11.7476 6.1 11.7476H1.2C1.17585 11.7476 1.15194 11.7464 1.12843 11.744C0.77545 11.7085 0.5 11.4126 0.5 11.0529V3.75813C0.5 2.03008 1.97399 0.600017 3.71031 0.632374Z" fill="#0044EB"/>
</svg>
