<svg width="50" height="50" viewBox="0 0 50 50" fill="none" xmlns="http://www.w3.org/2000/svg">
<g clip-path="url(#clip0_748_1217)">
<path d="M24.753 9.26462C22.4427 10.8895 19.8242 12.7312 18.4212 15.7782C15.9843 21.0942 23.4077 26.8927 23.725 27.137C23.7987 27.1937 23.887 27.222 23.975 27.222C24.0685 27.222 24.162 27.1901 24.238 27.1264C24.3854 27.0032 24.4272 26.7938 24.3387 26.6233C24.3118 26.5715 21.6472 21.3957 21.7462 17.6826C21.7813 16.3894 23.5911 14.9223 25.5072 13.369C27.262 11.9464 29.2513 10.334 30.4152 8.44772C32.9703 4.29575 30.1304 0.213122 30.1014 0.172301C29.9886 0.0139022 29.7804 -0.0434223 29.6024 0.0346054C29.4246 0.113121 29.326 0.305407 29.3666 0.495545C29.3724 0.522596 29.9247 3.22241 28.3879 6.00396C27.7549 7.15338 26.3639 8.13171 24.753 9.26462Z" fill="#DB380E"/>
<path d="M34.4868 11.0955C34.6498 10.9728 34.6977 10.7488 34.5991 10.5701C34.5004 10.3914 34.2856 10.3126 34.0947 10.3851C33.7023 10.5343 24.4838 14.0877 24.4838 18.3812C24.4838 21.3409 25.748 22.9043 26.6712 24.0461C27.0333 24.494 27.3459 24.8807 27.4489 25.2109C27.739 26.1624 27.0518 27.8821 26.7629 28.4645C26.6796 28.6319 26.7204 28.8348 26.8621 28.9571C26.9387 29.0232 27.0343 29.0568 27.13 29.0568C27.2114 29.0568 27.2932 29.0326 27.364 28.9834C27.5224 28.8732 31.2377 26.2465 30.5714 23.0817C30.3231 21.8788 29.732 20.9998 29.2104 20.2243C28.4024 19.0226 27.8188 18.1546 28.7042 16.5515C29.7415 14.6816 34.4393 11.1311 34.4868 11.0955Z" fill="#DB380E"/>
<path d="M10.4896 29.1247C10.3316 29.5979 10.4062 30.0672 10.7052 30.4824C11.7045 31.8698 15.2442 32.6337 20.6728 32.6337C20.6731 32.6337 20.6733 32.6337 20.6735 32.6337C21.409 32.6337 22.1856 32.6193 22.981 32.5907C31.6602 32.2801 34.8794 29.5762 35.0122 29.4612C35.1569 29.3359 35.1956 29.1274 35.1057 28.9586C35.0156 28.7899 34.8216 28.7052 34.6361 28.7563C31.5794 29.5908 25.8716 29.8871 21.9126 29.8871C17.4826 29.8871 15.2266 29.568 14.6742 29.3323C14.9576 28.9432 16.7057 28.2482 18.8718 27.8222C19.0788 27.7815 19.2211 27.5903 19.2006 27.3804C19.1801 27.1704 19.0037 27.0103 18.7927 27.0103C17.523 27.0103 11.1553 27.1122 10.4896 29.1247Z" fill="#73A1FB"/>
<path d="M39.5321 26.3397C37.742 26.3397 36.0444 27.237 35.9729 27.275C35.8074 27.3637 35.7234 27.5535 35.7688 27.7359C35.8144 27.9181 35.9782 28.0461 36.166 28.0463C36.204 28.0463 39.9845 28.0772 40.3269 30.2373C40.6302 32.1008 36.7499 35.1201 35.229 36.1264C35.0648 36.2351 35.001 36.445 35.0773 36.6267C35.1422 36.7813 35.2927 36.8779 35.455 36.8779C35.4833 36.8779 35.5121 36.875 35.5406 36.869C35.9015 36.7917 44.3693 34.9257 43.474 29.9955C42.9278 26.974 41.0288 26.3397 39.5321 26.3397Z" fill="#73A1FB"/>
<path d="M33.7249 35.5231C33.7544 35.3652 33.6887 35.2045 33.5572 35.1122L31.5268 33.6901C31.4278 33.6207 31.3027 33.5989 31.1865 33.6297C31.1653 33.6351 29.0421 34.1933 25.9594 34.5356C24.736 34.6728 23.3657 34.7452 21.9963 34.7452C18.9145 34.7452 16.8994 34.3831 16.606 34.1175C16.5671 34.0429 16.5794 34.009 16.5863 33.9902C16.6397 33.8419 16.9254 33.6657 17.1096 33.596C17.313 33.5207 17.4227 33.2998 17.3594 33.0924C17.2963 32.8847 17.0823 32.7625 16.8712 32.8132C14.8345 33.3047 13.8386 33.992 13.911 34.856C14.0397 36.3878 17.5878 37.1741 20.5873 37.3819C21.0187 37.4114 21.4852 37.4263 21.9736 37.4263C21.9739 37.4263 21.9741 37.4263 21.9743 37.4263C26.9621 37.4263 33.3562 35.8614 33.4201 35.8454C33.5763 35.8073 33.6953 35.6813 33.7249 35.5231Z" fill="#73A1FB"/>
<path d="M18.4174 38.8106C18.5712 38.7106 18.6393 38.5204 18.5848 38.3454C18.5304 38.1703 18.3666 38.0552 18.1826 38.0577C17.9097 38.0649 15.5118 38.1731 15.3439 39.6997C15.2931 40.156 15.4238 40.5729 15.7325 40.9386C16.5934 41.9589 18.9175 42.5654 22.8361 42.7925C23.2997 42.8204 23.7706 42.8343 24.2359 42.8343C29.2179 42.8343 32.5732 41.2745 32.7137 41.2081C32.8499 41.1436 32.9398 41.0097 32.9478 40.8593C32.9558 40.7089 32.8807 40.5663 32.7522 40.4876L30.1863 38.9212C30.0972 38.8669 29.9907 38.849 29.8891 38.8698C29.8729 38.8732 28.2437 39.2111 25.785 39.5449C25.3197 39.6081 24.7371 39.6403 24.0535 39.6403C21.5975 39.6403 18.8656 39.239 18.3417 38.9762C18.3341 38.9272 18.3437 38.8649 18.4174 38.8106Z" fill="#73A1FB"/>
<path d="M21.9144 47.5442C33.326 47.5345 39.4507 45.5051 40.6306 44.228C41.0483 43.7763 41.0934 43.3485 41.058 43.0691C40.9703 42.3816 40.344 41.9607 40.273 41.915C40.1017 41.8049 39.8718 41.8337 39.7382 41.9878C39.6049 42.1419 39.6018 42.3671 39.7356 42.5211C39.8076 42.6137 39.8492 42.7686 39.6387 42.9793C39.167 43.4198 34.4097 44.757 26.4887 45.1588C25.4036 45.2151 24.2655 45.2438 23.1062 45.244C16.0141 45.244 10.8238 44.2726 10.1424 43.7065C10.405 43.3292 12.241 42.7264 14.1934 42.3853C14.4134 42.347 14.5621 42.1396 14.528 41.9189C14.4939 41.6983 14.2905 41.5465 14.0681 41.5753C14.013 41.5828 13.8261 41.5939 13.6097 41.6072C10.3882 41.8039 6.66546 42.2423 6.47122 43.9021C6.41224 44.4079 6.56253 44.8671 6.9181 45.2667C7.78812 46.2442 10.2888 47.544 21.9141 47.544C21.9142 47.5442 21.9142 47.5442 21.9144 47.5442Z" fill="#73A1FB"/>
<path d="M42.8721 44.5879C42.7107 44.5133 42.5201 44.551 42.3998 44.6808C42.3831 44.6989 40.6674 46.493 35.5087 47.5465C33.5338 47.9422 29.8268 48.1429 24.4905 48.1429C19.1443 48.1429 14.0571 47.9325 14.0064 47.9304C13.7939 47.92 13.6122 48.0745 13.5833 48.2837C13.5543 48.4927 13.689 48.6897 13.8942 48.7386C13.9471 48.7511 19.2785 50.0001 26.568 50.0001C30.0642 50.0001 33.4664 49.7162 36.6801 49.1559C42.6724 48.1054 43.092 45.1341 43.1069 45.0081C43.1278 44.832 43.0331 44.6625 42.8721 44.5879Z" fill="#73A1FB"/>
</g>
<defs>
<clipPath id="clip0_748_1217">
<rect width="50" height="50" fill="white"/>
</clipPath>
</defs>
</svg>
