<svg viewBox="0 0 129 23" fill="none" xmlns="http://www.w3.org/2000/svg"><path d="M24.178 0H0v22.4h24.178V0zM50.118 0H25.94v22.4h24.178V0zM76.31 0H52.134v22.4h24.178V0zM102.252 0H78.074v22.4h24.178V0z" fill="#00B67A"/><path d="M128.444 0h-24.177v22.4h24.177V0z" fill="#DCDCE6"/><path d="M104.267 0h12.089v22.167h-12.089V0z" fill="#00B67A"/><path d="M11.837 14.933 15.614 14l1.512 4.433-5.29-3.5zm8.563-5.6h-6.548l-2.015-5.6-2.015 5.6H3.526l5.289 3.5-2.015 5.6 5.289-3.5 3.274-2.1 5.037-3.5zM38.03 14.933 41.806 14l1.511 4.433-5.289-3.5zm8.31-5.6h-6.548l-2.015-5.6-2.014 5.6h-6.549l5.29 3.5-2.016 5.6 5.29-3.5 3.273-2.1 5.29-3.5zM64.222 14.933 68 14l1.511 4.433-5.289-3.5zm8.311-5.6h-6.548l-2.015-5.6-2.015 5.6h-6.548l5.29 3.5-1.764 5.6 5.29-3.5 3.273-2.1 5.037-3.5zM90.163 14.933 93.94 14l1.511 4.433-5.288-3.5zm8.563-5.6h-6.549l-2.014-5.6-2.015 5.6H81.6l5.288 3.5-2.014 5.6 5.289-3.5 3.274-2.1 5.289-3.5zM116.355 14.933l3.778-.933 1.511 4.433-5.289-3.5zm8.311-5.6h-6.548l-2.015-5.6-1.763 5.6h-6.548l5.289 3.5-2.015 5.6 5.289-3.5 3.274-2.1 5.037-3.5z" fill="#fff"/></svg>