<svg width="21" height="21" viewBox="0 0 21 21" fill="none" xmlns="http://www.w3.org/2000/svg">
<path d="M0.98988 20.0101L0.989882 20.0101C1.07945 20.0997 1.20092 20.15 1.32759 20.15H19.6724C19.7991 20.15 19.9205 20.0997 20.0101 20.0101L19.904 19.9041L20.0101 20.0101C20.0997 19.9206 20.15 19.7991 20.15 19.6724C20.15 19.5457 20.0997 19.4243 20.0101 19.3347C19.9205 19.2451 19.7991 19.1948 19.6724 19.1948H17.5293V3.94829C17.5293 3.83789 17.4911 3.73089 17.4211 3.6455C17.3511 3.56011 17.2536 3.50162 17.1454 3.47996L4.04194 0.859275C3.97265 0.845417 3.90115 0.847106 3.83259 0.864222C3.76403 0.881338 3.70013 0.913454 3.64548 0.958254C3.59084 1.00305 3.54681 1.05942 3.51659 1.12329C3.48636 1.18716 3.47069 1.25694 3.47069 1.3276C3.47069 1.3276 3.47069 1.32761 3.47069 1.32761V19.1948H1.32759C1.20092 19.1948 1.07945 19.2451 0.989882 19.3347C0.900317 19.4243 0.85 19.5457 0.85 19.6724C0.85 19.7991 0.900317 19.9206 0.98988 20.0101ZM16.5741 12.3155H4.42586V8.02932H16.5741V12.3155ZM4.42586 1.91015L16.5741 4.33984V7.07415H4.42586V1.91015ZM4.42586 13.2707H16.5741V19.1948H4.42586V13.2707Z" fill="#0044EB" stroke="#0044EB" stroke-width="0.3"/>
<path d="M10.4998 14.6085H10.4996C10.308 14.6085 10.1206 14.6654 9.9613 14.7718C9.80196 14.8783 9.67776 15.0296 9.60442 15.2067C9.53108 15.3838 9.51189 15.5786 9.54928 15.7665C9.58667 15.9545 9.67896 16.1272 9.81447 16.2627C9.94998 16.3982 10.1226 16.4905 10.3106 16.5279C10.4986 16.5652 10.6934 16.5461 10.8704 16.4727C11.0475 16.3994 11.1988 16.2752 11.3053 16.1158C11.4118 15.9565 11.4686 15.7692 11.4686 15.5775L11.4686 15.5773C11.4683 15.3205 11.3661 15.0742 11.1845 14.8926C11.0029 14.711 10.7567 14.6088 10.4998 14.6085ZM10.4996 15.5913C10.4969 15.5913 10.4942 15.5905 10.492 15.589C10.4897 15.5875 10.4879 15.5853 10.4869 15.5828C10.4858 15.5803 10.4856 15.5775 10.4861 15.5748C10.4866 15.5721 10.4879 15.5697 10.4899 15.5678C10.4918 15.5658 10.4943 15.5645 10.4969 15.564C10.4996 15.5634 10.5024 15.5637 10.5049 15.5648C10.5074 15.5658 10.5096 15.5676 10.5111 15.5698C10.5126 15.5721 10.5134 15.5748 10.5134 15.5775C10.5134 15.5812 10.512 15.5847 10.5094 15.5873C10.5068 15.5898 10.5033 15.5913 10.4996 15.5913Z" fill="#0044EB" stroke="#0044EB" stroke-width="0.3"/>
<path d="M9.86465 18.5386L9.86465 18.5386L9.86571 18.5399C9.94267 18.6336 10.0394 18.7091 10.149 18.7609L10.2131 18.6253L10.149 18.7609C10.2586 18.8127 10.3784 18.8396 10.4996 18.8396C10.6209 18.8396 10.7406 18.8127 10.8502 18.7609C10.9598 18.7091 11.0566 18.6336 11.1335 18.5399L11.1335 18.5399L11.1345 18.5387C11.2827 18.3543 11.6488 17.8523 11.9786 17.2899C12.1436 17.0085 12.3013 16.709 12.4182 16.4246C12.5338 16.1432 12.6152 15.863 12.6152 15.6244C12.6152 14.5137 11.6575 13.6259 10.4997 13.6259C9.34188 13.6259 8.38418 14.5137 8.38418 15.6244C8.38418 15.863 8.46561 16.1432 8.58121 16.4246C8.69808 16.709 8.8558 17.0085 9.0208 17.2899C9.35059 17.8523 9.71663 18.3543 9.86465 18.5386ZM10.4999 17.7998C10.2676 17.4923 9.9987 17.0839 9.77702 16.6908C9.64834 16.4627 9.53718 16.2425 9.45865 16.0524C9.3779 15.8569 9.33935 15.711 9.33935 15.6244C9.33935 15.0621 9.8465 14.5811 10.4997 14.5811C11.1529 14.5811 11.66 15.0621 11.66 15.6244C11.66 15.711 11.6215 15.8569 11.5408 16.0524C11.4623 16.2425 11.3511 16.4626 11.2226 16.6907C11.0008 17.0841 10.7317 17.4928 10.4999 17.7998Z" fill="#0044EB" stroke="#0044EB" stroke-width="0.3"/>
</svg>
