<svg width="16" height="16" viewBox="0 0 16 16" fill="none" xmlns="http://www.w3.org/2000/svg">
<path d="M13.5292 2.66734L9.13422 0.709844C8.48922 0.424844 7.51422 0.424844 6.86922 0.709844L2.47422 2.66734C1.36422 3.16234 1.19922 3.83734 1.19922 4.19734C1.19922 4.55734 1.36422 5.23234 2.47422 5.72734L6.86922 7.68484C7.19172 7.82734 7.59672 7.90234 8.00172 7.90234C8.40672 7.90234 8.81172 7.82734 9.13422 7.68484L13.5292 5.72734C14.6392 5.23234 14.8042 4.55734 14.8042 4.19734C14.8042 3.83734 14.6467 3.16234 13.5292 2.66734Z" fill="#0044EB"/>
<path d="M7.99828 11.78C7.71328 11.78 7.42828 11.72 7.16578 11.6075L2.11078 9.3575C1.33828 9.0125 0.738281 8.09 0.738281 7.2425C0.738281 6.935 0.985781 6.6875 1.29328 6.6875C1.60078 6.6875 1.84828 6.935 1.84828 7.2425C1.84828 7.6475 2.18578 8.1725 2.56078 8.3375L7.61578 10.5875C7.85578 10.6925 8.13328 10.6925 8.37328 10.5875L13.4283 8.3375C13.8033 8.1725 14.1408 7.655 14.1408 7.2425C14.1408 6.935 14.3883 6.6875 14.6958 6.6875C15.0033 6.6875 15.2508 6.935 15.2508 7.2425C15.2508 8.0825 14.6508 9.0125 13.8783 9.3575L8.82328 11.6075C8.56828 11.72 8.28328 11.78 7.99828 11.78Z" fill="#0044EB"/>
<path d="M7.99828 15.5002C7.71328 15.5002 7.42828 15.4402 7.16578 15.3277L2.11078 13.0777C1.27828 12.7102 0.738281 11.8777 0.738281 10.9627C0.738281 10.6552 0.985781 10.4077 1.29328 10.4077C1.60078 10.4077 1.84828 10.6552 1.84828 10.9627C1.84828 11.4352 2.12578 11.8627 2.56078 12.0577L7.61578 14.3077C7.85578 14.4127 8.13328 14.4127 8.37328 14.3077L13.4283 12.0577C13.8558 11.8702 14.1408 11.4352 14.1408 10.9627C14.1408 10.6552 14.3883 10.4077 14.6958 10.4077C15.0033 10.4077 15.2508 10.6552 15.2508 10.9627C15.2508 11.8777 14.7108 12.7027 13.8783 13.0777L8.82328 15.3277C8.56828 15.4402 8.28328 15.5002 7.99828 15.5002Z" fill="#0044EB"/>
</svg>
