<svg width="50" height="50" viewBox="0 0 50 50" fill="none" xmlns="http://www.w3.org/2000/svg">
<path d="M10.1836 5.49609C7.59844 5.49609 5.49609 7.59844 5.49609 10.1836C5.49609 12.7688 7.59844 14.8711 10.1836 14.8711C12.7688 14.8711 14.8711 12.7688 14.8711 10.1836C14.8711 7.59844 12.7688 5.49609 10.1836 5.49609ZM10.1836 13.3086C8.46016 13.3086 7.05859 11.907 7.05859 10.1836C7.05859 8.46016 8.46016 7.05859 10.1836 7.05859C11.907 7.05859 13.3086 8.46016 13.3086 10.1836C13.3086 11.907 11.907 13.3086 10.1836 13.3086Z" fill="#FFB053"/>
<path d="M45.0836 38.0524L43.9789 36.9478L38.2812 42.6454L37.2711 41.6353L36.1664 42.7399L38.2812 44.8548L45.0836 38.0524Z" fill="#FFB053"/>
<path d="M27.3438 9.375H28.9062V10.9375H27.3438V9.375Z" fill="#FFB053"/>
<path d="M36.7188 9.375H38.2812V10.9375H36.7188V9.375Z" fill="#FFB053"/>
<path d="M33.5938 9.375H35.1562V10.9375H33.5938V9.375Z" fill="#FFB053"/>
<path d="M30.4688 9.375H32.0312V10.9375H30.4688V9.375Z" fill="#FFB053"/>
<path d="M18.75 28.9063H31.25C32.5422 28.9063 33.5938 27.8547 33.5938 26.5625V25.7813H43.75C46.7648 25.7813 49.2188 23.3281 49.2188 20.3125V14.8438C49.2188 11.8281 46.7648 9.375 43.75 9.375H41.4062V8.59375C41.4062 7.30156 40.3547 6.25 39.0625 6.25H26.5625C25.2703 6.25 24.2188 7.30156 24.2188 8.59375V9.375H19.5586V8.025L17.5078 7.46484C17.4406 7.28516 17.3656 7.10625 17.2844 6.92969L18.3398 5.08125L15.2867 2.02812L13.4391 3.08281C13.2617 3.00156 13.0836 2.92656 12.9039 2.85938L12.343 0.808594H8.025L7.46406 2.85938C7.28437 2.92656 7.10625 3.00078 6.92969 3.08281L5.08125 2.02812L2.02812 5.08125L3.08281 6.92969C3.00156 7.10625 2.92656 7.28516 2.85938 7.46484L0.808594 8.025V12.3422L2.85938 12.9031C2.92656 13.0828 3.00156 13.2617 3.08281 13.4383L2.02734 15.2867L5.08047 18.3391L6.92891 17.2844C7.10547 17.3656 7.28359 17.4406 7.46328 17.5078L8.02422 19.5586H12.3422L12.9031 17.5078C13.082 17.4406 13.2609 17.3656 13.4383 17.2844L15.2859 18.3383L18.3391 15.2859L17.2836 13.4375C17.3648 13.2609 17.4398 13.082 17.507 12.9023L19.5578 12.3414V10.9375H24.2188V11.7188C24.2188 13.0109 25.2703 14.0625 26.5625 14.0625H39.0625C40.3547 14.0625 41.4062 13.0109 41.4062 11.7188V10.9375H43.75C45.9039 10.9375 47.6562 12.6898 47.6562 14.8438V20.3125C47.6562 22.4664 45.9039 24.2188 43.75 24.2188H33.5938V23.4375C33.5938 22.1453 32.5422 21.0938 31.25 21.0938H18.75C17.4578 21.0938 16.4062 22.1453 16.4062 23.4375V24.2188H6.25C3.23516 24.2188 0.78125 26.6727 0.78125 29.6875V35.9375C0.78125 38.9523 3.23516 41.4063 6.25 41.4063H8.59375V42.1875C8.59375 43.4797 9.64531 44.5313 10.9375 44.5313H23.4375C24.7297 44.5313 25.7812 43.4797 25.7812 42.1875V41.4063H32.0711C32.4672 45.7797 36.15 49.2188 40.625 49.2188C45.3633 49.2188 49.2188 45.3633 49.2188 40.625C49.2188 35.8867 45.3633 32.0313 40.625 32.0313C36.15 32.0313 32.4672 35.4703 32.0711 39.8438H25.7812V39.0625C25.7812 37.7703 24.7297 36.7188 23.4375 36.7188H10.9375C9.64531 36.7188 8.59375 37.7703 8.59375 39.0625V39.8438H6.25C4.09609 39.8438 2.34375 38.0914 2.34375 35.9375V29.6875C2.34375 27.5336 4.09609 25.7813 6.25 25.7813H16.4062V26.5625C16.4062 27.8547 17.4578 28.9063 18.75 28.9063ZM17.9961 11.15L16.2828 11.6187L16.157 12.0289C16.0445 12.3906 15.8945 12.7508 15.7102 13.0992L15.5086 13.4789L16.3914 15.025L15.0258 16.3914L13.4789 15.5094L13.1 15.7102C12.7523 15.8945 12.3922 16.0445 12.0297 16.1563L11.6203 16.2828L11.1508 17.9961H9.21875L8.74922 16.2828L8.33984 16.1563C7.97891 16.0445 7.61875 15.8953 7.26953 15.7102L6.88984 15.5094L5.34375 16.3914L3.97656 15.025L4.85937 13.4789L4.65781 13.0992C4.47344 12.7508 4.32266 12.3906 4.21094 12.0289L4.08516 11.6187L2.37188 11.15V9.21719L4.08516 8.74922L4.21172 8.33906C4.32344 7.97734 4.47344 7.61719 4.65781 7.26953L4.85937 6.88906L3.97656 5.34297L5.34219 3.97656L6.88828 4.85859L7.26797 4.65781C7.61875 4.47266 7.97891 4.32188 8.33828 4.21094L8.74766 4.08438L9.21719 2.37109H11.1492L11.6187 4.08438L12.0281 4.21094C12.3891 4.32266 12.7492 4.47266 13.0984 4.65781L13.4773 4.85859L15.0242 3.97656L16.3898 5.34297L15.507 6.88906L15.7086 7.26875C15.893 7.61641 16.0437 7.97656 16.1547 8.33828L16.2813 8.74844L17.9945 9.21641V11.15H17.9961ZM39.8438 11.7188C39.8438 12.1492 39.4937 12.5 39.0625 12.5H26.5625C26.1313 12.5 25.7812 12.1492 25.7812 11.7188V8.59375C25.7812 8.16328 26.1313 7.8125 26.5625 7.8125H39.0625C39.4937 7.8125 39.8438 8.16328 39.8438 8.59375V11.7188ZM40.625 33.5938C44.5023 33.5938 47.6562 36.7477 47.6562 40.625C47.6562 44.5023 44.5023 47.6563 40.625 47.6563C36.7477 47.6563 33.5938 44.5023 33.5938 40.625C33.5938 36.7477 36.7477 33.5938 40.625 33.5938ZM10.1562 39.0625C10.1562 38.6313 10.5063 38.2813 10.9375 38.2813H23.4375C23.8687 38.2813 24.2188 38.6313 24.2188 39.0625V42.1875C24.2188 42.6188 23.8687 42.9688 23.4375 42.9688H10.9375C10.5063 42.9688 10.1562 42.6188 10.1562 42.1875V39.0625ZM17.9688 23.4375C17.9688 23.007 18.3188 22.6563 18.75 22.6563H31.25C31.6812 22.6563 32.0312 23.007 32.0312 23.4375V26.5625C32.0312 26.9938 31.6812 27.3438 31.25 27.3438H18.75C18.3188 27.3438 17.9688 26.9938 17.9688 26.5625V23.4375Z" fill="#0E50F2"/>
<path d="M25.7812 24.2188H27.3438V25.7812H25.7812V24.2188Z" fill="#FFB053"/>
<path d="M22.6562 24.2188H24.2188V25.7812H22.6562V24.2188Z" fill="#FFB053"/>
<path d="M19.5312 24.2188H21.0938V25.7812H19.5312V24.2188Z" fill="#FFB053"/>
<path d="M28.9062 24.2188H30.4688V25.7812H28.9062V24.2188Z" fill="#FFB053"/>
<path d="M14.8438 39.8438H16.4062V41.4062H14.8438V39.8438Z" fill="#FFB053"/>
<path d="M21.0938 39.8438H22.6562V41.4062H21.0938V39.8438Z" fill="#FFB053"/>
<path d="M17.9688 39.8438H19.5312V41.4062H17.9688V39.8438Z" fill="#FFB053"/>
<path d="M11.7188 39.8438H13.2812V41.4062H11.7188V39.8438Z" fill="#FFB053"/>
</svg>
