<svg width="62" height="63" viewBox="0 0 62 63" fill="none" xmlns="http://www.w3.org/2000/svg">
<path d="M55.9055 18.9942C59.266 18.9942 62 16.2199 62 12.81V6.18421C62 2.77425 59.266 0 55.9055 0H6.09452C2.73402 0 0 2.77425 0 6.18421V12.81C0 16.2199 2.73402 18.9942 6.09452 18.9942H29.3661V34.5927C26.988 35.2008 25.1125 37.104 24.5134 39.5169H7.53191C6.62964 39.5169 5.89806 40.2593 5.89806 41.1748V51.1345H2.17916C1.27689 51.1345 0.545314 51.8769 0.545314 52.7924V61.3421C0.545314 62.2577 1.27689 63 2.17916 63H12.8847C13.7869 63 14.5185 62.2577 14.5185 61.3421V52.7924C14.5185 51.8769 13.7869 51.1345 12.8847 51.1345H9.16576V42.8327H24.5132C25.1125 45.2457 26.988 47.1488 29.366 47.7568V51.1344H25.6471C24.7448 51.1344 24.0133 51.8767 24.0133 52.7923V61.3421C24.0133 62.2577 24.7448 63 25.6471 63H36.3526C37.2549 63 37.9865 62.2577 37.9865 61.3421V52.7924C37.9865 51.8769 37.2549 51.1345 36.3526 51.1345H32.6338V47.7569C35.0119 47.1489 36.8875 45.2458 37.4866 42.8328H52.8341V51.1346H49.1152C48.2129 51.1346 47.4813 51.877 47.4813 52.7925V61.3421C47.4813 62.2577 48.2129 63 49.1152 63H59.8207C60.723 63 61.4546 62.2577 61.4546 61.3421V52.7924C61.4546 51.8769 60.723 51.1345 59.8207 51.1345H56.1018V41.1748C56.1018 40.2593 55.3702 39.5169 54.468 39.5169H37.4866C36.8873 37.1038 35.0118 35.2007 32.6338 34.5927V18.9942H55.9055ZM11.2508 59.6842H3.81301V54.4503H11.2508V59.6842ZM34.7189 59.6842H27.2811V54.4503H34.7189V59.6842ZM58.187 59.6842H50.7492V54.4503H58.187V59.6842ZM34.4217 41.1748C34.4217 43.0892 32.8868 44.6467 31 44.6467C29.1132 44.6467 27.5783 43.0892 27.5783 41.1748C27.5783 39.2603 29.1132 37.7028 31 37.7028C32.8868 37.7028 34.4217 39.2604 34.4217 41.1748ZM3.2677 12.81V6.18421C3.2677 4.60258 4.53583 3.31579 6.09452 3.31579H55.9055C57.4642 3.31579 58.7323 4.60258 58.7323 6.18421V12.81C58.7323 14.3916 57.4642 15.6784 55.9055 15.6784H6.09452C4.53583 15.6784 3.2677 14.3916 3.2677 12.81ZM17.5419 9.49695C17.5419 10.4125 16.8103 11.1548 15.9081 11.1548H8.47353C7.57126 11.1548 6.83968 10.4125 6.83968 9.49695C6.83968 8.5814 7.57126 7.83906 8.47353 7.83906H15.9081C16.8103 7.83906 17.5419 8.5814 17.5419 9.49695ZM36.3511 9.49695C36.3511 10.4125 35.6195 11.1548 34.7172 11.1548H27.2827C26.3804 11.1548 25.6488 10.4125 25.6488 9.49695C25.6488 8.5814 26.3804 7.83906 27.2827 7.83906H34.7172C35.6196 7.83906 36.3511 8.5814 36.3511 9.49695ZM55.1603 9.49695C55.1603 10.4125 54.4287 11.1548 53.5265 11.1548H46.0919C45.1897 11.1548 44.4581 10.4125 44.4581 9.49695C44.4581 8.5814 45.1897 7.83906 46.0919 7.83906H53.5265C54.4287 7.83906 55.1603 8.5814 55.1603 9.49695Z" fill="#0044EB"/>
</svg>
