<svg width="44" height="44" viewBox="0 0 44 44" fill="none" xmlns="http://www.w3.org/2000/svg">
<mask id="mask0_751_1356" style="mask-type:luminance" maskUnits="userSpaceOnUse" x="0" y="0" width="45" height="45">
<path d="M44.0009 0H0V44.0009H44.0009V0Z" fill="white"/>
</mask>
<g mask="url(#mask0_751_1356)">
<path d="M22.7987 43.7223C12.8535 43.6962 4.18813 37.5828 1.36141 28.4644C-0.999439 20.8239 0.53115 13.8399 5.84118 7.73677C9.10544 3.9862 13.315 1.68732 18.2635 0.703563C21.0319 0.154161 23.8831 0.131449 26.6603 0.636715C26.971 0.691919 26.9737 0.773322 26.8529 1.01743C25.4871 3.7842 24.1275 6.55487 22.7747 9.3294C22.7411 9.41615 22.6792 9.48963 22.598 9.5383C22.5167 9.58694 22.4216 9.60803 22.3269 9.59824C19.4814 9.66902 16.7421 10.6638 14.5445 12.4244C12.3471 14.1848 10.8178 16.6099 10.2 19.3139C8.83666 25.2239 12.1218 31.3374 17.9186 33.5039C22.5194 35.223 26.8007 34.5386 30.6952 31.6004C30.8935 31.4548 30.9757 31.4257 31.1176 31.6657C32.6109 34.2086 34.1171 36.7468 35.6361 39.2802C35.7691 39.5026 35.7214 39.6028 35.5241 39.7365C32.5909 41.7561 29.1978 43.0524 25.6357 43.5144C24.6944 43.6326 23.7474 43.702 22.7987 43.7223Z" fill="#EF4335"/>
<path d="M38.2449 37.4326C38.1223 37.3687 38.0882 37.238 38.0255 37.1321C36.3271 34.274 34.6348 31.4133 32.9485 28.5499C32.891 28.4324 32.7975 28.3353 32.6808 28.2723C32.564 28.2094 32.43 28.1833 32.2973 28.1982C28.9255 28.2083 25.5553 28.1982 22.1835 28.1982H21.7638C21.7608 28.0719 21.8078 27.9498 21.8951 27.8567C23.6074 24.9618 25.3208 22.0672 27.0351 19.1726C27.0805 19.0768 27.1556 18.9973 27.25 18.9451C27.3441 18.893 27.4528 18.871 27.5608 18.8818C31.0121 18.8906 34.4625 18.8906 37.9118 18.8818C38.0191 18.871 38.1271 18.8933 38.2208 18.9455C38.3142 18.9976 38.3887 19.0771 38.433 19.1726C40.1545 22.0915 41.8834 25.0064 43.6208 27.9176C43.6786 27.9921 43.7115 28.0824 43.7142 28.1762C43.7169 28.2696 43.6895 28.3617 43.6356 28.4392C41.8905 31.3717 40.1518 34.3011 38.4195 37.2279C38.3735 37.302 38.3525 37.4039 38.2449 37.4326Z" fill="#EF4335"/>
<path d="M30.9767 6.69181C30.3584 6.09021 29.7819 5.51475 29.1849 4.94805C28.9997 4.77367 29.1294 4.64434 29.2086 4.5121C29.8923 3.3539 31.0052 2.49399 32.3191 2.10861C33.1155 1.85286 33.958 1.76211 34.7926 1.8422C35.627 1.92231 36.4352 2.17143 37.1646 2.57359C39.8527 3.98751 39.6121 7.26724 38.0605 8.74946C37.4726 9.30062 36.8062 9.767 36.0822 10.1343C35.3355 10.5208 34.5889 10.8856 33.8571 11.2968C33.2496 11.6354 32.776 12.1033 32.5564 12.7804C32.467 13.0537 32.5208 13.1248 32.8207 13.122C34.795 13.1103 36.7706 13.122 38.7459 13.1103C39.0448 13.1103 39.1568 13.1656 39.1447 13.4823C39.1179 14.1609 39.1284 14.8412 39.1447 15.5168C39.1447 15.7317 39.0837 15.8075 38.8566 15.8075C35.6818 15.8014 32.5083 15.8014 29.3355 15.8075C29.1862 15.8075 29.0475 15.8075 29.0458 15.5966C29.0458 13.4576 29.4519 11.4654 31.1724 9.93958C31.9918 9.23343 32.9114 8.64612 33.9035 8.19579C34.4471 7.93713 34.9964 7.69012 35.4713 7.3152C35.8866 6.98678 36.1732 6.58864 36.203 6.05098C36.248 5.20959 35.564 4.58474 34.5307 4.51935C33.0448 4.41618 31.9725 5.06719 31.2231 6.2762C31.1483 6.39538 31.0796 6.51743 30.9767 6.69181Z" fill="#020842"/>
<path d="M38.5473 40.4789V39.78H38.2904V39.6348H38.9788V39.78H38.7189V40.4789H38.5473ZM39.0892 40.4789V39.6375H39.3505L39.4998 40.2115L39.6494 39.6375H39.912V40.4789H39.7641V39.8162L39.5925 40.4789H39.4236L39.2533 39.8162V40.4789H39.0892Z" fill="#020842"/>
</g>
</svg>
