<svg width="62" height="62" viewBox="0 0 62 62" fill="none" xmlns="http://www.w3.org/2000/svg">
<path d="M55.7252 0H6.27479C2.8148 0 0 2.8148 0 6.27479V55.7252C0 59.1852 2.8148 62 6.27479 62H55.7252C59.1852 62 62 59.1852 62 55.7252V6.27479C62 2.8148 59.1852 0 55.7252 0ZM58.7368 55.7252C58.7368 57.3859 57.3858 58.7368 55.7252 58.7368H6.27479C4.61411 58.7368 3.26316 57.3858 3.26316 55.7252V16.9607H53.7904C54.6914 16.9607 55.422 16.2303 55.422 15.3291C55.422 14.428 54.6914 13.6976 53.7904 13.6976H3.26316V6.27479C3.26316 4.61424 4.61424 3.26316 6.27479 3.26316H55.7252C57.3859 3.26316 58.7368 4.61424 58.7368 6.27479V55.7252ZM17.3476 9.27063C17.3476 10.1718 16.617 10.9022 15.716 10.9022H8.44166C7.54064 10.9022 6.81008 10.1718 6.81008 9.27063C6.81008 8.36948 7.54064 7.63905 8.44166 7.63905H15.716C16.6172 7.63905 17.3476 8.36948 17.3476 9.27063ZM32.6316 9.27063C32.6316 10.1718 31.901 10.9022 31 10.9022H23.7256C22.8246 10.9022 22.0941 10.1718 22.0941 9.27063C22.0941 8.36948 22.8246 7.63905 23.7256 7.63905H31C31.901 7.63905 32.6316 8.36948 32.6316 9.27063ZM46.2782 35.3562H38.4497C38.3745 34.5737 38.2466 33.8198 38.07 33.1028H40.6289C41.2501 33.1028 41.8174 32.7501 42.0921 32.193L46.1937 23.878C46.5924 23.0699 46.2604 22.0916 45.4521 21.693C44.6439 21.2942 43.6656 21.6264 43.2673 22.4345L39.6145 29.8398H36.7992C35.4284 27.4135 33.356 25.8924 30.9975 25.8924C28.639 25.8924 26.5667 27.4135 25.1959 29.8398H22.3857L18.7329 22.4345C18.3342 21.6264 17.356 21.2941 16.548 21.693C15.7399 22.0916 15.4078 23.0699 15.8065 23.878L19.908 32.193C20.1826 32.7501 20.75 33.1028 21.3712 33.1028H23.9251C23.7485 33.8198 23.6206 34.5737 23.5454 35.3562H15.7219C14.8209 35.3562 14.0903 36.0867 14.0903 36.9878C14.0903 37.8888 14.8209 38.6193 15.7219 38.6193H23.5454C23.6206 39.4017 23.7485 40.1556 23.9251 40.8726H21.3711C20.7499 40.8726 20.1826 41.2253 19.9079 41.7824L15.8063 50.0974C15.4076 50.9055 15.7396 51.8838 16.5479 52.2824C16.7798 52.3969 17.026 52.4511 17.2684 52.4511C17.87 52.4511 18.4487 52.1169 18.7329 51.5409L22.3857 44.1356H25.1959C26.5667 46.5619 28.639 48.083 30.9975 48.083C33.356 48.083 35.4284 46.5619 36.7992 44.1356H39.6145L43.2673 51.5409C43.5514 52.1171 44.1299 52.4512 44.7318 52.4511C44.974 52.4511 45.2202 52.3968 45.4523 52.2824C46.2604 51.8838 46.5924 50.9055 46.1938 50.0974L42.0923 41.7824C41.8176 41.2253 41.2502 40.8726 40.6291 40.8726H38.0701C38.2467 40.1556 38.3746 39.4017 38.4498 38.6193H46.2784C47.1794 38.6193 47.9099 37.8888 47.9099 36.9878C47.9099 36.0867 47.1793 35.3562 46.2782 35.3562ZM30.9974 44.82C28.9788 44.82 26.7298 41.6033 26.7298 36.9878C26.7298 32.3721 28.9788 29.1554 30.9974 29.1554C33.016 29.1554 35.2649 32.3721 35.2649 36.9878C35.2651 41.6034 33.016 44.82 30.9974 44.82Z" fill="#0044EB"/>
</svg>
