<svg width="32" height="32" viewBox="0 0 32 32" fill="none" xmlns="http://www.w3.org/2000/svg">
<g clip-path="url(#clip0_1053_17146)">
<path d="M23.5625 15.125C18.9099 15.125 15.125 18.9099 15.125 23.5625C15.125 28.2151 18.9099 32 23.5625 32C28.2151 32 32 28.2151 32 23.5625C32 18.9099 28.2151 15.125 23.5625 15.125ZM27.3125 24.5H23.5625C23.0444 24.5 22.625 24.0806 22.625 23.5625V19.8125C22.625 19.2944 23.0444 18.875 23.5625 18.875C24.0806 18.875 24.5 19.2944 24.5 19.8125V22.625H27.3125C27.8306 22.625 28.25 23.0444 28.25 23.5625C28.25 24.0806 27.8306 24.5 27.3125 24.5Z" fill="#0044EB"/>
<path d="M30.0625 2.875C30.0625 2.34985 29.6501 1.9375 29.125 1.9375H24.4375V4.75C24.4375 5.2749 24.0251 5.6875 23.5 5.6875C22.9749 5.6875 22.5625 5.2749 22.5625 4.75V1.9375H18.8125V4.75C18.8125 5.2749 18.4001 5.6875 17.875 5.6875C17.3499 5.6875 16.9375 5.2749 16.9375 4.75V1.9375H13.1875V4.75C13.1875 5.2749 12.7751 5.6875 12.25 5.6875C11.7249 5.6875 11.3125 5.2749 11.3125 4.75V1.9375H7.5625V4.75C7.5625 5.2749 7.15015 5.6875 6.625 5.6875C6.09985 5.6875 5.6875 5.2749 5.6875 4.75V1.9375H0.9375C0.412354 1.9375 0 2.34985 0 2.875V7.5625H30.0625V2.875Z" fill="#0044EB"/>
<path d="M14.125 18.8125H14.3501C14.6924 18.1475 15.0786 17.509 15.5513 16.9375H14.125C13.6069 16.9375 13.1875 16.5181 13.1875 16C13.1875 15.4819 13.6069 15.0625 14.125 15.0625H16C16.384 15.0625 16.7119 15.2942 16.8569 15.6245C18.6531 14.1072 20.97 13.1875 23.5 13.1875H21.625C21.1069 13.1875 20.6875 12.7681 20.6875 12.25C20.6875 11.7319 21.1069 11.3125 21.625 11.3125H23.5C24.0181 11.3125 24.4375 11.7319 24.4375 12.25C24.4375 12.7681 24.0181 13.1875 23.5 13.1875C25.991 13.1875 28.2783 14.0757 30.0625 15.5513V9.4375H0V27.25C0 27.7681 0.419434 28.1875 0.9375 28.1875H14.3259C13.6035 26.7793 13.1875 25.1885 13.1875 23.5C13.1875 22.468 13.3726 21.4846 13.656 20.5439C13.3809 20.3806 13.1875 20.0935 13.1875 19.75C13.1875 19.2319 13.6069 18.8125 14.125 18.8125ZM14.125 11.3125H16C16.5181 11.3125 16.9375 11.7319 16.9375 12.25C16.9375 12.7681 16.5181 13.1875 16 13.1875H14.125C13.6069 13.1875 13.1875 12.7681 13.1875 12.25C13.1875 11.7319 13.6069 11.3125 14.125 11.3125ZM8.5 24.4375H6.625C6.10693 24.4375 5.6875 24.0181 5.6875 23.5C5.6875 22.9819 6.10693 22.5625 6.625 22.5625H8.5C9.01807 22.5625 9.4375 22.9819 9.4375 23.5C9.4375 24.0181 9.01807 24.4375 8.5 24.4375ZM8.5 20.6875H6.625C6.10693 20.6875 5.6875 20.2681 5.6875 19.75C5.6875 19.2319 6.10693 18.8125 6.625 18.8125H8.5C9.01807 18.8125 9.4375 19.2319 9.4375 19.75C9.4375 20.2681 9.01807 20.6875 8.5 20.6875ZM8.5 16.9375H6.625C6.10693 16.9375 5.6875 16.5181 5.6875 16C5.6875 15.4819 6.10693 15.0625 6.625 15.0625H8.5C9.01807 15.0625 9.4375 15.4819 9.4375 16C9.4375 16.5181 9.01807 16.9375 8.5 16.9375ZM8.5 13.1875H6.625C6.10693 13.1875 5.6875 12.7681 5.6875 12.25C5.6875 11.7319 6.10693 11.3125 6.625 11.3125H8.5C9.01807 11.3125 9.4375 11.7319 9.4375 12.25C9.4375 12.7681 9.01807 13.1875 8.5 13.1875Z" fill="#0044EB"/>
<path d="M7.5625 0.9375C7.5625 0.412354 7.15015 0 6.625 0C6.09985 0 5.6875 0.412354 5.6875 0.9375V1.9375H7.5625V0.9375Z" fill="#0044EB"/>
<path d="M13.1875 0.9375C13.1875 0.412354 12.7751 0 12.25 0C11.7249 0 11.3125 0.412354 11.3125 0.9375V1.9375H13.1875V0.9375Z" fill="#0044EB"/>
<path d="M18.8125 0.9375C18.8125 0.412354 18.4001 0 17.875 0C17.3499 0 16.9375 0.412354 16.9375 0.9375V1.9375H18.8125V0.9375Z" fill="#0044EB"/>
<path d="M24.4375 0.9375C24.4375 0.412354 24.0251 0 23.5 0C22.9749 0 22.5625 0.412354 22.5625 0.9375V1.9375H24.4375V0.9375Z" fill="#0044EB"/>
</g>
<defs>
<clipPath id="clip0_1053_17146">
<rect width="32" height="32" fill="white"/>
</clipPath>
</defs>
</svg>
