<svg width="24" height="24" fill="none" xmlns="http://www.w3.org/2000/svg"><path d="M16.889.333H7.112C2.866.333.334 2.865.334 7.112v9.765c0 4.258 2.532 6.79 6.778 6.79h9.765c4.247 0 6.779-2.532 6.779-6.779V7.113c.011-4.247-2.52-6.779-6.767-6.779zm.805 11.119a.812.812 0 0 1-.817.816.812.812 0 0 1-.816-.816v-.21l-3.174 3.173a.802.802 0 0 1-.653.234.775.775 0 0 1-.595-.362l-1.19-1.774-2.777 2.777a.784.784 0 0 1-.571.234.813.813 0 0 1-.572-.234.824.824 0 0 1 0-1.155l3.477-3.476a.802.802 0 0 1 .653-.234.775.775 0 0 1 .595.362l1.19 1.773 2.462-2.462h-.21a.812.812 0 0 1-.817-.816c0-.455.362-.817.817-.817h2.17a1 1 0 0 1 .315.059.825.825 0 0 1 .443.443c.047.105.058.21.058.315v2.17h.012z" fill="#0044EB"/></svg>