<svg width="18" height="16" viewBox="0 0 18 16" fill="none" xmlns="http://www.w3.org/2000/svg">
<path d="M15.6199 4.50635L13.3733 13.5264C13.2133 14.1997 12.6133 14.6663 11.9199 14.6663H3.15992C2.15326 14.6663 1.43327 13.6796 1.73327 12.713L4.53993 3.69971C4.73326 3.07304 5.31327 2.63965 5.9666 2.63965H14.1666C14.7999 2.63965 15.3266 3.02632 15.5466 3.55965C15.6733 3.84632 15.6999 4.17301 15.6199 4.50635Z" stroke="#020842" stroke-width="1.5" stroke-miterlimit="10"/>
<path d="M11.6665 14.6667H14.8532C15.7132 14.6667 16.3865 13.94 16.3265 13.08L15.6665 4" stroke="#020842" stroke-width="1.5" stroke-miterlimit="10" stroke-linecap="round" stroke-linejoin="round"/>
<path d="M7.45312 4.25301L8.14646 1.37305" stroke="#020842" stroke-width="1.5" stroke-miterlimit="10" stroke-linecap="round" stroke-linejoin="round"/>
<path d="M11.9199 4.26001L12.5466 1.3667" stroke="#020842" stroke-width="1.5" stroke-miterlimit="10" stroke-linecap="round" stroke-linejoin="round"/>
<path d="M6.1333 8H11.4666" stroke="#020842" stroke-width="1.5" stroke-miterlimit="10" stroke-linecap="round" stroke-linejoin="round"/>
<path d="M5.4668 10.667H10.8001" stroke="#020842" stroke-width="1.5" stroke-miterlimit="10" stroke-linecap="round" stroke-linejoin="round"/>
</svg>
