<svg width="50" height="52" viewBox="0 0 50 52" fill="none" xmlns="http://www.w3.org/2000/svg">
<g clip-path="url(#clip0_748_1302)">
<path d="M49.8829 11.8641C49.9014 11.933 49.9109 12.004 49.9111 12.0754V23.1691C49.9111 23.3115 49.8737 23.4514 49.8028 23.5746C49.7318 23.6978 49.6298 23.8 49.507 23.8708L40.2503 29.2317V39.8573C40.2503 40.1464 40.0975 40.4134 39.8483 40.559L20.5257 51.7477C20.4815 51.773 20.4332 51.7892 20.385 51.8064C20.3669 51.8125 20.3498 51.8236 20.3307 51.8286C20.1956 51.8644 20.0537 51.8644 19.9186 51.8286C19.8965 51.8226 19.8764 51.8104 19.8553 51.8023C19.811 51.7862 19.7648 51.772 19.7226 51.7477L0.404081 40.559C0.281357 40.488 0.179385 40.3858 0.108443 40.2626C0.0375016 40.1395 9.72403e-05 39.9996 0 39.8573L0 6.57603C0 6.50323 0.0100518 6.43245 0.028145 6.3637C0.034176 6.34044 0.0482485 6.31921 0.0562899 6.29595C0.0713676 6.25349 0.0854401 6.21001 0.107554 6.17058C0.122632 6.14429 0.144746 6.12306 0.162839 6.09879C0.185958 6.06643 0.207067 6.03307 0.234206 6.00476C0.257325 5.9815 0.287481 5.96431 0.313615 5.94409C0.342766 5.91983 0.3689 5.89354 0.402071 5.87433L10.0628 0.279932C10.1851 0.209136 10.3238 0.171875 10.4649 0.171875C10.606 0.171875 10.7447 0.209136 10.867 0.279932L20.5267 5.87433H20.5287C20.5609 5.89455 20.588 5.91983 20.6172 5.94308C20.6433 5.9633 20.6725 5.9815 20.6956 6.00375C20.7237 6.03307 20.7438 6.06643 20.768 6.09879C20.7851 6.12306 20.8082 6.14429 20.8223 6.17058C20.8454 6.21102 20.8584 6.25349 20.8745 6.29595C20.8826 6.31921 20.8966 6.34044 20.9027 6.36471C20.9212 6.43361 20.9306 6.50465 20.9308 6.57603V27.3631L28.9803 22.701V12.0744C28.9803 12.0036 28.9903 11.9318 29.0084 11.8641C29.0155 11.8398 29.0285 11.8186 29.0366 11.7953C29.0526 11.7528 29.0667 11.7094 29.0888 11.6699C29.1039 11.6436 29.126 11.6224 29.1431 11.5981C29.1672 11.5658 29.1873 11.5324 29.2155 11.5041C29.2386 11.4809 29.2678 11.4637 29.2939 11.4434C29.324 11.4192 29.3502 11.3929 29.3823 11.3737L39.0441 5.77928C39.1664 5.70839 39.305 5.67107 39.4462 5.67107C39.5873 5.67107 39.726 5.70839 39.8483 5.77928L49.508 11.3737C49.5422 11.3939 49.5683 11.4192 49.5985 11.4424C49.6236 11.4627 49.6528 11.4809 49.6759 11.5031C49.704 11.5324 49.7241 11.5658 49.7482 11.5981C49.7663 11.6224 49.7885 11.6436 49.8025 11.6699C49.8256 11.7094 49.8387 11.7528 49.8548 11.7953C49.8638 11.8186 49.8769 11.8398 49.8829 11.8641ZM48.3008 22.701V13.4757L44.9204 15.4332L40.2503 18.1379V27.3631L48.3018 22.701H48.3008ZM38.641 39.3891V30.1578L34.0474 32.7968L20.9298 40.3274V49.6457L38.641 39.3891ZM1.61029 7.97639V39.3891L19.3195 49.6447V40.3284L10.0679 35.0616L10.0648 35.0596L10.0608 35.0576C10.0297 35.0394 10.0035 35.0131 9.97438 34.9909C9.94925 34.9706 9.9201 34.9545 9.89798 34.9322L9.89597 34.9292C9.86984 34.9039 9.85174 34.8726 9.82963 34.8442C9.80953 34.8169 9.7854 34.7937 9.76932 34.7654L9.76832 34.7623C9.75022 34.732 9.73916 34.6956 9.7261 34.6612C9.71303 34.6309 9.69594 34.6026 9.6879 34.5702C9.67785 34.5318 9.67584 34.4904 9.67182 34.4509C9.6678 34.4206 9.65976 34.3903 9.65976 34.3599V12.6386L4.99071 9.93287L1.61029 7.97639ZM10.4659 1.91589L2.41745 6.57603L10.4639 11.2362L18.5113 6.57502L10.4639 1.91589H10.4659ZM14.6515 30.9991L19.3205 28.2954V7.97639L15.9401 9.93388L11.2701 12.6386V32.9575L14.6515 30.9991ZM39.4462 7.41524L31.3987 12.0754L39.4462 16.7355L47.4926 12.0744L39.4462 7.41524ZM38.641 18.1379L33.971 15.4332L30.5906 13.4757V22.701L35.2596 25.4047L38.641 27.3631V18.1379ZM20.1237 38.9271L31.9275 32.1487L37.8278 28.7615L29.7864 24.1044L20.5277 29.4662L12.0893 34.3529L20.1237 38.9271Z" fill="#FF2D20"/>
</g>
<defs>
<clipPath id="clip0_748_1302">
<rect width="50" height="52" fill="white"/>
</clipPath>
</defs>
</svg>
