<svg width="20" height="24" fill="none" xmlns="http://www.w3.org/2000/svg"><path d="M14.41.333H5.59C1.18.333.085 1.512.085 6.213V19.35c0 3.103 1.703 3.838 3.768 1.622l.012-.012c.957-1.015 2.415-.933 3.243.175l1.179 1.575c.945 1.248 2.473 1.248 3.418 0l1.178-1.575c.84-1.12 2.299-1.202 3.255-.175 2.077 2.217 3.769 1.482 3.769-1.622V6.213c.011-4.701-1.085-5.88-5.495-5.88zM5.078 12a1.17 1.17 0 0 1-1.166-1.166 1.17 1.17 0 0 1 1.166-1.167 1.17 1.17 0 0 1 1.167 1.167A1.17 1.17 0 0 1 5.077 12zm0-4.667a1.17 1.17 0 0 1-1.166-1.166A1.17 1.17 0 0 1 5.077 5a1.17 1.17 0 0 1 1.167 1.167 1.17 1.17 0 0 1-1.167 1.167zm9.859 4.376H8.519a.881.881 0 0 1-.875-.875c0-.479.397-.875.875-.875h6.417c.478 0 .875.396.875.875a.881.881 0 0 1-.875.875zm0-4.667H8.519a.881.881 0 0 1-.875-.875c0-.478.397-.875.875-.875h6.417c.478 0 .875.397.875.875a.881.881 0 0 1-.875.875z" fill="#0044EB"/></svg>