<svg width="48" height="48" viewBox="0 0 48 48" fill="none" xmlns="http://www.w3.org/2000/svg">
<path fill-rule="evenodd" clip-rule="evenodd" d="M16.4427 29.3623H26.6097C27.0281 29.3623 27.3676 29.0227 27.3676 28.6044C27.3676 28.1861 27.0281 27.8466 26.6097 27.8466H16.4427C16.0244 27.8466 15.6849 28.1861 15.6849 28.6044C15.6849 29.0227 16.0243 29.3623 16.4427 29.3623Z" fill="#0E50F2"/>
<path fill-rule="evenodd" clip-rule="evenodd" d="M22.8409 28.6043V46.851C22.8409 47.2694 23.1804 47.6088 23.5987 47.6088C24.0166 47.6088 24.3566 47.2693 24.3566 46.851V28.6043C24.3566 28.1859 24.0166 27.8464 23.5987 27.8464C23.1804 27.8464 22.8409 28.186 22.8409 28.6043Z" fill="#0E50F2"/>
<path fill-rule="evenodd" clip-rule="evenodd" d="M6.61022 0.390869C3.66049 0.390869 1.26501 2.78635 1.26501 5.73655C1.26501 8.68675 3.66049 11.0818 6.61022 11.0818C9.5605 11.0818 11.956 8.68683 11.956 5.73655C11.956 2.78627 9.5605 0.390869 6.61022 0.390869ZM6.61022 1.90667C8.72426 1.90667 10.4402 3.62259 10.4402 5.73655C10.4402 7.85011 8.72426 9.56596 6.61022 9.56596C4.49666 9.56596 2.78081 7.85011 2.78081 5.73655C2.78081 3.62251 4.49674 1.90667 6.61022 1.90667Z" fill="#0E50F2"/>
<path fill-rule="evenodd" clip-rule="evenodd" d="M41.3898 0.390869C38.4395 0.390869 36.044 2.78635 36.044 5.73655C36.044 8.68675 38.4395 11.0818 41.3898 11.0818C44.3395 11.0818 46.735 8.68683 46.735 5.73655C46.735 2.78627 44.3395 0.390869 41.3898 0.390869ZM41.3898 1.90667C43.5033 1.90667 45.2192 3.62259 45.2192 5.73655C45.2192 7.85011 43.5033 9.56596 41.3898 9.56596C39.2757 9.56596 37.5598 7.85011 37.5598 5.73655C37.5598 3.62251 39.2757 1.90667 41.3898 1.90667Z" fill="#0E50F2"/>
<path fill-rule="evenodd" clip-rule="evenodd" d="M10.7878 21.9571C10.9131 22.2098 11.1728 22.378 11.4664 22.378L11.7478 22.3234L18.7265 19.5338C19.8007 19.1049 21.021 19.6278 21.4505 20.702C21.8794 21.7757 21.356 22.996 20.2823 23.4254L11.0658 27.1093C10.185 27.4614 9.18766 27.1765 8.62327 26.4368C8.42624 26.1786 8.08614 26.0745 7.77799 26.1785C7.47031 26.2826 7.26313 26.5717 7.26313 26.8965V30.7027C7.26313 31.0878 7.55163 31.4111 7.93365 31.4556L14.0681 32.164C15.5177 32.3312 16.6121 33.559 16.6121 35.0188V46.8511C16.6121 47.2695 16.9517 47.609 17.37 47.609C17.7884 47.609 18.1278 47.2695 18.1278 46.8511V35.0188C18.1278 32.789 16.4564 30.9139 14.2418 30.6583L8.77885 30.0273V28.4448C9.65299 28.8464 10.6797 28.896 11.6281 28.517L20.8452 24.8332C22.6954 24.093 23.5974 21.99 22.8577 20.1392C22.118 18.2884 20.015 17.3865 18.1643 18.1262L11.7797 20.6783L8.11198 14.6753C7.59411 13.8275 6.74978 13.2307 5.77816 13.0251C5.74836 13.019 5.71856 13.0125 5.68821 13.0063C4.67007 12.7911 3.60849 13.0255 2.77581 13.6495C1.94313 14.2741 1.42019 15.227 1.34133 16.2648C0.895665 22.1289 0.00187759 33.8814 0.00187759 33.8814C0.00029244 33.9006 -0.000183105 33.9198 -0.000183105 33.9391C-0.000183105 36.1663 1.66771 38.0398 3.87923 38.2985L9.34872 39.0048V46.8511C9.34872 47.2695 9.68825 47.6089 10.1066 47.6089C10.5249 47.6089 10.8644 47.2694 10.8644 46.8511V38.3384C10.8644 37.9569 10.5815 37.6355 10.2035 37.5866L4.05947 36.7938C2.61999 36.6276 1.53107 35.4159 1.51546 33.9699C1.51546 33.9658 2.85237 16.3795 2.85237 16.3795C2.89834 15.7777 3.2015 15.2245 3.68458 14.8627C4.16813 14.5004 4.78356 14.3645 5.37467 14.4893L5.46407 14.508C6.02798 14.6273 6.51756 14.9739 6.81818 15.4656C7.96464 17.3421 10.2883 21.1458 10.7416 21.888C10.757 21.9122 10.7721 21.9354 10.7878 21.9571Z" fill="#0E50F2"/>
<path fill-rule="evenodd" clip-rule="evenodd" d="M4.77059 23.0596L7.20602 27.0466C8.12405 28.5493 9.99255 29.1707 11.6281 28.5169C12.0166 28.3618 12.2061 27.9202 12.0506 27.5322C11.8954 27.1436 11.4538 26.9541 11.0658 27.1092C10.1169 27.4887 9.03258 27.1284 8.4995 26.2564L6.06415 22.2693C5.84588 21.9126 5.37897 21.7999 5.02231 22.0177C4.66549 22.236 4.55232 22.7028 4.77059 23.0596Z" fill="#0E50F2"/>
<path fill-rule="evenodd" clip-rule="evenodd" d="M35.5191 21.8267L28.1806 22.8645C26.207 23.1434 24.8317 24.9724 25.1106 26.946C25.3895 28.919 27.2186 30.2949 29.1922 30.016L38.2178 28.7391C38.569 28.6896 38.9064 28.5896 39.2212 28.4445V30.027L33.7583 30.658C31.5437 30.9137 29.8723 32.7887 29.8723 35.0185V46.8508C29.8723 47.2692 30.2118 47.6087 30.6301 47.6087C31.0484 47.6087 31.388 47.2691 31.388 46.8508V35.0185C31.388 33.5588 32.4824 32.3309 33.932 32.1637L40.0644 31.4553H40.0629C40.4424 31.4138 40.7369 31.0925 40.7369 30.7024V26.8958C40.7369 26.5709 40.5297 26.2824 40.222 26.1783C39.9144 26.0737 39.5743 26.1778 39.3767 26.436C39.0448 26.8706 38.5532 27.161 38.0054 27.2384L28.9798 28.5147C27.8344 28.6768 26.7733 27.8786 26.6116 26.7331C26.4495 25.5882 27.2477 24.5272 28.3927 24.3649L36.0834 23.2776L35.9793 23.2846L36.626 22.9219L40.7267 16.2094C41.2512 15.3514 42.2117 14.8588 43.2147 14.9346C43.2289 14.9356 43.2425 14.9366 43.2566 14.9376C44.6077 15.0397 45.6703 16.1341 45.7319 17.4872L46.4842 33.9548C46.4762 35.407 45.3848 36.6262 43.9402 36.7934L37.924 37.4882C37.5456 37.5316 37.2586 37.8495 37.2535 38.2305L37.1353 46.8402C37.1297 47.2586 37.4647 47.6027 37.8826 47.6087C38.301 47.6142 38.645 47.2793 38.6511 46.8609L38.7597 38.9171L44.1141 38.2991C46.3287 38.0434 48 36.1679 48 33.9387C48 33.927 47.9996 33.9154 47.999 33.9038C47.999 33.9038 47.4968 22.9072 47.2461 17.418C47.1491 15.2989 45.4858 13.5856 43.3708 13.4263C43.3566 13.4253 43.3425 13.4238 43.3288 13.4228C41.7585 13.3045 40.2543 14.0755 39.4333 15.4191L35.5191 21.8267Z" fill="#0E50F2"/>
<path fill-rule="evenodd" clip-rule="evenodd" d="M31.1592 2.66453C31.1592 2.06178 30.9197 1.4832 30.4932 1.05679C30.0668 0.630306 29.4888 0.390869 28.8855 0.390869H18.3118C17.0557 0.390869 16.038 1.40901 16.038 2.66453V12.2969C16.038 12.7921 16.327 13.2418 16.7777 13.4469C17.2284 13.652 17.7574 13.5747 18.1308 13.2493C18.8599 12.6142 19.8872 11.7188 20.4596 11.2197C20.598 11.0994 20.7749 11.0333 20.9578 11.0333H28.8854C29.4887 11.0333 30.0668 10.7937 30.4932 10.3673C30.9196 9.94084 31.1591 9.36234 31.1591 8.75959V2.66453H31.1592ZM17.5538 11.7417V2.66453C17.5538 2.24621 17.8929 1.90667 18.3117 1.90667H28.8854C29.0865 1.90667 29.2795 1.98648 29.4215 2.12899C29.5635 2.27094 29.6434 2.46345 29.6434 2.66453V8.75959C29.6434 8.96067 29.5636 9.15318 29.4215 9.29513C29.2796 9.43764 29.0865 9.51745 28.8854 9.51745H20.9579C20.4086 9.51745 19.8781 9.71599 19.4638 10.0768L17.5538 11.7417Z" fill="#FFB053"/>
<path fill-rule="evenodd" clip-rule="evenodd" d="M20.2222 5.08579H27.0897C27.5081 5.08579 27.8476 4.74625 27.8476 4.32793C27.8476 3.90961 27.5081 3.57007 27.0897 3.57007H20.2222C19.8038 3.57007 19.4643 3.90961 19.4643 4.32793C19.4643 4.74625 19.8038 5.08579 20.2222 5.08579Z" fill="#FFB053"/>
<path fill-rule="evenodd" clip-rule="evenodd" d="M20.2222 7.84958H23.5988C24.0167 7.84958 24.3567 7.51004 24.3567 7.09172C24.3567 6.67332 24.0167 6.33386 23.5988 6.33386H20.2222C19.8038 6.33386 19.4643 6.6734 19.4643 7.09172C19.4642 7.51004 19.8038 7.84958 20.2222 7.84958Z" fill="#FFB053"/>
<path fill-rule="evenodd" clip-rule="evenodd" d="M35.9405 29.0617L38.2177 28.7393C39.2863 28.5883 40.2312 27.9673 40.7941 27.0467L43.2294 23.0597C43.4477 22.7029 43.3345 22.2361 42.9778 22.0178C42.621 21.8 42.1542 21.9127 41.9359 22.2695L39.5006 26.2565C39.1742 26.7905 38.6254 27.1509 38.0055 27.2387L35.7282 27.5606C35.3139 27.6193 35.0249 28.0033 35.0835 28.4175C35.1421 28.8313 35.5261 29.1202 35.9405 29.0617Z" fill="#0E50F2"/>
</svg>
