<svg width="60" height="60" viewBox="0 0 60 60" fill="none" xmlns="http://www.w3.org/2000/svg">
<path d="M26.106 20.4959V37.0619C26.106 37.5899 26.568 38.0519 27.096 38.0519H32.838C33.366 38.0519 33.828 37.5899 33.828 37.0619V20.4959C33.828 19.9679 33.366 19.5059 32.838 19.5059H27.096C26.568 19.5059 26.106 19.9019 26.106 20.4959ZM28.086 21.4859H31.848V36.0719H28.086V21.4859Z" fill="#FFB053"/>
<path d="M43.134 38.052C43.662 38.052 44.124 37.59 44.124 37.062V25.314C44.124 24.786 43.662 24.324 43.134 24.324H37.392C36.864 24.324 36.402 24.786 36.402 25.314V37.128C36.402 37.656 36.864 38.118 37.392 38.118H43.134V38.052ZM38.382 26.304H42.144V36.138H38.382V26.304Z" fill="#FFB053"/>
<path d="M16.866 27.6899C16.338 27.6899 15.876 28.1519 15.876 28.6799V37.0619C15.876 37.5899 16.338 38.0519 16.866 38.0519H22.608C23.136 38.0519 23.598 37.5899 23.598 37.0619V28.6799C23.598 28.1519 23.136 27.6899 22.608 27.6899H16.866ZM21.618 36.0719H17.856V29.6699H21.618V36.0719Z" fill="#FFB053"/>
<path d="M32.97 0.761963C32.706 0.761963 32.442 0.827963 32.178 1.02596C31.98 1.22396 31.848 1.48796 31.848 1.75196V10.2C31.848 10.662 32.178 11.124 32.706 11.19C41.946 12.51 48.942 20.628 48.942 29.934C48.942 35.412 46.566 40.626 42.408 44.256C42.012 44.586 41.946 45.114 42.21 45.51L46.764 52.572C46.896 52.836 47.16 52.968 47.424 53.034H47.556C47.754 53.034 48.018 52.968 48.15 52.836C55.212 47.226 59.238 38.91 59.238 29.934C59.37 14.82 48.018 2.27996 32.97 0.761963ZM47.886 50.592L44.388 45.18C48.612 41.22 50.988 35.742 50.988 29.934C50.988 19.902 43.662 11.19 33.894 9.34196V2.87396C47.358 4.78796 57.39 16.206 57.39 29.934C57.39 37.92 53.958 45.378 47.886 50.592Z" fill="#0E50F2"/>
<path d="M2.41201 23.532L10.728 24.918H10.86C11.256 24.918 11.652 24.654 11.784 24.258C14.028 17.328 20.1 12.18 27.228 11.19C27.69 11.124 28.086 10.728 28.086 10.2V1.75196C28.086 1.48796 27.954 1.22396 27.756 1.02596C27.558 0.827963 27.294 0.761963 26.964 0.761963C14.952 2.01596 4.78801 10.662 1.62001 22.278C1.55401 22.542 1.62001 22.806 1.75201 23.07C1.88401 23.334 2.14801 23.466 2.41201 23.532ZM26.106 2.87396V9.34196C18.846 10.728 12.774 15.876 10.266 22.806L3.86401 21.75C6.96601 11.784 15.744 4.32596 26.106 2.87396Z" fill="#0E50F2"/>
<path d="M39.108 47.5559C38.844 47.1599 38.316 46.9619 37.854 47.1599C35.412 48.2819 32.706 48.8759 30 48.8759C19.506 48.8759 10.992 40.3619 10.992 29.9339V29.6039C10.992 29.1419 10.662 28.6799 10.134 28.6139L1.81803 27.2279C1.55403 27.1619 1.29003 27.2279 1.02603 27.4259C0.828026 27.6239 0.696026 27.8879 0.630026 28.1519C0.564026 28.7459 0.564026 29.3399 0.564026 29.9339C0.564026 46.1039 13.764 59.2379 29.934 59.2379C34.62 59.2379 39.108 58.1819 43.2 56.0699C43.464 55.9379 43.662 55.7399 43.728 55.4759C43.794 55.2119 43.728 54.9479 43.596 54.6839L39.108 47.5559ZM30 57.2579C14.886 57.2579 2.61003 44.9819 2.61003 29.9339C2.61003 29.7359 2.61003 29.6039 2.61003 29.4059L9.01203 30.4619C9.27603 41.7479 18.582 50.9219 30 50.9219C32.706 50.9219 35.412 50.3939 37.92 49.4039L41.418 54.8819C37.788 56.3999 33.96 57.2579 30 57.2579Z" fill="#0E50F2"/>
</svg>
