<svg width="54" height="54" viewBox="0 0 54 54" fill="none" xmlns="http://www.w3.org/2000/svg">
<path d="M47.7509 28.5262C47.2653 27.8967 46.7384 27.2669 46.1753 26.6396C46.5623 26.1904 46.9312 25.7404 47.2783 25.2905C50.8659 20.6387 51.8845 16.4187 50.1464 13.4083C48.4084 10.3978 44.245 9.17009 38.4221 9.95119C37.8082 10.0336 37.1816 10.138 36.545 10.262C36.3284 9.62866 36.099 9.01515 35.8562 8.42495C33.6213 2.99204 30.4761 0 27 0C23.5239 0 20.3787 2.99204 18.1439 8.42495C17.9011 9.01515 17.6717 9.62866 17.4551 10.262C16.8185 10.1381 16.1918 10.0336 15.5781 9.95119C9.75575 9.17019 5.59185 10.3978 3.85372 13.4083C2.1156 16.4188 3.13421 20.6387 6.72184 25.2905C7.06883 25.7404 7.43766 26.1904 7.82483 26.6396C7.26163 27.2669 6.73481 27.8966 6.24923 28.5262C2.66161 33.178 1.64299 37.398 3.38112 40.4083C4.77763 42.8272 7.73919 44.095 11.8697 44.095C12.8799 44.095 13.961 44.0191 15.1053 43.8655C15.8424 43.7666 16.5977 43.6362 17.3672 43.4775C17.6093 44.2035 17.868 44.9044 18.1439 45.5752C20.3787 51.008 23.5239 54 27 54C30.4761 54 33.6213 51.008 35.8561 45.5751C36.132 44.9043 36.3907 44.2034 36.6328 43.4774C37.4023 43.6361 38.1576 43.7666 38.8947 43.8654C40.0393 44.019 41.1197 44.0949 42.1303 44.0949C46.2604 44.0949 49.2226 42.827 50.6189 40.4082C52.3571 37.3979 51.3385 33.178 47.7509 28.5262ZM41.6756 12.8805C44.5677 12.8805 46.6119 13.6146 47.4062 14.9903C48.4455 16.7904 47.4856 19.8404 44.7727 23.3581C44.5142 23.6932 44.242 24.0286 43.9585 24.3639C42.3724 22.8549 40.5869 21.3783 38.6444 19.9711C38.3761 17.6279 37.9727 15.3888 37.4451 13.307C38.9938 13.0212 40.4158 12.8805 41.6756 12.8805ZM31.2003 34.5929C29.778 35.414 28.3744 36.1506 27.0009 36.8055C25.6267 36.1504 24.2227 35.4145 22.7997 34.5929C21.2298 33.6865 19.7274 32.7272 18.31 31.7307C18.191 30.2172 18.1267 28.638 18.1267 27C18.1267 25.1651 18.2072 23.4036 18.3553 21.7264C19.6192 20.8584 20.9469 20.0206 22.327 19.2238C23.9132 18.308 25.476 17.4986 26.9999 16.7891C28.5239 17.4986 30.0866 18.308 31.6729 19.2238C33.0531 20.0206 34.3807 20.8584 35.6446 21.7264C35.7927 23.4036 35.8732 25.1651 35.8732 27C35.8732 28.638 35.8089 30.2172 35.6899 31.7307C34.2726 32.7272 32.7702 33.6865 31.2003 34.5929ZM35.2073 35.8598C34.9953 37.2066 34.7381 38.4824 34.4428 39.678C33.2693 39.337 32.0466 38.9244 30.7855 38.4383C31.4527 38.084 32.1189 37.716 32.7823 37.3331C33.6086 36.8559 34.4172 36.3639 35.2073 35.8598ZM23.2143 38.4382C21.953 38.9244 20.7306 39.3366 19.557 39.6776C19.2618 38.4822 19.0046 37.2065 18.7926 35.8598C19.5827 36.3639 20.3913 36.8559 21.2176 37.333C21.881 37.716 22.5471 38.084 23.2143 38.4382ZM15.0012 29.2089C13.9993 28.3789 13.0605 27.5332 12.1943 26.6797C13.0721 25.8426 14.018 25.0147 15.0241 24.2029C14.9837 25.1262 14.9626 26.0594 14.9626 27C14.9626 27.7413 14.976 28.4779 15.0012 29.2089ZM18.8802 17.6036C19.0929 16.3429 19.3456 15.1479 19.632 14.0254C20.7561 14.3396 21.9277 14.721 23.1365 15.1704C22.3372 15.5875 21.5391 16.0252 20.7451 16.4837C20.1129 16.8486 19.4914 17.2225 18.8802 17.6036ZM30.8634 15.1703C32.0722 14.7209 33.2437 14.3394 34.368 14.0253C34.6544 15.1479 34.9071 16.3429 35.1198 17.6036C34.5086 17.2225 33.8871 16.8486 33.255 16.4837C32.4608 16.0251 31.6628 15.5874 30.8634 15.1703ZM38.9759 24.2029C39.982 25.0147 40.9279 25.8426 41.8057 26.6797C40.9395 27.5332 40.0007 28.3789 38.9988 29.2089C39.024 28.4779 39.0374 27.7413 39.0374 27C39.0374 26.0593 39.0163 25.1262 38.9759 24.2029ZM27 3.16406C29.2886 3.16406 31.7196 6.07532 33.4573 11.0001C31.3637 11.5885 29.1933 12.3686 27 13.3223C24.8067 12.3686 22.6363 11.5886 20.5427 11.0001C22.2804 6.07532 24.7114 3.16406 27 3.16406ZM6.5938 14.9904C7.38819 13.6145 9.43144 12.8806 12.3244 12.8806C13.5841 12.8806 15.0062 13.0213 16.555 13.3072C16.0273 15.3891 15.624 17.6282 15.3557 19.9712C13.4132 21.3784 11.6277 22.855 10.0416 24.364C9.75807 24.0287 9.48586 23.6933 9.22736 23.3582C6.51438 19.8405 5.55451 16.7905 6.5938 14.9904ZM11.8518 40.9361C8.95968 40.9359 6.91548 40.2019 6.12119 38.8263C5.08191 37.0262 6.04178 33.9762 8.75464 30.4585C9.14119 29.9572 9.55663 29.4554 9.99844 28.9544C11.5667 30.4962 13.3466 32.0085 15.2928 33.4526C15.5489 35.9064 15.9512 38.2536 16.489 40.4322C14.7815 40.7708 13.2211 40.9362 11.8518 40.9361ZM27 50.8359C24.667 50.8359 22.1863 47.81 20.4427 42.7105C22.5717 42.0916 24.7762 41.2767 27 40.2861C29.2238 41.2767 31.4283 42.0916 33.5573 42.7105C31.8137 47.81 29.333 50.8359 27 50.8359ZM47.8788 38.8263C46.7085 40.8534 42.826 41.4863 37.5109 40.4322C38.0488 38.2536 38.451 35.9064 38.7071 33.4526C40.6534 32.0085 42.4333 30.4962 44.0015 28.9544C44.4433 29.4554 44.8587 29.9573 45.2453 30.4585C47.9583 33.9762 48.9182 37.0262 47.8788 38.8263Z" fill="#00D8FF"/>
<path d="M27 31.8885C29.6999 31.8885 31.8885 29.6999 31.8885 27C31.8885 24.3002 29.6999 22.1116 27 22.1116C24.3002 22.1116 22.1116 24.3002 22.1116 27C22.1116 29.6999 24.3002 31.8885 27 31.8885Z" fill="#00D8FF"/>
</svg>
