<svg width="16" height="16" viewBox="0 0 16 16" fill="none" xmlns="http://www.w3.org/2000/svg">
<path d="M14.6435 5.27739L9.44599 1.12239C8.64349 0.477387 7.34599 0.477387 6.55099 1.11489L1.35349 5.27739C0.76849 5.74239 0.39349 6.72489 0.52099 7.45989L1.51849 13.4299C1.69849 14.4949 2.71849 15.3574 3.79849 15.3574H12.1985C13.271 15.3574 14.2985 14.4874 14.4785 13.4299L15.476 7.45989C15.596 6.72489 15.221 5.74239 14.6435 5.27739ZM8.53099 11.8999C8.38099 12.0499 8.19349 12.1249 7.99849 12.1249C7.80349 12.1249 7.61599 12.0499 7.46599 11.9074C7.17349 11.6149 7.17349 11.1424 7.46599 10.8499C7.75849 10.5574 8.23849 10.5574 8.53099 10.8499C8.82349 11.1349 8.82349 11.6074 8.53099 11.8999ZM9.99349 10.1749C9.88099 10.2874 9.73849 10.3474 9.58849 10.3474C9.44599 10.3474 9.31099 10.2949 9.19849 10.1899C8.47099 9.49239 7.52599 9.49239 6.79099 10.1899C6.56599 10.4074 6.21349 10.3999 5.99599 10.1749C5.77849 9.94989 5.78599 9.59739 6.01099 9.37989C7.17349 8.26239 8.80099 8.26239 9.97099 9.37989C10.2035 9.58989 10.211 9.94989 9.99349 10.1749ZM11.5835 8.58489C11.471 8.69739 11.3285 8.75739 11.1785 8.75739C11.036 8.75739 10.8935 8.70489 10.7885 8.59989C10.436 8.25489 10.0385 7.97739 9.61849 7.77489C8.56849 7.27239 7.42099 7.27239 6.37849 7.77489C5.95849 7.97739 5.56849 8.25489 5.20849 8.59989C4.99099 8.81739 4.63099 8.81739 4.41349 8.59239C4.19599 8.36739 4.20349 8.01489 4.42099 7.79739C4.86349 7.36239 5.35849 7.01739 5.89099 6.76239C7.24849 6.10989 8.74849 6.10989 10.0985 6.76239C10.631 7.01739 11.126 7.36239 11.5685 7.79739C11.7935 8.00739 11.801 8.36739 11.5835 8.58489Z" fill="#0044EB"/>
</svg>
