<svg width="16" height="16" viewBox="0 0 16 16" fill="none" xmlns="http://www.w3.org/2000/svg">
<path d="M11.1425 0.5H4.8575C2.1275 0.5 0.5 2.1275 0.5 4.8575V11.135C0.5 13.8725 2.1275 15.5 4.8575 15.5H11.135C13.865 15.5 15.4925 13.8725 15.4925 11.1425V4.8575C15.5 2.1275 13.8725 0.5 11.1425 0.5ZM7.2125 12.1325C6.995 12.35 6.5825 12.56 6.2825 12.605L4.4375 12.8675C4.37 12.875 4.3025 12.8825 4.235 12.8825C3.9275 12.8825 3.6425 12.7775 3.44 12.575C3.1925 12.3275 3.0875 11.9675 3.1475 11.57L3.41 9.725C3.455 9.4175 3.6575 9.0125 3.8825 8.795L7.2275 5.45C7.2875 5.6075 7.3475 5.765 7.43 5.945C7.505 6.1025 7.5875 6.2675 7.6775 6.4175C7.7525 6.545 7.835 6.665 7.9025 6.755C7.985 6.8825 8.0825 7.0025 8.1425 7.07C8.18 7.1225 8.21 7.16 8.225 7.175C8.4125 7.4 8.63 7.61 8.8175 7.7675C8.87 7.82 8.9 7.85 8.915 7.8575C9.0275 7.9475 9.14 8.0375 9.2375 8.105C9.3575 8.195 9.4775 8.2775 9.605 8.345C9.755 8.435 9.92 8.5175 10.085 8.6C10.2575 8.675 10.415 8.7425 10.5725 8.795L7.2125 12.1325ZM12.0275 7.3175L11.3375 8.015C11.2925 8.06 11.2325 8.0825 11.1725 8.0825C11.15 8.0825 11.12 8.0825 11.105 8.075C9.5825 7.64 8.3675 6.425 7.9325 4.9025C7.91 4.82 7.9325 4.73 7.9925 4.6775L8.69 3.98C9.83 2.84 10.9175 2.8625 12.035 3.98C12.605 4.55 12.8825 5.0975 12.8825 5.6675C12.875 6.2075 12.5975 6.7475 12.0275 7.3175Z" fill="#0044EB"/>
</svg>
