<svg width="58" height="56" viewBox="0 0 58 56" fill="none" xmlns="http://www.w3.org/2000/svg">
<path d="M52.2243 0.881104H5.77567C2.72338 0.881104 0.240234 3.36437 0.240234 6.41666V37.5397C0.240234 40.592 2.72338 43.0751 5.77567 43.0751H18.856L16.8346 53.3122C16.7468 53.7563 16.8627 54.2166 17.1501 54.5664C17.4377 54.9163 17.8666 55.119 18.3195 55.119H39.6805H39.6829C40.5189 55.119 41.1966 54.4412 41.1966 53.6053C41.1966 53.4733 41.1797 53.3452 41.148 53.2232L39.1441 43.0751H52.2244C55.2767 43.0751 57.7599 40.592 57.7599 37.5397V6.41666C57.7598 3.36437 55.2766 0.881104 52.2243 0.881104ZM37.8386 52.0917H20.1614L21.9418 43.0751H36.0583L37.8386 52.0917ZM54.7324 37.5397C54.7324 38.9226 53.6073 40.0478 52.2243 40.0478H5.77567C4.39278 40.0478 3.26758 38.9226 3.26758 37.5397V6.41666C3.26758 5.03365 4.39278 3.90857 5.77567 3.90857H52.2243C53.6073 3.90857 54.7324 5.03377 54.7324 6.41666V37.5397ZM49.7122 7.71818H8.28813C7.45209 7.71818 6.77445 8.39582 6.77445 9.23185V29.8769C6.77445 30.7129 7.45209 31.3906 8.28813 31.3906H49.7122C50.5481 31.3906 51.2259 30.7129 51.2259 29.8769V9.23185C51.2259 8.39582 50.5481 7.71818 49.7122 7.71818ZM48.1986 28.3632H9.8018V10.7455H48.1986V28.3632ZM33.4228 35.1051C33.4228 35.9411 32.7451 36.6188 31.9092 36.6188H26.0911C25.2552 36.6188 24.5774 35.9411 24.5774 35.1051C24.5774 34.2691 25.2552 33.5914 26.0911 33.5914H31.9092C32.7452 33.5914 33.4228 34.2692 33.4228 35.1051ZM47.7617 35.1051C47.7617 35.9411 47.0839 36.6188 46.248 36.6188H40.4299C39.594 36.6188 38.9162 35.9411 38.9162 35.1051C38.9162 34.2691 39.594 33.5914 40.4299 33.5914H46.248C47.0839 33.5914 47.7617 34.2692 47.7617 35.1051Z" fill="#0044EB"/>
</svg>
