<svg width="62" height="62" viewBox="0 0 62 62" fill="none" xmlns="http://www.w3.org/2000/svg">
<path d="M36.1302 24.646L28.6623 39.3853C28.3749 39.9528 27.8009 40.2799 27.2056 40.2799C26.9576 40.2799 26.7058 40.2231 26.4694 40.1033C25.6656 39.6961 25.3442 38.7142 25.7514 37.9105L33.2193 23.1712C33.6266 22.3673 34.6087 22.0458 35.4122 22.4531C36.216 22.8605 36.5374 23.8422 36.1302 24.646ZM40.7383 27.4882C40.1012 26.8511 39.068 26.8511 38.4309 27.4882C37.7936 28.1254 37.7936 29.1584 38.4309 29.7956L42.0019 33.3667L38.4309 36.9376C37.7936 37.5749 37.7936 38.6079 38.4309 39.2451C38.7495 39.5637 39.167 39.7229 39.5846 39.7229C40.002 39.7229 40.4197 39.5636 40.7383 39.2451L45.4631 34.5204C45.7691 34.2145 45.941 33.7995 45.941 33.3667C45.941 32.9339 45.7691 32.5191 45.4631 32.213L40.7383 27.4882ZM23.569 22.1983C22.9318 21.5611 21.8988 21.5613 21.2616 22.1983L16.5368 26.923C16.2308 27.229 16.0589 27.6439 16.0589 28.0767C16.0589 28.5096 16.2308 28.9244 16.5368 29.2305L21.2616 33.9552C21.58 34.2737 21.9977 34.4331 22.4153 34.4331C22.8328 34.4331 23.2504 34.2737 23.569 33.9552C24.2062 33.318 24.2062 32.285 23.569 31.6478L19.9979 28.0767L23.569 24.5058C24.2062 23.8686 24.2062 22.8356 23.569 22.1983ZM51.3519 32.6316V42.1455H60.3684C61.2694 42.1455 62 42.8761 62 43.7771C62 44.6781 61.2694 45.4087 60.3684 45.4087H51.173C50.5404 48.2778 48.2776 50.5406 45.4085 51.1731V60.3684C45.4085 61.2694 44.678 62 43.777 62C42.8759 62 42.1454 61.2694 42.1454 60.3684V51.3519H32.6316V60.3684C32.6316 61.2694 31.901 62 31 62C30.099 62 29.3684 61.2694 29.3684 60.3684V51.3519H19.8545V60.3684C19.8545 61.2694 19.1239 62 18.2229 62C17.3219 62 16.5913 61.2694 16.5913 60.3684V51.173C13.7222 50.5404 11.4594 48.2776 10.8269 45.4085H1.63158C0.730556 45.4085 0 44.678 0 43.777C0 42.8759 0.730556 42.1454 1.63158 42.1454H10.6481V32.6316H1.63158C0.730556 32.6316 0 31.901 0 31C0 30.099 0.730556 29.3684 1.63158 29.3684H10.6481V19.8545H1.63158C0.730556 19.8545 0 19.1239 0 18.2229C0 17.3219 0.730556 16.5913 1.63158 16.5913H10.827C11.4596 13.7222 13.7224 11.4594 16.5915 10.8269V1.63158C16.5915 0.730556 17.322 0 18.223 0C19.1241 0 19.8546 0.730556 19.8546 1.63158V10.6481H29.3684V1.63158C29.3684 0.730556 30.099 0 31 0C31.901 0 32.6316 0.730556 32.6316 1.63158V10.6481H42.1455V1.63158C42.1455 0.730556 42.8761 0 43.7771 0C44.6781 0 45.4087 0.730556 45.4087 1.63158V10.827C48.2778 11.4596 50.5406 13.7224 51.1731 16.5915H60.3684C61.2694 16.5915 62 17.322 62 18.223C62 19.1241 61.2694 19.8546 60.3684 19.8546H51.3519V29.3684H60.3684C61.2694 29.3684 62 30.099 62 31C62 31.901 61.2694 32.6316 60.3684 32.6316H51.3519ZM48.0888 43.7771V18.2229C48.0888 15.8454 46.1546 13.9112 43.7771 13.9112H18.2229C15.8454 13.9112 13.9112 15.8454 13.9112 18.2229V43.777C13.9112 46.1545 15.8454 48.0886 18.2229 48.0886H43.777C46.1546 48.0888 48.0888 46.1546 48.0888 43.7771Z" fill="#0044EB"/>
</svg>
