<svg width="46" height="46" viewBox="0 0 46 46" fill="none" xmlns="http://www.w3.org/2000/svg">
<path d="M29.3451 11.9547C30.5835 11.9547 31.5911 10.9471 31.5911 9.70859C31.5911 8.47009 30.5835 7.4624 29.3451 7.4624C28.1066 7.4624 27.099 8.47009 27.099 9.70859C27.099 10.2144 27.2671 10.6816 27.5504 11.0575L23.86 16.2146C23.6398 16.1423 23.4049 16.1026 23.1607 16.1026C22.5705 16.1026 22.033 16.3318 21.6318 16.7053L19.172 15.3095C19.2047 15.1572 19.2224 14.9992 19.2224 14.8372C19.2224 13.5987 18.2148 12.5911 16.9763 12.5911C15.7378 12.5911 14.7302 13.5987 14.7302 14.8372C14.7302 14.9992 14.7478 15.1572 14.7806 15.3095L12.3207 16.7053C11.9195 16.3318 11.3821 16.1027 10.7919 16.1027C9.55337 16.1027 8.54578 17.1104 8.54578 18.3489C8.54578 19.5874 9.55337 20.595 10.7919 20.595C12.0304 20.595 13.038 19.5874 13.038 18.3489C13.038 18.1869 13.0204 18.0289 12.9876 17.8766L15.4474 16.4807C15.8486 16.8543 16.3861 17.0835 16.9763 17.0835C17.5664 17.0835 18.1038 16.8543 18.5051 16.4808L20.965 17.8766C20.9322 18.029 20.9146 18.187 20.9146 18.349C20.9146 19.5874 21.9222 20.5951 23.1607 20.5951C24.3992 20.5951 25.4068 19.5874 25.4068 18.349C25.4068 17.843 25.2386 17.3758 24.9553 16.9999L28.6457 11.8427C28.8658 11.915 29.1009 11.9547 29.3451 11.9547ZM29.3451 8.81006C29.8405 8.81006 30.2435 9.2131 30.2435 9.70859C30.2435 10.204 29.8405 10.607 29.3451 10.607C28.8497 10.607 28.4466 10.204 28.4466 9.70859C28.4465 9.2131 28.8496 8.81006 29.3451 8.81006ZM10.7916 19.2472C10.2962 19.2472 9.89316 18.8442 9.89316 18.3487C9.89316 17.8532 10.2962 17.4502 10.7916 17.4502C11.287 17.4502 11.69 17.8532 11.69 18.3487C11.69 18.8442 11.287 19.2472 10.7916 19.2472ZM16.9761 15.7357C16.4807 15.7357 16.0776 15.3326 16.0776 14.8371C16.0776 14.3417 16.4807 13.9387 16.9761 13.9387C17.4715 13.9387 17.8745 14.3417 17.8745 14.8371C17.8746 15.3326 17.4715 15.7357 16.9761 15.7357ZM23.1606 19.2472C22.6652 19.2472 22.2621 18.8442 22.2621 18.3487C22.2621 17.8532 22.6652 17.4502 23.1606 17.4502C23.6561 17.4502 24.0591 17.8532 24.0591 18.3487C24.0591 18.8442 23.656 19.2472 23.1606 19.2472Z" fill="#0E50F2"/>
<path d="M37.6262 33.8678H32.9107H7.22595H1.90604C1.59814 33.8678 1.34766 33.6173 1.34766 33.3094V5.51004C1.34766 5.20214 1.59814 4.95166 1.90604 4.95166H5.08255C5.45468 4.95166 5.75638 4.65005 5.75638 4.27783C5.75638 3.90561 5.45468 3.604 5.08255 3.604H1.90604C0.855043 3.604 0 4.45905 0 5.51004V33.3094C0 34.3604 0.855043 35.2154 1.90604 35.2154H6.55212V36.6984C6.55212 37.5432 7.23943 38.2305 8.08423 38.2305H14.8292L11.6541 44.4295C11.4845 44.7608 11.6154 45.1668 11.9466 45.3365C12.0449 45.3869 12.1498 45.4107 12.2533 45.4107C12.4981 45.4107 12.7343 45.2769 12.8535 45.0439L16.3433 38.2305H23.7933L27.2831 45.0439C27.4024 45.2769 27.6385 45.4107 27.8834 45.4107C27.9868 45.4107 28.0917 45.3867 28.19 45.3365C28.5213 45.1668 28.6523 44.7608 28.4825 44.4295L25.3075 38.2305H32.0524C32.8972 38.2305 33.5845 37.5433 33.5845 36.6984V35.2154H37.6262C37.9983 35.2154 38.3 34.9138 38.3 34.5416C38.3 34.1694 37.9983 33.8678 37.6262 33.8678ZM32.2368 36.6984C32.2368 36.8001 32.1541 36.8829 32.0524 36.8829H8.08423C7.98253 36.8829 7.89978 36.8001 7.89978 36.6984V35.2154H32.2368V36.6984Z" fill="#0E50F2"/>
<path d="M7.77789 4.95174H17.0023H23.1343H38.2305C38.5384 4.95174 38.7889 5.20223 38.7889 5.51012V11.917C38.7889 12.2892 39.0906 12.5908 39.4627 12.5908C39.8349 12.5908 40.1366 12.2892 40.1366 11.917V5.51012C40.1366 4.45913 39.2815 3.60409 38.2305 3.60409H23.8082V2.27961C23.8082 1.34748 23.0498 0.589111 22.1176 0.589111H18.0191C17.087 0.589111 16.3285 1.34748 16.3285 2.27961V3.60409H7.77789C7.40576 3.60409 7.10406 3.90569 7.10406 4.27792C7.10406 4.65014 7.40576 4.95174 7.77789 4.95174ZM17.6762 2.27961C17.6762 2.09058 17.83 1.93677 18.0191 1.93677H22.1176C22.3066 1.93677 22.4605 2.09058 22.4605 2.27961V3.60409H17.6762V2.27961H17.6762Z" fill="#0E50F2"/>
<path d="M9.4248 24.04C9.05267 24.04 8.75098 24.3416 8.75098 24.7139V30.668C8.75098 31.0402 9.05267 31.3418 9.4248 31.3418H12.1585C12.5306 31.3418 12.8323 31.0402 12.8323 30.668V24.7139C12.8323 24.3416 12.5306 24.04 12.1585 24.04H9.4248ZM11.4847 29.9943H10.0986V25.3878H11.4847V29.9943Z" fill="#0E50F2"/>
<path d="M15.6092 20.5964C15.2371 20.5964 14.9354 20.898 14.9354 21.2703V30.668C14.9354 31.0402 15.2371 31.3418 15.6092 31.3418H18.3429C18.715 31.3418 19.0167 31.0402 19.0167 30.668V21.2703C19.0167 20.898 18.715 20.5964 18.3429 20.5964H15.6092ZM17.6691 29.9942H16.2831V21.9441H17.6691V29.9942Z" fill="#0E50F2"/>
<path d="M21.7936 24.04C21.4215 24.04 21.1198 24.3416 21.1198 24.7139V30.668C21.1198 31.0402 21.4215 31.3418 21.7936 31.3418H24.5273C24.8994 31.3418 25.2011 31.0402 25.2011 30.668V24.7139C25.2011 24.3416 24.8994 24.04 24.5273 24.04H21.7936ZM23.8535 29.9943H22.4675V25.3878H23.8535V29.9943Z" fill="#0E50F2"/>
<path d="M27.9781 28.0161C27.606 28.0161 27.3043 28.3177 27.3043 28.6899V30.668C27.3043 31.0403 27.606 31.3419 27.9781 31.3419H30.7118C31.084 31.3419 31.3857 31.0403 31.3857 30.668C31.3857 30.2958 31.084 29.9942 30.7118 29.9942H28.652V28.6899C28.652 28.3177 28.3503 28.0161 27.9781 28.0161Z" fill="#0E50F2"/>
<path d="M45.6564 34.5016L41.7907 27.8059C42.7701 26.762 43.4832 25.4865 43.8642 24.0648C44.473 21.7926 44.1606 19.4192 42.9843 17.3819C40.5562 13.176 35.1592 11.7301 30.9536 14.1582C26.748 16.5862 25.3019 21.9832 27.73 26.1889C28.9063 28.2262 30.8055 29.6834 33.0777 30.2924C33.8365 30.4957 34.6064 30.5963 35.3714 30.5963C36.04 30.5963 36.7048 30.5193 37.3549 30.3672L41.2198 37.063C41.6935 37.8839 42.5562 38.3433 43.4423 38.3432C43.8765 38.3432 44.3164 38.2328 44.7188 38.0006C45.509 37.5445 46 36.694 46 35.781C46 35.3336 45.8813 34.8913 45.6564 34.5016ZM33.4265 28.9907C31.5019 28.475 29.8933 27.2406 28.897 25.5151C26.8405 21.9529 28.0653 17.3819 31.6274 15.3252C32.7992 14.6487 34.0797 14.3274 35.3446 14.3274C37.9244 14.3274 40.4372 15.6655 41.8172 18.0557C42.8134 19.7812 43.078 21.7914 42.5623 23.716C42.0466 25.6407 40.8123 27.2491 39.0867 28.2454C37.3613 29.2417 35.3511 29.5062 33.4265 28.9907ZM44.0452 36.8334C43.4654 37.1681 42.7215 36.9689 42.3871 36.3894L38.6686 29.9472C39.0413 29.7951 39.4062 29.6172 39.7607 29.4126C40.1155 29.2077 40.4515 28.9797 40.7697 28.7328L44.4892 35.1752C44.5959 35.3604 44.6524 35.5699 44.6524 35.781C44.6524 36.2139 44.4197 36.6172 44.0452 36.8334Z" fill="#FFB053"/>
<path d="M41.4667 23.6838C41.9424 22.1514 41.8291 20.5109 41.1477 19.0644C40.989 18.7277 40.5876 18.5834 40.2509 18.742C39.9142 18.9006 39.7699 19.3021 39.9286 19.6387C40.4661 20.7797 40.5553 22.0743 40.1797 23.2841C39.802 24.5006 38.986 25.5215 37.8821 26.1588C36.714 26.8334 35.3529 27.0124 34.0501 26.6633C32.7472 26.3142 31.6581 25.4785 30.9837 24.3104C29.5914 21.8989 30.4207 18.8043 32.8322 17.412C34.5953 16.3942 36.7835 16.5302 38.4071 17.7585C38.7039 17.9831 39.1264 17.9247 39.351 17.6278C39.5755 17.3311 39.517 16.9084 39.2201 16.6839C37.1635 15.1277 34.3915 14.9555 32.1582 16.2449C30.6783 17.0993 29.6197 18.4789 29.1774 20.1295C28.7351 21.7801 28.9621 23.5042 29.8166 24.9841C30.671 26.4641 32.0506 27.5227 33.7012 27.9651C34.2524 28.1128 34.8118 28.1858 35.3675 28.1858C36.476 28.1858 37.5702 27.8951 38.5558 27.3259C39.9544 26.5186 40.9882 25.2252 41.4667 23.6838Z" fill="#FFB053"/>
</svg>
