<svg width="18" height="18" viewBox="0 0 18 18" fill="none" xmlns="http://www.w3.org/2000/svg">
<path d="M7.44973 7.1875C5.85598 8.78125 5.76223 11.3438 7.16848 13.0312C7.35598 13.2812 7.23098 13.1562 9.79348 15.7188C11.5122 17.4375 14.2935 17.4375 15.981 15.7188C17.6997 14.0312 17.6997 11.25 15.981 9.53125C14.981 8.53125 14.3872 7.9375 14.0122 7.5625C13.7935 7.34375 13.3872 7.5 13.3872 7.8125C13.356 8.21875 13.3247 8.625 13.231 9C13.1997 9.125 13.231 9.25 13.3247 9.34375L14.7622 10.7812C15.7935 11.8125 15.7935 13.4688 14.7622 14.5C13.731 15.5312 12.0747 15.5312 11.0435 14.5L8.69973 12.1562C7.66848 11.125 7.66848 9.46875 8.69973 8.4375C8.88723 8.21875 9.13723 8.0625 9.41848 7.9375C9.54348 7.84375 9.63723 7.6875 9.60598 7.53125C9.57473 7.1875 9.41848 6.84375 9.13723 6.59375L9.01223 6.46875C8.88723 6.34375 8.73098 6.3125 8.57473 6.375C8.16848 6.59375 7.79348 6.84375 7.44973 7.1875ZM2.57473 2.3125C0.855984 4 0.855984 6.78125 2.57473 8.5C3.57473 9.5 4.16848 10.0938 4.54348 10.4688C4.76223 10.6875 5.16848 10.5312 5.16848 10.2188C5.19973 9.8125 5.23098 9.40625 5.32473 9.03125C5.35598 8.90625 5.32473 8.78125 5.23098 8.6875L3.79348 7.25C2.76223 6.21875 2.76223 4.5625 3.79348 3.53125C4.82473 2.5 6.48098 2.5 7.51223 3.53125L9.85598 5.875C10.8872 6.90625 10.8872 8.5625 9.85598 9.59375C9.66848 9.8125 9.41848 9.96875 9.13723 10.0938C9.01223 10.1875 8.91848 10.3438 8.94973 10.5C8.98098 10.8438 9.13723 11.1875 9.41848 11.4375L9.54348 11.5625C9.66848 11.6875 9.82473 11.7188 9.98098 11.6562C10.3872 11.4375 10.7622 11.1875 11.106 10.8438C12.6997 9.25 12.7935 6.6875 11.3872 5C11.1997 4.75 11.3247 4.875 8.76223 2.3125C7.04348 0.59375 4.26223 0.59375 2.57473 2.3125Z" fill="#020842"/>
</svg>
