<svg width="41" height="62" viewBox="0 0 41 62" fill="none" xmlns="http://www.w3.org/2000/svg">
<path d="M15.8033 36.0584L21.942 24.8885C22.3838 24.0846 23.449 23.7632 24.3206 24.1705C25.1925 24.5777 25.5412 25.5595 25.0994 26.3633L18.9607 37.5332C18.649 38.1008 18.0264 38.4279 17.3807 38.4279C17.1117 38.4279 16.8385 38.3711 16.5821 38.2513C15.7103 37.844 15.3615 36.8622 15.8033 36.0584ZM28.8082 28.0592C28.1171 27.422 26.9964 27.422 26.3053 28.0592C25.6141 28.6963 25.6141 29.7295 26.3053 30.3667L28.9377 32.7936L26.3053 35.2204C25.6141 35.8575 25.6141 36.8907 26.3053 37.5279C26.6508 37.8465 27.1038 38.0057 27.5568 38.0057C28.0097 38.0057 28.4626 37.8465 28.8082 37.5279L32.6921 33.9473C33.3833 33.3101 33.3833 32.2771 32.6921 31.6398L28.8082 28.0592ZM14.6947 31.2116L12.0623 28.7847L14.6947 26.3578C15.3859 25.7207 15.3859 24.6876 14.6947 24.0504C14.0036 23.4132 12.8829 23.4132 12.1918 24.0504L8.30791 27.631C7.61671 28.2682 7.61671 29.3012 8.30791 29.9384L12.1918 33.519C12.5373 33.8376 12.9903 33.9969 13.4433 33.9969C13.8962 33.9969 14.3491 33.8376 14.6947 33.519C15.3859 32.8818 15.3859 31.8487 14.6947 31.2116ZM41 5.71053V56.2895C41 59.4383 38.2213 62 34.8058 62H6.19423C2.7787 62 0 59.4383 0 56.2895V5.71053C0 2.56171 2.7787 0 6.19423 0H34.8058C38.2213 0 41 2.56171 41 5.71053ZM11.548 3.26316L12.7805 5.71053H28.2194L29.4518 3.26316H11.548ZM37.4604 5.71053C37.4604 4.36101 36.2696 3.26316 34.8058 3.26316H33.3544L30.9542 8.0292C30.6641 8.60521 30.0377 8.97368 29.3489 8.97368H11.6511C10.9623 8.97368 10.3359 8.60521 10.0458 8.0292L7.64559 3.26316H6.19423C4.73041 3.26316 3.53956 4.36101 3.53956 5.71053V56.2895C3.53956 57.639 4.73041 58.7368 6.19423 58.7368H34.8058C36.2696 58.7368 37.4604 57.639 37.4604 56.2895V5.71053ZM25.3669 53.5702H15.6331C14.6558 53.5702 13.8633 54.3006 13.8633 55.2018C13.8633 56.103 14.6558 56.8334 15.6331 56.8334H25.3669C26.3442 56.8334 27.1367 56.103 27.1367 55.2018C27.1367 54.3006 26.3442 53.5702 25.3669 53.5702Z" fill="#0044EB"/>
</svg>
