<svg width="43" height="41" viewBox="0 0 43 41" fill="none" xmlns="http://www.w3.org/2000/svg">
<path d="M22.3398 33.0977C22.3398 33.5615 21.9639 33.9375 21.5 33.9375C21.0361 33.9375 20.6602 33.5615 20.6602 33.0977C20.6602 32.6338 21.0361 32.2578 21.5 32.2578C21.9639 32.2578 22.3398 32.6338 22.3398 33.0977Z" fill="#FFB053"/>
<path d="M40.2285 25.5391C40.2285 22.7604 37.9682 20.5 35.1895 20.5C32.4108 20.5 30.1504 22.7604 30.1504 25.5391C30.1504 28.3178 32.4108 30.5781 35.1895 30.5781C37.9682 30.5781 40.2285 28.3178 40.2285 25.5391ZM35.1895 28.8984C33.3372 28.8984 31.8301 27.3913 31.8301 25.5391C31.8301 23.6868 33.3372 22.1797 35.1895 22.1797C37.0417 22.1797 38.5488 23.6868 38.5488 25.5391C38.5488 27.3913 37.0417 28.8984 35.1895 28.8984Z" fill="#FFB053"/>
<path d="M35.1895 30.5781C33.0731 30.5781 30.9627 31.4567 29.5251 32.8811C27.6328 30.3944 24.715 28.8984 21.5 28.8984C18.4211 28.8984 15.4377 30.3032 13.4752 32.8811C12.0373 31.457 9.92722 30.5781 7.81055 30.5781C3.57688 30.5781 0 34.0395 0 38.1367V39.8164C0 40.2803 0.375961 40.6562 0.839844 40.6562H42.1602C42.624 40.6562 43 40.2803 43 39.8164V38.1367C43 34.0395 39.4231 30.5781 35.1895 30.5781ZM1.67969 38.1367C1.67969 34.9499 4.48726 32.2578 7.81055 32.2578C9.62901 32.2578 11.4324 33.0635 12.5488 34.3443C11.8106 35.7701 11.4219 37.3592 11.4219 38.9766H1.67969V38.1367ZM21.5 30.5781C26.1733 30.5781 29.8984 34.3699 29.8984 38.9766H13.1016C13.1016 34.3085 16.9028 30.5781 21.5 30.5781ZM41.3203 38.9766H31.5781C31.5781 37.3592 31.1894 35.7701 30.4512 34.3443C31.5676 33.0635 33.371 32.2578 35.1895 32.2578C38.5127 32.2578 41.3203 34.9499 41.3203 38.1367V38.9766Z" fill="#FFB053"/>
<path d="M12.8496 25.5391C12.8496 22.7604 10.5892 20.5 7.81055 20.5C5.03185 20.5 2.77148 22.7604 2.77148 25.5391C2.77148 28.3178 5.03185 30.5781 7.81055 30.5781C10.5892 30.5781 12.8496 28.3178 12.8496 25.5391ZM7.81055 28.8984C5.9583 28.8984 4.45117 27.3913 4.45117 25.5391C4.45117 23.6868 5.9583 22.1797 7.81055 22.1797C9.6628 22.1797 11.1699 23.6868 11.1699 25.5391C11.1699 27.3913 9.6628 28.8984 7.81055 28.8984Z" fill="#FFB053"/>
<path d="M28.2188 22.1797C28.2188 18.4749 25.2048 15.4609 21.5 15.4609C17.7952 15.4609 14.7812 18.4749 14.7812 22.1797C14.7812 25.8845 17.7952 28.8984 21.5 28.8984C25.2048 28.8984 28.2188 25.8845 28.2188 22.1797ZM21.5 27.2188C18.7213 27.2188 16.4609 24.9584 16.4609 22.1797C16.4609 19.401 18.7213 17.1406 21.5 17.1406C24.2787 17.1406 26.5391 19.401 26.5391 22.1797C26.5391 24.9584 24.2787 27.2188 21.5 27.2188Z" fill="#FFB053"/>
<path d="M28.1466 5.22829C28.0478 4.92418 27.7851 4.70274 27.4685 4.65681L23.846 4.13092L22.224 0.81485C22.0833 0.526482 21.7907 0.34375 21.4698 0.34375C21.149 0.34375 20.8563 0.526482 20.7153 0.814522L19.0937 4.13092L15.4712 4.65648C15.1546 4.70241 14.8918 4.92418 14.7931 5.22829C14.6943 5.53241 14.7767 5.86605 15.0056 6.08913L17.6288 8.64574L17.0098 12.2561C16.9557 12.571 17.0852 12.8896 17.3441 13.0772C17.6013 13.2642 17.9438 13.2908 18.2285 13.1412L21.4698 11.4369L24.7124 13.1412C24.9952 13.2901 25.338 13.2652 25.5969 13.0772C25.8554 12.8892 25.985 12.571 25.9308 12.2558L25.3111 8.64574L27.934 6.08913C28.163 5.86605 28.2453 5.53241 28.1466 5.22829ZM23.822 7.75111C23.6242 7.94401 23.5337 8.22221 23.5806 8.4945L23.9871 10.8628L21.8605 9.74475C21.6158 9.61615 21.3235 9.61615 21.0788 9.74475L18.9529 10.8628L19.3591 8.4945C19.4056 8.22188 19.3151 7.94401 19.1173 7.75111L17.3969 6.07437L19.7737 5.72925C20.0486 5.68955 20.2858 5.51633 20.4076 5.26701L21.4698 3.09522L22.5318 5.26701C22.6538 5.51666 22.891 5.68955 23.1656 5.72925L25.5427 6.07437L23.822 7.75111Z" fill="#FFB053"/>
<path d="M40.6996 11.5229C40.6009 11.2187 40.3381 10.9973 40.0215 10.9514L37.5673 10.5948L36.4699 8.37049C36.3285 8.08376 36.0368 7.90234 35.717 7.90234C35.717 7.90234 35.717 7.90234 35.7167 7.90234C35.3971 7.90234 35.1051 8.08376 34.9637 8.37049L33.8657 10.5948L31.4111 10.9514C31.0949 10.9973 30.8321 11.2187 30.7334 11.5229C30.6343 11.827 30.7166 12.1606 30.9456 12.3837L32.7214 14.1155L32.3022 16.5596C32.2484 16.8746 32.3776 17.1928 32.6365 17.3808C32.895 17.5687 33.2378 17.5937 33.5206 17.4451L35.7167 16.2913L37.9121 17.4451C38.1949 17.5937 38.538 17.5687 38.7965 17.3808C39.055 17.1931 39.1843 16.8746 39.1305 16.5596L38.7112 14.1155L40.4874 12.3837C40.7164 12.1606 40.7984 11.827 40.6996 11.5229ZM37.2228 13.2212C37.0246 13.4141 36.9344 13.692 36.9813 13.9643L37.1874 15.1663L36.1077 14.5991C35.863 14.4705 35.5707 14.4705 35.3263 14.5991L34.2456 15.1667L34.452 13.9643C34.4986 13.692 34.4083 13.4141 34.2105 13.2212L33.3366 12.3689L34.5442 12.1937C34.8178 12.1541 35.0543 11.9821 35.1767 11.7345L35.7167 10.6404L36.2563 11.7341C36.3787 11.9821 36.6152 12.1541 36.8888 12.1937L38.0964 12.3689L37.2228 13.2212Z" fill="#FFB053"/>
<path d="M12.1449 11.5229C12.0462 11.2187 11.7834 10.9973 11.4668 10.9514L9.01258 10.5948L7.9152 8.37049C7.77381 8.08376 7.48216 7.90234 7.1623 7.90234C6.84243 7.90234 6.55046 8.08376 6.40906 8.37049L5.31103 10.5948L2.85646 10.9514C2.5402 10.9973 2.27742 11.2187 2.17868 11.5229C2.0796 11.827 2.16195 12.1606 2.39093 12.3837L4.16674 14.1155L3.74781 16.5596C3.69368 16.8746 3.82326 17.1928 4.08178 17.3808C4.34029 17.5687 4.68312 17.5937 4.96624 17.4451L7.16197 16.2913L9.35737 17.4451C9.64213 17.5947 9.98463 17.5678 10.2418 17.3808C10.5003 17.1931 10.6299 16.8746 10.5758 16.5596L10.1565 14.1155L11.9327 12.3837C12.1617 12.1606 12.2437 11.827 12.1449 11.5229ZM8.66778 13.2212C8.46996 13.4141 8.37974 13.692 8.42633 13.9643L8.63268 15.1663L7.55269 14.5991C7.30828 14.4705 7.01598 14.4705 6.77157 14.5991L5.6906 15.1667L5.89695 13.9643C5.94387 13.692 5.85332 13.4141 5.6555 13.2212L4.78154 12.3689L5.98947 12.1937C6.26274 12.1541 6.49928 11.9821 6.62165 11.7345L7.16164 10.6404L7.70131 11.7341C7.82367 11.9821 8.06021 12.1541 8.33381 12.1937L9.54142 12.3689L8.66778 13.2212Z" fill="#FFB053"/>
<path d="M25.1802 33.3574C24.7924 33.1025 24.2718 33.2104 24.0172 33.5982C23.7623 33.9856 23.8703 34.5063 24.258 34.7612C25.0346 35.2713 25.6553 35.9825 26.0529 36.8178C26.2517 37.2361 26.7523 37.4149 27.1719 37.2151C27.5908 37.016 27.7686 36.5147 27.5695 36.0961C27.04 34.9833 26.2136 34.0361 25.1802 33.3574Z" fill="#FFB053"/>
</svg>
