<svg width="74" height="63" viewBox="0 0 74 63" fill="none" xmlns="http://www.w3.org/2000/svg">
<path d="M46.1233 49.5687C50.6272 49.5687 54.2915 45.9359 54.2915 41.4706V33.4307H59.8687C60.7204 36.4316 63.5039 38.6388 66.7993 38.6388C70.7696 38.6388 73.9997 35.4365 73.9997 31.5C73.9997 27.5635 70.7697 24.3612 66.7993 24.3612C63.5039 24.3612 60.7204 26.5684 59.8687 29.5693H54.2915V21.5293C54.2915 17.064 50.6272 13.4312 46.1233 13.4312H45.7586V9.06933H59.8685C60.7202 12.0702 63.5037 14.2774 66.7991 14.2774C70.7694 14.2774 73.9995 11.0751 73.9995 7.13863C73.9995 3.20248 70.7696 0 66.7991 0C63.5037 0 60.7202 2.20702 59.8685 5.20794H43.8114C42.736 5.20794 41.864 6.07243 41.864 7.13863V13.4312H32.1358V7.13863C32.1358 6.07243 31.2639 5.20794 30.1884 5.20794H14.131C13.2793 2.20717 10.4958 0 7.2004 0C3.23013 0 0 3.20233 0 7.13863C0 11.0749 3.22997 14.2774 7.2004 14.2774C10.4958 14.2774 13.2793 12.0702 14.131 9.06933H28.2409V13.4312H27.8762C23.3724 13.4312 19.7081 17.064 19.7081 21.5293V29.5693H14.1308C13.2791 26.5684 10.4956 24.3612 7.20025 24.3612C3.22997 24.3612 0 27.5637 0 31.5C0 35.4363 3.22997 38.6388 7.2004 38.6388C10.4958 38.6388 13.2793 36.4316 14.131 33.4307H19.7082V41.4707C19.7082 45.936 23.3725 49.5689 27.8764 49.5689H28.2411V53.9307H14.1311C13.2794 50.9298 10.496 48.7226 7.20056 48.7226C3.23028 48.7226 0.000155703 51.9249 0.000155703 55.8614C0.000155703 59.7975 3.23013 63 7.20056 63C10.496 63 13.2794 60.793 14.1311 57.7921H30.1886C31.264 57.7921 32.136 56.9276 32.136 55.8614V49.5689H41.8642V55.8614C41.8642 56.9276 42.7361 57.7921 43.8116 57.7921H59.869C60.7207 60.7928 63.5042 63 66.7996 63C70.7699 63 74 59.7977 74 55.8614C74 51.9251 70.77 48.7226 66.7996 48.7226C63.5042 48.7226 60.7207 50.9298 59.869 53.9307H45.7591V49.5689H46.1233V49.5687ZM66.7993 28.2226C68.622 28.2226 70.105 29.6929 70.105 31.5C70.105 33.3071 68.622 34.7774 66.7993 34.7774C64.9766 34.7774 63.4938 33.3071 63.4938 31.5C63.4938 29.6929 64.9766 28.2226 66.7993 28.2226ZM66.7993 3.86155C68.622 3.86155 70.105 5.33181 70.105 7.13879C70.105 8.94592 68.622 10.4162 66.7993 10.4162C64.9766 10.4162 63.4936 8.94592 63.4936 7.13879C63.4938 5.33166 64.9766 3.86155 66.7993 3.86155ZM7.2004 10.416C5.37767 10.416 3.89472 8.94577 3.89472 7.13863C3.89472 5.33166 5.37767 3.86139 7.2004 3.86139C9.02313 3.86139 10.5061 5.33166 10.5061 7.13863C10.5061 8.94592 9.02313 10.416 7.2004 10.416ZM7.2004 34.7774C5.37767 34.7774 3.89472 33.3071 3.89472 31.5C3.89472 29.6929 5.37767 28.2226 7.2004 28.2226C9.02313 28.2226 10.5061 29.6929 10.5061 31.5C10.5061 33.3071 9.02313 34.7774 7.2004 34.7774ZM7.2004 59.1385C5.37767 59.1385 3.89472 57.6682 3.89472 55.8612C3.89472 54.0541 5.37767 52.5838 7.2004 52.5838C9.02313 52.5838 10.5061 54.0541 10.5061 55.8612C10.5061 57.6683 9.02313 59.1385 7.2004 59.1385ZM66.7993 52.584C68.622 52.584 70.105 54.0542 70.105 55.8614C70.105 57.6684 68.622 59.1386 66.7993 59.1386C64.9766 59.1386 63.4936 57.6684 63.4936 55.8614C63.4938 54.0541 64.9766 52.584 66.7993 52.584ZM23.6029 41.4707V21.5293C23.6029 19.1931 25.5201 17.2926 27.8764 17.2926H46.1235C48.4798 17.2926 50.3969 19.1931 50.3969 21.5293V41.4706C50.3969 43.8067 48.4798 45.7073 46.1235 45.7073H27.8764C25.5201 45.7073 23.6029 43.8069 23.6029 41.4707Z" fill="#0044EB"/>
</svg>
