<svg width="54" height="54" viewBox="0 0 54 54" fill="none" xmlns="http://www.w3.org/2000/svg">
<g clip-path="url(#clip0_3339_62017)">
<path d="M27 0C21.6599 0 16.4397 1.58352 11.9996 4.55032C7.55949 7.51712 4.09883 11.7339 2.05526 16.6675C0.0116987 21.6012 -0.522991 27.03 0.51881 32.2674C1.56061 37.5049 4.13211 42.3159 7.90813 46.0919C11.6841 49.8679 16.4951 52.4394 21.7326 53.4812C26.9701 54.523 32.3989 53.9883 37.3325 51.9448C42.2661 49.9012 46.4829 46.4405 49.4497 42.0004C52.4165 37.5603 54 32.3401 54 27C53.9919 19.8416 51.1447 12.9788 46.083 7.91706C41.0212 2.85533 34.1584 0.00809905 27 0ZM27 52.2C22.0159 52.2 17.1438 50.7221 12.9996 47.953C8.85553 45.184 5.62558 41.2483 3.71825 36.6436C1.81092 32.0389 1.31188 26.972 2.28422 22.0837C3.25657 17.1954 5.65664 12.7052 9.18092 9.18091C12.7052 5.65663 17.1954 3.25656 22.0837 2.28421C26.9721 1.31186 32.0389 1.81091 36.6436 3.71824C41.2483 5.62556 45.184 8.85551 47.9531 12.9996C50.7221 17.1438 52.2 22.0159 52.2 27C52.1924 33.6811 49.535 40.0864 44.8107 44.8107C40.0864 49.5349 33.6811 52.1924 27 52.2Z" fill="#0E50F2"/>
<path d="M27 3.59998C22.3719 3.59998 17.8478 4.97236 13.9996 7.54359C10.1515 10.1148 7.1523 13.7694 5.38121 18.0452C3.61011 22.321 3.14672 27.0259 4.04961 31.5651C4.9525 36.1042 7.18114 40.2737 10.4537 43.5463C13.7262 46.8188 17.8957 49.0475 22.4349 49.9504C26.974 50.8532 31.679 50.3899 35.9548 48.6188C40.2306 46.8477 43.8852 43.8484 46.4564 40.0003C49.0276 36.1522 50.4 31.6281 50.4 27C50.3931 20.796 47.9255 14.8482 43.5387 10.4613C39.1518 6.07445 33.2039 3.60688 27 3.59998ZM17.4924 18.765C15.8842 20.6024 14.8497 22.8709 14.517 25.29C14.4953 25.5067 14.3959 25.7082 14.237 25.8571C14.0781 26.0061 13.8706 26.0923 13.653 26.1H5.42249C5.63178 20.998 7.64852 16.1367 11.1123 12.3849L17.4924 18.765ZM18.7596 17.487L12.3849 11.1123C16.1367 7.64851 20.998 5.63177 26.1 5.42248V14.4414C23.3887 14.6382 20.8138 15.7065 18.7596 17.487ZM27.9 5.42248C33.0017 5.63159 37.8628 7.64837 41.6142 11.1123L37.6083 15.12C37.261 15.067 36.9062 15.1367 36.6048 15.3171C35.9037 15.7329 35.1072 16.2108 34.2648 16.722C32.3899 15.3969 30.1896 14.6072 27.9 14.4378V5.42248ZM36.5661 17.4339C32.9274 23.5053 30.1572 27.6615 28.9161 28.9035C28.6653 29.1564 28.3668 29.3571 28.0379 29.4938C27.709 29.6305 27.3562 29.7006 27 29.7C26.4657 29.6993 25.9437 29.5402 25.4999 29.2428C25.0562 28.9453 24.7106 28.5229 24.507 28.029C24.3034 27.535 24.2509 26.9918 24.3562 26.468C24.4614 25.9443 24.7197 25.4635 25.0983 25.0866C26.3385 23.8428 30.4947 21.0726 36.5661 17.4339ZM38.6847 17.3961C38.8657 17.0943 38.9351 16.7385 38.8809 16.3908L42.8877 12.3849C46.3515 16.1367 48.3682 20.998 48.5775 26.1H40.347C40.1302 26.0923 39.9235 26.0065 39.7649 25.8585C39.6063 25.7105 39.5065 25.5102 39.4839 25.2945C39.2072 23.2899 38.4518 21.3815 37.2816 19.7307C37.7928 18.8901 38.2689 18.0954 38.6847 17.3961ZM27 48.6C21.4296 48.593 16.0767 46.4367 12.0569 42.5804C8.03716 38.7241 5.66058 33.4653 5.42249 27.9H13.653C14.3041 27.8889 14.9296 27.6442 15.4155 27.2106C15.9013 26.7769 16.2152 26.1832 16.2999 25.5375C16.5393 23.7646 17.2162 22.0792 18.2694 20.6332C19.3227 19.1872 20.7193 18.026 22.3333 17.2544C23.9472 16.4828 25.7279 16.1249 27.5147 16.2131C29.3014 16.3013 31.0382 16.8328 32.5683 17.7597C29.034 19.9422 25.1883 22.4496 23.8239 23.8122C23.1929 24.4409 22.7627 25.2426 22.5877 26.116C22.4127 26.9894 22.5009 27.895 22.841 28.7182C23.1811 29.5415 23.7579 30.2452 24.4982 30.7404C25.2386 31.2356 26.1093 31.5 27 31.5C27.592 31.5013 28.1783 31.3851 28.725 31.1582C29.2718 30.9312 29.7681 30.598 30.1851 30.1779C31.5468 28.8153 34.0551 24.966 36.2394 21.4308C37.0003 22.6883 37.4968 24.0878 37.6983 25.5438C37.7841 26.1888 38.0987 26.7815 38.5849 27.214C39.071 27.6465 39.6964 27.8899 40.347 27.9H48.5775C48.3394 33.4653 45.9628 38.7241 41.943 42.5804C37.9233 46.4367 32.5704 48.593 27 48.6Z" fill="#0E50F2"/>
<path d="M23.1363 34.4637C22.9675 34.2949 22.7386 34.2001 22.5 34.2001C22.2614 34.2001 22.0325 34.2949 21.8637 34.4637L19.8 36.5273V35.1C19.8 34.8613 19.7052 34.6323 19.5364 34.4636C19.3676 34.2948 19.1387 34.2 18.9 34.2C18.6613 34.2 18.4324 34.2948 18.2636 34.4636C18.0948 34.6323 18 34.8613 18 35.1V42.3C18 42.5386 18.0948 42.7676 18.2636 42.9363C18.4324 43.1051 18.6613 43.2 18.9 43.2C19.1387 43.2 19.3676 43.1051 19.5364 42.9363C19.7052 42.7676 19.8 42.5386 19.8 42.3V40.8726L21.8637 42.9363C22.0334 43.1002 22.2608 43.1909 22.4968 43.1889C22.7327 43.1868 22.9585 43.0922 23.1253 42.9253C23.2922 42.7584 23.3869 42.5327 23.3889 42.2967C23.391 42.0607 23.3002 41.8334 23.1363 41.6637L20.1726 38.7L23.1363 35.7363C23.305 35.5675 23.3998 35.3386 23.3998 35.1C23.3998 34.8613 23.305 34.6324 23.1363 34.4637Z" fill="#FFB053"/>
<path d="M33.3 34.2C33.0613 34.2 32.8324 34.2948 32.6636 34.4636C32.4948 34.6323 32.4 34.8613 32.4 35.1V42.3C32.4 42.5386 32.4948 42.7676 32.6636 42.9363C32.8324 43.1051 33.0613 43.2 33.3 43.2C33.5387 43.2 33.7676 43.1051 33.9364 42.9363C34.1052 42.7676 34.2 42.5386 34.2 42.3V35.1C34.2 34.8613 34.1052 34.6323 33.9364 34.4636C33.7676 34.2948 33.5387 34.2 33.3 34.2Z" fill="#FFB053"/>
<path d="M27.9 34.2H26.1C25.8613 34.2 25.6324 34.2948 25.4636 34.4636C25.2948 34.6323 25.2 34.8613 25.2 35.1V42.3C25.2 42.5386 25.2948 42.7676 25.4636 42.9363C25.6324 43.1051 25.8613 43.2 26.1 43.2C26.3387 43.2 26.5676 43.1051 26.7364 42.9363C26.9052 42.7676 27 42.5386 27 42.3V39.6H27.9C28.6161 39.6 29.3029 39.3155 29.8092 38.8091C30.3155 38.3028 30.6 37.616 30.6 36.9C30.6 36.1839 30.3155 35.4971 29.8092 34.9908C29.3029 34.4844 28.6161 34.2 27.9 34.2ZM27.9 37.8H27V36H27.9C28.1387 36 28.3676 36.0948 28.5364 36.2636C28.7052 36.4323 28.8 36.6613 28.8 36.9C28.8 37.1386 28.7052 37.3676 28.5364 37.5363C28.3676 37.7051 28.1387 37.8 27.9 37.8Z" fill="#FFB053"/>
</g>
<defs>
<clipPath id="clip0_3339_62017">
<rect width="54" height="54" fill="white"/>
</clipPath>
</defs>
</svg>
