<svg width="29" height="29" viewBox="0 0 29 29" fill="none" xmlns="http://www.w3.org/2000/svg">
<path d="M22.0474 19.184C21.1 18.2487 19.9172 18.2487 18.9758 19.184C18.2577 19.8961 17.5395 20.6082 16.8335 21.3324C16.6404 21.5315 16.4774 21.5737 16.2421 21.441C15.7774 21.1875 15.2826 20.9824 14.836 20.7048C12.7541 19.3952 11.0101 17.7116 9.46521 15.8167C8.69881 14.8753 8.0169 13.8675 7.54016 12.733C7.44361 12.5037 7.46171 12.3528 7.64878 12.1658C8.3669 11.4718 9.06692 10.7597 9.77297 10.0476C10.7566 9.05793 10.7566 7.89928 9.76694 6.90357C9.20572 6.33631 8.6445 5.78113 8.08328 5.21387C7.50395 4.63455 6.93066 4.04919 6.3453 3.4759C5.39787 2.5526 4.21508 2.5526 3.27368 3.48194C2.54952 4.19402 1.85554 4.92421 1.11932 5.62423C0.437406 6.26993 0.0934319 7.06047 0.0210163 7.98377C-0.0936416 9.48639 0.274471 10.9045 0.793449 12.2865C1.85554 15.1469 3.47282 17.6874 5.43408 20.0168C8.08328 23.1669 11.2454 25.6592 14.9446 27.4575C16.6102 28.2661 18.3361 28.8877 20.2129 28.9903C21.5043 29.0627 22.6267 28.7368 23.5259 27.7291C24.1414 27.0411 24.8354 26.4135 25.4871 25.7557C26.4527 24.7781 26.4587 23.5953 25.4992 22.6298C24.3526 21.4772 23.2 20.3306 22.0474 19.184Z" fill="#0044EB"/>
<path d="M20.8931 14.3742L23.1199 13.994C22.7699 11.9483 21.8043 10.0957 20.3379 8.62321C18.787 7.07231 16.8258 6.0947 14.6654 5.79297L14.3516 8.03182C16.0232 8.26717 17.5439 9.02149 18.7448 10.2224C19.8793 11.3569 20.6215 12.7931 20.8931 14.3742Z" fill="#0044EB"/>
<path d="M24.3763 4.69494C21.8055 2.12419 18.5528 0.500874 14.9622 0L14.6484 2.23885C17.7502 2.67334 20.5624 4.07941 22.7831 6.29412C24.8892 8.4002 26.2711 11.0615 26.772 13.9883L28.9988 13.6081C28.4134 10.2166 26.8142 7.13896 24.3763 4.69494Z" fill="#0044EB"/>
</svg>
