<svg viewBox="0 0 21 22" fill="none" xmlns="http://www.w3.org/2000/svg">
	<path d="M13.0291 9.76999L18.6891 5.98001C19.2591 5.60001 19.4091 4.82001 19.0291 4.26001L17.2091 1.54999C16.8291 0.979986 16.0491 0.829989 15.4891 1.20999L9.8291 5L13.0291 9.76999Z" stroke="#0044EB" stroke-width="2" stroke-linecap="round" stroke-linejoin="round"/>
	<path d="M10.1732 5.47923L5.39551 8.67911L7.95541 12.5013L12.7331 9.30138L10.1732 5.47923Z" stroke="#0044EB" stroke-width="2" stroke-linecap="round" stroke-linejoin="round"/>
	<path d="M3.82955 14.9L7.77955 12.26L5.53955 8.92001L1.58955 11.56C1.12955 11.87 1.00955 12.49 1.31955 12.95L2.44955 14.63C2.74955 15.08 3.36955 15.2 3.82955 14.9Z" stroke="#0044EB" stroke-width="2" stroke-linecap="round" stroke-linejoin="round"/>
	<path d="M10.0496 11.2L5.55957 21" stroke="#0044EB" stroke-width="2" stroke-linecap="round" stroke-linejoin="round"/>
	<path d="M10 11.2L14.44 21" stroke="#0044EB" stroke-width="2" stroke-linecap="round" stroke-linejoin="round"/>
</svg>