<svg width="46" height="46" viewBox="0 0 46 46" fill="none" xmlns="http://www.w3.org/2000/svg">
<path d="M22.9198 5.84523C23.4195 5.84523 23.8246 5.44013 23.8246 4.94042V0.904816C23.8246 0.405106 23.4195 0 22.9198 0C22.4201 0 22.015 0.405106 22.015 0.904816V4.94042C22.015 5.44013 22.4201 5.84523 22.9198 5.84523Z" fill="#0E50F2"/>
<path d="M45.0369 31.0845L43.4385 29.4906C42.8699 28.9227 42.112 28.6098 41.3045 28.6098C40.7882 28.6098 40.2925 28.7383 39.8533 28.979L36.8412 25.9705L36.9879 25.824C38.2098 24.5996 38.2094 22.61 36.9878 21.3897C36.5512 20.9524 36.0065 20.6607 35.4127 20.538C35.4945 20.2558 35.5375 19.9602 35.5375 19.6577C35.5375 18.8172 35.211 18.0291 34.62 17.4405C34.1834 17.0032 33.6388 16.7115 33.045 16.5888C33.1267 16.3066 33.1698 16.0111 33.1698 15.7085C33.1698 14.868 32.8433 14.0799 32.2513 13.4905C31.8042 13.0439 31.2547 12.7613 30.6776 12.641C30.9863 11.5766 30.7225 10.3791 29.8852 9.54031C29.1882 8.84627 28.2424 8.54799 27.3309 8.64466L21.3622 7.51487C20.4519 7.34219 19.3151 7.228 18.5975 7.88251C18.5522 7.92384 18.506 7.97137 18.4606 8.02429C17.3479 7.61873 16.0502 7.86023 15.1593 8.75022C14.5682 9.34059 14.2426 10.1283 14.2426 10.9684C14.2426 11.271 14.2854 11.5665 14.3671 11.8488C13.7739 11.9714 13.2299 12.2627 12.7948 12.6986C12.2026 13.2884 11.876 14.0753 11.8754 14.9143C11.8751 15.2176 11.9181 15.5141 12.0003 15.7971C11.4068 15.9195 10.8625 16.2102 10.426 16.6461C9.83376 17.2378 9.50763 18.026 9.50763 18.8656C9.50763 19.5087 9.69962 20.1213 10.0554 20.6388C9.60619 20.7911 9.1947 21.0445 8.85015 21.3887C7.62738 22.61 7.62693 24.5996 8.85096 25.8258L8.99714 25.9714L5.98467 28.9784C4.86513 28.4513 3.48576 28.6487 2.5619 29.5714L0.962498 31.1663C0.393607 31.7345 0.0804121 32.4924 0.0803223 33.3004C0.0803223 34.1084 0.393607 34.8665 0.962498 35.4347L2.95856 37.4283C3.31209 37.7815 3.88503 37.7812 4.23811 37.4276C4.59129 37.0741 4.59093 36.5012 4.23739 36.1481L2.24133 34.1544C2.01475 33.9281 1.88996 33.6248 1.88996 33.3005C1.88996 32.9762 2.01475 32.673 2.2408 32.4472L3.84028 30.8522C4.23991 30.4531 4.85156 30.3936 5.31606 30.6713C5.34876 30.7204 5.38658 30.7672 5.42989 30.8105C5.50742 30.8883 5.59592 30.9478 5.6899 30.9914L14.8623 40.1503C14.9059 40.2453 14.9657 40.3347 15.0438 40.4129C15.1198 40.489 15.2065 40.5478 15.2985 40.5911C15.4925 40.8104 15.5997 41.0906 15.5997 41.3894C15.5997 41.7137 15.4749 42.0169 15.2483 42.2433L13.6504 43.8392C13.1783 44.3093 12.4103 44.3092 11.9396 43.8407L9.94355 41.8444C9.59019 41.4911 9.01735 41.4911 8.66399 41.8444C8.31064 42.1978 8.31064 42.7706 8.66399 43.124L10.6615 45.1217C11.2494 45.7072 12.0215 45.9998 12.794 45.9998C13.5667 45.9998 14.3397 45.7067 14.9284 45.1207L16.5272 43.5237C17.0961 42.9554 17.4094 42.1975 17.4094 41.3894C17.4094 40.8127 17.249 40.2619 16.9508 39.787L20.3412 36.4008C20.3448 36.3971 20.3484 36.3934 20.352 36.3898C20.7403 35.9884 21.8213 36.0635 22.8669 36.1361C23.6097 36.1878 24.4379 36.2452 25.247 36.1519L28.9597 39.8602C28.7192 40.2988 28.5908 40.7938 28.5908 41.3093C28.5908 42.1166 28.9041 42.874 29.473 43.4423L31.0719 45.0393C31.6405 45.6072 32.3983 45.92 33.2058 45.92C34.0132 45.92 34.7711 45.6073 35.3397 45.0393L45.0375 35.3532C45.6064 34.7851 45.9197 34.0271 45.9197 33.2191C45.9196 32.4111 45.6063 31.6532 45.0369 31.0845ZM21.0252 9.29288L24.9502 10.0358L22.6009 12.3842C22.2375 12.2096 21.7394 11.8838 21.193 11.3611C20.445 10.6456 19.91 9.81945 19.8613 9.3042C19.8612 9.30393 19.8612 9.30366 19.8612 9.30339C19.8612 9.3033 19.8611 9.30321 19.8611 9.30312C19.8576 9.26611 19.8567 9.23655 19.8572 9.214C19.9755 9.18525 20.2898 9.15335 21.0252 9.29288ZM16.438 10.0306C16.8964 9.57265 17.6085 9.51982 18.1264 9.87057C18.4199 11.1013 19.4698 12.2167 19.9421 12.6686C20.2921 13.0035 21.4153 14.0077 22.5489 14.2837C22.7023 14.5035 22.7857 14.7656 22.7857 15.0422C22.7857 15.3984 22.6487 15.7314 22.399 15.9808C22.1501 16.2303 21.8165 16.3675 21.4596 16.3675C21.1027 16.3675 20.7691 16.2303 20.519 15.9797L20.5189 15.9796L20.5184 15.9791L16.4379 11.906C16.1891 11.6576 16.0521 11.3245 16.0521 10.9684C16.0522 10.6121 16.1892 10.2791 16.438 10.0306ZM14.0737 13.979C14.3226 13.7296 14.6559 13.5923 15.0122 13.5923C15.3689 13.5923 15.7033 13.7299 15.9538 13.9802L19.2396 17.2594C19.757 17.7776 19.757 18.6209 19.2414 19.1373C18.9911 19.3866 18.6563 19.5239 18.2988 19.5239C17.9414 19.5239 17.6066 19.3866 17.3574 19.1384L17.3573 19.1383L14.8646 16.6461C14.8607 16.6423 14.8565 16.6387 14.8525 16.6347L14.0727 15.8552C13.8225 15.6053 13.6847 15.2716 13.685 14.9157C13.6854 14.5609 13.8226 14.2289 14.0737 13.979ZM11.7048 17.9265C11.954 17.6777 12.2879 17.5407 12.6453 17.5407C12.9998 17.5407 13.3308 17.6758 13.5789 17.9202L16.0792 20.4194C16.3286 20.6677 16.4659 21.0004 16.4659 21.3562C16.4659 21.7119 16.3286 22.0446 16.0783 22.2939C15.8292 22.5426 15.4956 22.6796 15.1389 22.6796C14.7815 22.6796 14.4469 22.5422 14.1975 22.2939L13.291 21.3885C13.2909 21.3883 13.2906 21.3881 13.2904 21.3879L11.7049 19.8043C11.455 19.5547 11.3174 19.2212 11.3174 18.8654C11.3174 18.5097 11.455 18.1761 11.7048 17.9265ZM10.129 22.669C10.3792 22.4191 10.7136 22.2814 11.0705 22.2814C11.4274 22.2814 11.7617 22.419 12.0118 22.6687L12.9195 23.5753C13.1689 23.8237 13.3062 24.1564 13.3062 24.5121C13.3062 24.8679 13.1689 25.2005 12.9176 25.4508C12.6687 25.7001 12.3351 25.8375 11.9782 25.8375C11.6213 25.8375 11.2877 25.7002 11.0369 25.449L10.9233 25.3358C10.9218 25.3343 10.9206 25.3327 10.9192 25.3312C10.9175 25.3296 10.9157 25.3282 10.914 25.3266L10.1299 24.5456C9.61248 24.0271 9.61203 23.1853 10.129 22.669ZM28.568 32.9523C28.2148 32.5987 27.6419 32.5984 27.2884 32.9515L26.4834 33.7555C25.7185 34.5205 24.3325 34.4242 22.9921 34.3312C21.5365 34.23 20.0314 34.1256 19.0574 35.1256L15.7246 38.4543L7.39046 30.1323L10.3399 27.1882C10.8273 27.487 11.3899 27.6472 11.9784 27.6472C12.8193 27.6472 13.6077 27.3213 14.1967 26.7313C14.7895 26.1408 15.1161 25.3528 15.1161 24.5122C15.1161 24.5044 15.1156 24.4967 15.1156 24.4889C15.1234 24.489 15.1312 24.4894 15.139 24.4894C15.9787 24.4894 16.7666 24.1644 17.3563 23.5754C17.9492 22.985 18.2758 22.1969 18.2758 21.3564C18.2758 21.3486 18.2752 21.3408 18.2752 21.333C18.2831 21.333 18.291 21.3336 18.299 21.3336C19.1384 21.3336 19.9267 21.009 20.5204 20.4177C21.1367 19.8004 21.4416 18.9876 21.4357 18.1766C21.4438 18.1767 21.4519 18.1772 21.46 18.1772C22.3008 18.1771 23.0892 17.8512 23.679 17.2603C24.2701 16.6699 24.5957 15.8822 24.5957 15.0422C24.5957 14.4547 24.436 13.8931 24.1381 13.4066L26.7232 10.8226C26.9158 10.6307 27.1534 10.5104 27.4023 10.4607C27.4293 10.4578 27.4559 10.4535 27.4822 10.4483C27.8817 10.3932 28.3011 10.5165 28.6066 10.8207C29.124 11.339 29.124 12.1823 28.6085 12.6987L27.8212 13.4827C27.8186 13.4853 27.8158 13.4877 27.8132 13.4903L26.9064 14.3956C26.5528 14.7486 26.5524 15.3216 26.9056 15.6751C27.2589 16.0287 27.8317 16.029 28.1852 15.6759L28.9756 14.8866C28.9758 14.8864 28.976 14.8862 28.9761 14.886L29.0956 14.767C29.6145 14.2529 30.4551 14.254 30.9734 14.7716C31.2228 15.0199 31.3601 15.3526 31.3601 15.7084C31.3601 16.064 31.2228 16.3967 30.9714 16.647L30.1796 17.4405C30.1795 17.4405 30.1794 17.4406 30.1793 17.4408L29.2726 18.3438C28.9185 18.6965 28.9174 19.2694 29.27 19.6234C29.6227 19.9775 30.1955 19.9785 30.5496 19.626L31.4604 18.7188C31.7094 18.4694 32.043 18.3321 32.3998 18.3321C32.7568 18.3321 33.0904 18.4694 33.3412 18.7206C33.5906 18.9691 33.7279 19.3017 33.7279 19.6575C33.7279 20.0132 33.5906 20.3459 33.3398 20.5957L31.7612 22.1749C31.4079 22.5283 31.408 23.1011 31.7614 23.4544C31.9381 23.631 32.1695 23.7193 32.4011 23.7193C32.6327 23.7193 32.8643 23.6309 33.0409 23.4541L33.8146 22.6802C33.819 22.676 33.8237 22.6723 33.8282 22.6679C34.0771 22.4185 34.4107 22.2812 34.7676 22.2812C35.1245 22.2812 35.4581 22.4185 35.708 22.6688C36.2248 23.1851 36.2244 24.027 35.708 24.5443L34.9214 25.33C34.9211 25.3303 34.9207 25.3305 34.9205 25.3308C34.9202 25.3311 34.9199 25.3314 34.9197 25.3317L33.6712 26.5786C33.3177 26.9318 33.3173 27.5047 33.6704 27.8583C33.8471 28.0352 34.0789 28.1237 34.3106 28.1237C34.542 28.1237 34.7734 28.0355 34.95 27.8591L35.5607 27.2491L38.4875 30.1726L30.1541 38.4959L27.1682 35.5136C27.3764 35.3797 27.5756 35.2223 27.7625 35.0354L28.5671 34.2318C28.9208 33.8788 28.9212 33.3059 28.568 32.9523ZM43.7586 34.0729L34.0608 43.7589C33.8339 43.9855 33.5302 44.1103 33.2057 44.1103C32.8812 44.1103 32.5775 43.9855 32.3506 43.7588L30.7516 42.1619C30.525 41.9356 30.4003 41.6329 30.4003 41.3093C30.4003 40.9859 30.525 40.6831 30.7516 40.4568L40.4495 30.7707C40.6764 30.5441 40.98 30.4193 41.3046 30.4193C41.6291 30.4193 41.9328 30.5441 42.1603 30.7713L43.7587 32.3652C43.9853 32.5915 44.1101 32.8947 44.1101 33.219C44.11 33.5434 43.9852 33.8466 43.7586 34.0729Z" fill="#0E50F2"/>
<path d="M10.905 5.08243C11.0817 5.25871 11.3129 5.34675 11.5442 5.34675C11.776 5.34675 12.0079 5.25817 12.1846 5.08109C12.5376 4.72737 12.5371 4.15453 12.1833 3.80153L8.88626 0.511004C8.53263 0.158008 7.9597 0.158457 7.6067 0.512262C7.25371 0.865976 7.25425 1.43882 7.60796 1.79182L10.905 5.08243Z" fill="#0E50F2"/>
<path d="M34.2953 5.34672C34.5267 5.34672 34.7581 5.25849 34.9347 5.08213L38.2293 1.79151C38.5829 1.43843 38.5832 0.865493 38.23 0.511958C37.8769 0.158423 37.3041 0.158064 36.9505 0.511239L33.6559 3.80186C33.3024 4.15494 33.302 4.72788 33.6552 5.08141C33.8319 5.25831 34.0636 5.34672 34.2953 5.34672Z" fill="#0E50F2"/>
<path d="M5.64391 38.9206C5.29361 39.277 5.29846 39.8499 5.65487 40.2002L5.65747 40.2027C5.8333 40.3756 6.06159 40.4616 6.28979 40.4616C6.52402 40.4616 6.75824 40.371 6.93568 40.1905C7.28598 39.8342 7.27978 39.26 6.92346 38.9097C6.56723 38.5594 5.99439 38.5643 5.64391 38.9206Z" fill="#0E50F2"/>
<path d="M30.781 31.6489C30.9187 31.6489 31.0583 31.6175 31.1894 31.5515C31.6355 31.3265 31.8148 30.7824 31.5898 30.3362C31.3647 29.89 30.8205 29.7107 30.3745 29.9358L30.3694 29.9383C29.9233 30.1633 29.7466 30.7062 29.9715 31.1523C30.1304 31.4675 30.4498 31.6489 30.781 31.6489Z" fill="#0E50F2"/>
</svg>
