<svg width="52" height="58" viewBox="0 0 52 58" fill="none" xmlns="http://www.w3.org/2000/svg">
<path d="M26 5.83329C26.2248 5.83316 26.4403 5.74381 26.5992 5.58488C26.7582 5.42594 26.8475 5.21041 26.8477 4.98563V1.05493C26.8477 0.830119 26.7584 0.614514 26.5994 0.455548C26.4404 0.296582 26.2248 0.207275 26 0.207275C25.7752 0.207275 25.5596 0.296582 25.4006 0.455548C25.2417 0.614514 25.1523 0.830119 25.1523 1.05493V4.98563C25.1525 5.21041 25.2418 5.42594 25.4008 5.58488C25.5597 5.74381 25.7752 5.83316 26 5.83329Z" fill="#FFB053"/>
<path d="M50.5709 24.7787H46.6407C46.4159 24.7787 46.2003 24.868 46.0413 25.027C45.8823 25.1859 45.793 25.4015 45.793 25.6263C45.793 25.8512 45.8823 26.0668 46.0413 26.2257C46.2003 26.3847 46.4159 26.474 46.6407 26.474H50.5709C50.7957 26.474 51.0113 26.3847 51.1703 26.2257C51.3292 26.0668 51.4185 25.8512 51.4185 25.6263C51.4185 25.4015 51.3292 25.1859 51.1703 25.027C51.0113 24.868 50.7957 24.7787 50.5709 24.7787Z" fill="#FFB053"/>
<path d="M5.35933 24.7787H1.42863C1.20381 24.7787 0.988208 24.868 0.829241 25.027C0.670275 25.1859 0.580969 25.4015 0.580969 25.6263C0.580969 25.8512 0.670275 26.0668 0.829241 26.2257C0.988208 26.3847 1.20381 26.474 1.42863 26.474H5.35933C5.58414 26.474 5.79975 26.3847 5.95871 26.2257C6.11768 26.0668 6.20698 25.8512 6.20698 25.6263C6.20698 25.4015 6.11768 25.1859 5.95871 25.027C5.79975 24.868 5.58414 24.7787 5.35933 24.7787Z" fill="#FFB053"/>
<path d="M42.7754 7.6526L39.9955 10.4319C39.9146 10.5102 39.85 10.6037 39.8056 10.7071C39.7612 10.8106 39.7379 10.9218 39.7369 11.0343C39.736 11.1469 39.7574 11.2585 39.8001 11.3627C39.8427 11.4668 39.9057 11.5615 39.9853 11.641C40.0649 11.7206 40.1595 11.7835 40.2637 11.8261C40.3679 11.8687 40.4795 11.8902 40.5921 11.8892C40.7046 11.8882 40.8158 11.8648 40.9193 11.8203C41.0227 11.7759 41.1162 11.7113 41.1944 11.6303L43.9737 8.85095C44.1326 8.69204 44.2219 8.47651 44.2219 8.25178C44.2219 8.02704 44.1326 7.81151 43.9737 7.6526C43.8148 7.49369 43.5993 7.40442 43.3745 7.40442C43.1498 7.40442 42.9343 7.49369 42.7754 7.6526Z" fill="#FFB053"/>
<path d="M10.8056 39.6218L8.0263 42.4012C7.94532 42.4794 7.88073 42.5729 7.83628 42.6763C7.79184 42.7797 7.76843 42.8909 7.76743 43.0035C7.76643 43.116 7.78785 43.2277 7.83045 43.3318C7.87305 43.436 7.93597 43.5307 8.01555 43.6103C8.09512 43.6899 8.18975 43.7528 8.29391 43.7955C8.39808 43.8381 8.50969 43.8596 8.62224 43.8586C8.7348 43.8577 8.84603 43.8343 8.94946 43.7899C9.05288 43.7455 9.14643 43.681 9.22464 43.6L12.0016 40.8187C12.156 40.6589 12.2415 40.4448 12.2396 40.2225C12.2377 40.0003 12.1486 39.7877 11.9915 39.6305C11.8343 39.4733 11.6218 39.3841 11.3995 39.3821C11.1773 39.3801 10.9631 39.4655 10.8032 39.6199L10.8056 39.6218Z" fill="#FFB053"/>
<path d="M41.1944 39.6219C41.0336 39.473 40.8215 39.3921 40.6024 39.3961C40.3834 39.4002 40.1744 39.489 40.0193 39.6438C39.8643 39.7986 39.7752 40.0074 39.7708 40.2265C39.7663 40.4455 39.8469 40.6578 39.9955 40.8188L42.7754 43.5981C42.8536 43.6791 42.9471 43.7436 43.0505 43.788C43.154 43.8324 43.2652 43.8558 43.3778 43.8567C43.4903 43.8577 43.6019 43.8362 43.7061 43.7936C43.8103 43.7509 43.9049 43.688 43.9845 43.6084C44.064 43.5288 44.1269 43.4341 44.1695 43.3299C44.2121 43.2257 44.2336 43.1141 44.2326 43.0016C44.2316 42.889 44.2082 42.7778 44.1637 42.6744C44.1193 42.571 44.0547 42.4775 43.9737 42.3993L41.1944 39.6219Z" fill="#FFB053"/>
<path d="M10.8056 11.6302C10.9666 11.7786 11.1787 11.8588 11.3975 11.8543C11.6163 11.8497 11.8248 11.7606 11.9794 11.6057C12.134 11.4508 12.2226 11.2421 12.2268 11.0233C12.2309 10.8045 12.1502 10.5925 12.0016 10.4319L9.22222 7.65256C9.06099 7.50656 8.84978 7.42816 8.63233 7.43362C8.41489 7.43907 8.20788 7.52795 8.05416 7.68184C7.90045 7.83574 7.81183 8.04287 7.80664 8.26032C7.80145 8.47777 7.8801 8.68888 8.0263 8.84993L10.8056 11.6302Z" fill="#FFB053"/>
<path d="M43.84 25.6264C43.84 25.6167 43.8376 25.6075 43.8376 25.5978C43.8376 25.5595 43.84 25.5217 43.8376 25.4835C43.8029 20.7628 41.8985 16.2483 38.5416 12.929C35.1847 9.60976 30.6491 7.75634 25.9283 7.77479C21.2075 7.79325 16.6865 9.68209 13.3557 13.0275C10.0249 16.3729 8.15585 20.9022 8.15805 25.623V25.6293C8.16094 28.1241 8.68607 30.5906 9.69965 32.8702C10.7132 35.1498 12.1928 37.192 14.0432 38.8653C15.0062 39.7381 15.7757 40.8029 16.3023 41.9911C16.8288 43.1793 17.1008 44.4646 17.1006 45.7643V52.0611C17.1024 52.5617 17.2676 53.048 17.571 53.446C17.8745 53.8441 18.2996 54.1322 18.7818 54.2665L19.8722 57.2367C19.932 57.3996 20.0404 57.5403 20.1827 57.6396C20.325 57.739 20.4944 57.7923 20.668 57.7923H31.332C31.5056 57.7923 31.675 57.739 31.8173 57.6396C31.9596 57.5403 32.068 57.3996 32.1278 57.2367L33.2182 54.2665C33.7003 54.1322 34.1255 53.8441 34.429 53.446C34.7324 53.048 34.8976 52.5617 34.8994 52.0611V45.7643C34.908 44.4524 35.1895 43.1567 35.726 41.9595C36.2626 40.7624 37.0424 39.69 38.0159 38.8106C39.8432 37.1423 41.3041 35.1126 42.306 32.8502C43.3079 30.5877 43.8289 28.1419 43.8361 25.6675C43.8366 25.6535 43.84 25.6404 43.84 25.6264ZM42.1215 24.7787H37.0438C36.9324 24.7786 36.8222 24.8005 36.7193 24.8431C36.6164 24.8857 36.5229 24.9481 36.4442 25.0268C36.3655 25.1056 36.3031 25.199 36.2605 25.3019C36.2179 25.4048 36.196 25.515 36.1961 25.6264V26.9918C36.1886 27.4381 36.006 27.8635 35.6877 28.1764C35.3695 28.4894 34.941 28.6647 34.4947 28.6647C34.0484 28.6647 33.6199 28.4894 33.3017 28.1764C32.9834 27.8635 32.8009 27.4381 32.7934 26.9918V25.6264C32.7934 25.515 32.7715 25.4048 32.729 25.3019C32.6864 25.199 32.624 25.1056 32.5452 25.0268C32.4665 24.9481 32.373 24.8857 32.2702 24.8431C32.1673 24.8005 32.057 24.7786 31.9457 24.7787H26.8477V20.5264H27.3655C28.2662 20.5264 29.1301 20.1685 29.7671 19.5316C30.4041 18.8946 30.7619 18.0307 30.7619 17.1299C30.7619 16.2292 30.4041 15.3653 29.7671 14.7283C29.1301 14.0913 28.2662 13.7335 27.3655 13.7335H26.8477V9.50346C30.8401 9.68565 34.6203 11.3535 37.4462 14.1797C40.2721 17.0059 41.9396 20.7862 42.1215 24.7787ZM25.1523 9.50733V14.5812C25.1525 14.8059 25.2418 15.0215 25.4008 15.1804C25.5597 15.3393 25.7752 15.4287 26 15.4288H27.3655C27.8166 15.4288 28.2493 15.608 28.5683 15.9271C28.8874 16.2461 29.0666 16.6788 29.0666 17.1299C29.0666 17.5811 28.8874 18.0138 28.5683 18.3328C28.2493 18.6518 27.8166 18.8311 27.3655 18.8311H26C25.7752 18.8312 25.5597 18.9205 25.4008 19.0795C25.2418 19.2384 25.1525 19.454 25.1523 19.6787V24.7787H20.9005V24.2609C20.8898 23.3671 20.5273 22.5135 19.8914 21.8852C19.2556 21.2569 18.3977 20.9046 17.5038 20.9046C16.6099 20.9046 15.7521 21.2569 15.1162 21.8852C14.4804 22.5135 14.1178 23.3671 14.1071 24.2609V24.7787H9.87806C10.1034 20.8014 11.7851 17.0462 14.6023 14.2296C17.4195 11.4129 21.175 9.73194 25.1523 9.50733ZM15.18 37.6074C12.012 34.7418 10.1059 30.7396 9.87758 26.474H14.9562C15.1811 26.474 15.3967 26.3847 15.5556 26.2257C15.7146 26.0668 15.8039 25.8512 15.8039 25.6264V24.2609C15.8114 23.8147 15.994 23.3892 16.3122 23.0763C16.6305 22.7634 17.059 22.588 17.5053 22.588C17.9516 22.588 18.38 22.7634 18.6983 23.0763C19.0165 23.3892 19.1991 23.8147 19.2066 24.2609V25.6264C19.2066 25.8512 19.2959 26.0668 19.4549 26.2257C19.6139 26.3847 19.8295 26.474 20.0543 26.474H25.1523V30.7259H24.6345C23.7338 30.7259 22.8699 31.0837 22.2329 31.7207C21.5959 32.3576 21.2381 33.2215 21.2381 34.1223C21.2381 35.0231 21.5959 35.887 22.2329 36.5239C22.8699 37.1609 23.7338 37.5187 24.6345 37.5187H25.1523V45.3748H18.7857C18.7343 43.9049 18.3887 42.4601 17.7694 41.126C17.1501 39.7919 16.2696 38.5954 15.18 37.6074ZM33.2041 49.0207H18.7959V47.0701H33.2041V49.0207ZM32.5986 52.6671H19.4014C19.2408 52.667 19.0869 52.6031 18.9734 52.4896C18.8598 52.3761 18.796 52.2222 18.7959 52.0616V50.716H33.2041V52.0616C33.204 52.2222 33.1402 52.3761 33.0266 52.4896C32.9131 52.6031 32.7592 52.667 32.5986 52.6671ZM30.7406 56.0974H21.2594L20.6234 54.3624H31.3766L30.7406 56.0974ZM36.8737 37.5589C35.7758 38.5539 34.8869 39.7573 34.2586 41.0992C33.6304 42.441 33.2754 43.8944 33.2143 45.3748H26.8477V36.6711C26.8475 36.4463 26.7582 36.2308 26.5992 36.0718C26.4403 35.9129 26.2248 35.8236 26 35.8234H24.6345C24.1834 35.8234 23.7507 35.6442 23.4317 35.3252C23.1126 35.0062 22.9334 34.5735 22.9334 34.1223C22.9334 33.6711 23.1126 33.2385 23.4317 32.9194C23.7507 32.6004 24.1834 32.4212 24.6345 32.4212H26C26.2248 32.4211 26.4403 32.3317 26.5992 32.1728C26.7582 32.0138 26.8475 31.7983 26.8477 31.5735V26.474H31.0995V26.9918C31.1102 27.8856 31.4727 28.7392 32.1086 29.3675C32.7444 29.9958 33.6023 30.3482 34.4962 30.3482C35.3901 30.3482 36.2479 29.9958 36.8838 29.3675C37.5196 28.7392 37.8822 27.8856 37.8929 26.9918V26.474H42.1195C41.8938 30.7143 40.0096 34.6958 36.8737 37.5589Z" fill="#0E50F2"/>
</svg>
